GenAR102.ufo
<glyph name="quotedbl" format="1">
  <advance width="870"/>
  <unicode hex="0022"/>
  <outline>
    <contour>
      <point x="309" y="834" type="line"/>
      <point x="301" y="830"/>
      <point x="278" y="822"/>
      <point x="252" y="816"/>
      <point x="225" y="813"/>
      <point x="213" y="813" type="qcurve"/>
      <point x="160" y="1426" type="line"/>
      <point x="171" y="1432"/>
      <point x="213" y="1449"/>
      <point x="258" y="1465"/>
      <point x="298" y="1478"/>
      <point x="309" y="1480" type="qcurve"/>
      <point x="352" y="1459" type="line"/>
    </contour>
    <contour>
      <point x="668" y="834" type="line"/>
      <point x="660" y="830"/>
      <point x="637" y="822"/>
      <point x="610" y="816"/>
      <point x="583" y="813"/>
      <point x="571" y="813" type="qcurve"/>
      <point x="518" y="1426" type="line"/>
      <point x="529" y="1432"/>
      <point x="570" y="1449"/>
      <point x="616" y="1465"/>
      <point x="657" y="1478"/>
      <point x="668" y="1480" type="qcurve"/>
      <point x="711" y="1459" type="line"/>
    </contour>
  </outline>
</glyph>
<glyph name="numbersign" format="1">
  <advance width="961"/>
  <unicode hex="0023"/>
  <outline>
    <contour>
      <point x="399" y="590" type="line"/>
      <point x="588" y="590" type="line"/>
      <point x="661" y="846" type="line"/>
      <point x="473" y="846" type="line"/>
    </contour>
    <contour>
      <point x="806" y="961" type="line"/>
      <point x="957" y="961" type="line"/>
      <point x="982" y="936" type="line"/>
      <point x="977" y="914"/>
      <point x="959" y="863"/>
      <point x="951" y="846" type="qcurve"/>
      <point x="773" y="846" type="line"/>
      <point x="700" y="590" type="line"/>
      <point x="851" y="590" type="line"/>
      <point x="873" y="563" type="line"/>
      <point x="868" y="543"/>
      <point x="853" y="492"/>
      <point x="845" y="475" type="qcurve"/>
      <point x="667" y="475" type="line"/>
      <point x="580" y="170" type="line"/>
      <point x="562" y="156"/>
      <point x="514" y="136"/>
      <point x="488" y="127" type="qcurve"/>
      <point x="462" y="147" type="line"/>
      <point x="555" y="475" type="line"/>
      <point x="366" y="475" type="line"/>
      <point x="279" y="170" type="line"/>
      <point x="261" y="156"/>
      <point x="215" y="136"/>
      <point x="189" y="127" type="qcurve"/>
      <point x="163" y="147" type="line"/>
      <point x="256" y="475" type="line"/>
      <point x="109" y="475" type="line"/>
      <point x="87" y="500" type="line"/>
      <point x="92" y="520"/>
      <point x="108" y="570"/>
      <point x="117" y="590" type="qcurve"/>
      <point x="289" y="590" type="line"/>
      <point x="362" y="846" type="line"/>
      <point x="218" y="846" type="line"/>
      <point x="193" y="870" type="line"/>
      <point x="198" y="892"/>
      <point x="216" y="941"/>
      <point x="224" y="961" type="qcurve"/>
      <point x="395" y="961" type="line"/>
      <point x="478" y="1251" type="line"/>
      <point x="500" y="1267"/>
      <point x="544" y="1283"/>
      <point x="566" y="1292" type="qcurve"/>
      <point x="595" y="1270" type="line"/>
      <point x="506" y="961" type="line"/>
      <point x="694" y="961" type="line"/>
      <point x="777" y="1251" type="line"/>
      <point x="799" y="1267"/>
      <point x="844" y="1283"/>
      <point x="867" y="1292" type="qcurve"/>
      <point x="894" y="1270" type="line"/>
    </contour>
  </outline>
</glyph>
<glyph name="ampersand" format="1">
  <advance width="1366"/>
  <unicode hex="0026"/>
  <outline>
    <contour>
      <point x="444" y="1130" type="qcurve" smooth="yes"/>
      <point x="444" y="1072"/>
      <point x="478" y="946"/>
      <point x="507" y="880" type="qcurve" smooth="yes"/>
      <point x="510" y="881"/>
      <point x="516" y="885" type="qcurve" smooth="yes"/>
      <point x="580" y="920"/>
      <point x="663" y="994"/>
      <point x="711" y="1067"/>
      <point x="729" y="1138"/>
      <point x="729" y="1171" type="qcurve" smooth="yes"/>
      <point x="729" y="1206"/>
      <point x="711" y="1268"/>
      <point x="676" y="1315"/>
      <point x="623" y="1343"/>
      <point x="588" y="1343" type="qcurve" smooth="yes"/>
      <point x="552" y="1343"/>
      <point x="498" y="1306"/>
      <point x="462" y="1246"/>
      <point x="444" y="1169"/>
    </contour>
    <contour>
      <point x="528" y="84" type="qcurve" smooth="yes"/>
      <point x="613" y="84"/>
      <point x="755" y="138"/>
      <point x="812" y="183" type="qcurve"/>
      <point x="762" y="235"/>
      <point x="656" y="356"/>
      <point x="555" y="489"/>
      <point x="462" y="631"/>
      <point x="425" y="703" type="qcurve"/>
      <point x="374" y="659"/>
      <point x="304" y="577"/>
      <point x="261" y="496"/>
      <point x="242" y="415"/>
      <point x="242" y="373" type="qcurve" smooth="yes"/>
      <point x="242" y="303"/>
      <point x="290" y="195"/>
      <point x="370" y="122"/>
      <point x="473" y="84"/>
    </contour>
    <contour>
      <point x="1346" y="748" type="line"/>
      <point x="1321" y="717"/>
      <point x="1272" y="676"/>
      <point x="1247" y="659" type="qcurve"/>
      <point x="1229" y="668"/>
      <point x="1183" y="682"/>
      <point x="1136" y="693"/>
      <point x="1092" y="699"/>
      <point x="1075" y="700" type="qcurve"/>
      <point x="1086" y="682"/>
      <point x="1099" y="651"/>
      <point x="1106" y="615"/>
      <point x="1108" y="572"/>
      <point x="1108" y="543" type="qcurve" smooth="yes"/>
      <point x="1108" y="472"/>
      <point x="1046" y="314"/>
      <point x="989" y="239" type="qcurve"/>
      <point x="1058" y="173"/>
      <point x="1116" y="127" type="qcurve" smooth="yes"/>
      <point x="1154" y="95"/>
      <point x="1242" y="74"/>
      <point x="1300" y="88" type="qcurve"/>
      <point x="1309" y="45" type="line"/>
      <point x="1222" y="7"/>
      <point x="1103" y="-30"/>
      <point x="1081" y="-30" type="qcurve" smooth="yes"/>
      <point x="1059" y="-30"/>
      <point x="949" y="50"/>
      <point x="877" y="119" type="qcurve"/>
      <point x="799" y="53"/>
      <point x="607" y="-30"/>
      <point x="498" y="-30" type="qcurve" smooth="yes"/>
      <point x="405" y="-30"/>
      <point x="251" y="19"/>
      <point x="141" y="115"/>
      <point x="80" y="258"/>
      <point x="80" y="352" type="qcurve" smooth="yes"/>
      <point x="80" y="464"/>
      <point x="234" y="693"/>
      <point x="380" y="799" type="qcurve"/>
      <point x="351" y="870"/>
      <point x="317" y="1007"/>
      <point x="317" y="1073" type="qcurve" smooth="yes"/>
      <point x="317" y="1154"/>
      <point x="371" y="1292"/>
      <point x="461" y="1393"/>
      <point x="578" y="1450"/>
      <point x="641" y="1450" type="qcurve" smooth="yes"/>
      <point x="705" y="1450"/>
      <point x="792" y="1409"/>
      <point x="845" y="1341"/>
      <point x="868" y="1252"/>
      <point x="868" y="1204" type="qcurve" smooth="yes"/>
      <point x="868" y="1099"/>
      <point x="737" y="916"/>
      <point x="618" y="842" type="qcurve" smooth="yes"/>
      <point x="599" y="830"/>
      <point x="565" y="807"/>
      <point x="549" y="796" type="qcurve"/>
      <point x="584" y="731"/>
      <point x="671" y="601"/>
      <point x="768" y="475"/>
      <point x="871" y="357"/>
      <point x="922" y="305" type="qcurve"/>
      <point x="954" y="355"/>
      <point x="987" y="457"/>
      <point x="987" y="502" type="qcurve" smooth="yes"/>
      <point x="987" y="544"/>
      <point x="959" y="618"/>
      <point x="914" y="673"/>
      <point x="856" y="705"/>
      <point x="827" y="705" type="qcurve"/>
      <point x="805" y="733" type="line"/>
      <point x="816" y="746"/>
      <point x="859" y="776"/>
      <point x="879" y="784" type="qcurve"/>
      <point x="1323" y="784" type="line"/>
      <point x="1346" y="748" type="line"/>
    </contour>
  </outline>
</glyph>
<glyph name="parenright" format="1">
  <advance width="649"/>
  <unicode hex="0029"/>
  <outline>
    <contour>
      <point x="530" y="664" type="qcurve" smooth="yes"/>
      <point x="530" y="499"/>
      <point x="464" y="192"/>
      <point x="344" y="-66"/>
      <point x="175" y="-261"/>
      <point x="72" y="-315" type="qcurve"/>
      <point x="41" y="-270" type="line"/>
      <point x="105" y="-216"/>
      <point x="221" y="-40"/>
      <point x="309" y="192"/>
      <point x="360" y="474"/>
      <point x="360" y="635" type="qcurve" smooth="yes"/>
      <point x="360" y="780"/>
      <point x="318" y="1057"/>
      <point x="237" y="1299"/>
      <point x="118" y="1493"/>
      <point x="41" y="1555" type="qcurve"/>
      <point x="72" y="1600" type="line"/>
      <point x="185" y="1549"/>
      <point x="356" y="1362"/>
      <point x="472" y="1116"/>
      <point x="530" y="823"/>
    </contour>
  </outline>
</glyph>
<glyph name="asterisk" format="1">
  <advance width="915"/>
  <unicode hex="002A"/>
  <outline>
    <contour>
      <point x="489" y="1188" type="line"/>
      <point x="750" y="1384" type="line"/>
      <point x="771" y="1370"/>
      <point x="828" y="1334"/>
      <point x="844" y="1317" type="qcurve"/>
      <point x="846" y="1276" type="line"/>
      <point x="520" y="1135" type="line"/>
      <point x="821" y="1006" type="line"/>
      <point x="819" y="981"/>
      <point x="817" y="913"/>
      <point x="809" y="891" type="qcurve"/>
      <point x="772" y="868" type="line"/>
      <point x="490" y="1079" type="line"/>
      <point x="528" y="756" type="line"/>
      <point x="517" y="750"/>
      <point x="491" y="735"/>
      <point x="462" y="722"/>
      <point x="435" y="711"/>
      <point x="424" y="709" type="qcurve"/>
      <point x="385" y="727" type="line"/>
      <point x="427" y="1079" type="line"/>
      <point x="166" y="883" type="line"/>
      <point x="155" y="890"/>
      <point x="128" y="907"/>
      <point x="102" y="925"/>
      <point x="79" y="942"/>
      <point x="72" y="950" type="qcurve"/>
      <point x="70" y="993" type="line"/>
      <point x="396" y="1133" type="line"/>
      <point x="94" y="1262" type="line"/>
      <point x="95" y="1274"/>
      <point x="96" y="1305"/>
      <point x="98" y="1337"/>
      <point x="102" y="1366"/>
      <point x="106" y="1376" type="qcurve"/>
      <point x="141" y="1399" type="line"/>
      <point x="426" y="1187" type="line"/>
      <point x="387" y="1513" type="line"/>
      <point x="398" y="1519"/>
      <point x="426" y="1533"/>
      <point x="455" y="1547"/>
      <point x="483" y="1558"/>
      <point x="494" y="1561" type="qcurve"/>
      <point x="530" y="1540" type="line"/>
    </contour>
  </outline>
</glyph>
<glyph name="comma" format="1">
  <advance width="469"/>
  <unicode hex="002C"/>
  <outline>
    <contour>
      <point x="391" y="70" type="qcurve" smooth="yes"/>
      <point x="391" y="31"/>
      <point x="360" y="-67"/>
      <point x="301" y="-169"/>
      <point x="218" y="-266"/>
      <point x="166" y="-305" type="qcurve"/>
      <point x="121" y="-270" type="line"/>
      <point x="149" y="-238"/>
      <point x="188" y="-178"/>
      <point x="212" y="-114"/>
      <point x="223" y="-43"/>
      <point x="223" y="0" type="qcurve" smooth="yes"/>
      <point x="223" y="44"/>
      <point x="168" y="96"/>
      <point x="104" y="92" type="qcurve"/>
      <point x="88" y="139" type="line"/>
      <point x="97" y="151"/>
      <point x="155" y="182"/>
      <point x="224" y="211"/>
      <point x="291" y="230"/>
      <point x="309" y="229" type="qcurve"/>
      <point x="357" y="206"/>
      <point x="391" y="127"/>
    </contour>
  </outline>
</glyph>
<glyph name="period" format="1">
  <advance width="469"/>
  <unicode hex="002E"/>
  <outline>
    <contour>
      <point x="369" y="123" type="qcurve" smooth="yes"/>
      <point x="369" y="88"/>
      <point x="348" y="29"/>
      <point x="311" y="-15"/>
      <point x="260" y="-40"/>
      <point x="231" y="-40" type="qcurve" smooth="yes"/>
      <point x="177" y="-40"/>
      <point x="131" y="18"/>
      <point x="131" y="72" type="qcurve" smooth="yes"/>
      <point x="131" y="106"/>
      <point x="153" y="165"/>
      <point x="191" y="210"/>
      <point x="242" y="236"/>
      <point x="270" y="236" type="qcurve" smooth="yes"/>
      <point x="320" y="236"/>
      <point x="369" y="177"/>
    </contour>
  </outline>
</glyph>
<glyph name="slash" format="1">
  <advance width="961"/>
  <unicode hex="002F"/>
  <outline>
    <contour>
      <point x="211" y="-284" type="line"/>
      <point x="201" y="-291"/>
      <point x="169" y="-306"/>
      <point x="133" y="-319"/>
      <point x="98" y="-331"/>
      <point x="86" y="-335" type="qcurve"/>
      <point x="49" y="-310" type="line"/>
      <point x="750" y="1551" type="line"/>
      <point x="777" y="1568"/>
      <point x="843" y="1592"/>
      <point x="872" y="1600" type="qcurve"/>
      <point x="909" y="1578" type="line"/>
    </contour>
  </outline>
</glyph>
<glyph name="zero" format="1">
  <advance width="961"/>
  <unicode hex="0030"/>
  <outline>
    <contour>
      <point x="721" y="565" type="qcurve" smooth="yes"/>
      <point x="721" y="702"/>
      <point x="678" y="910"/>
      <point x="606" y="1049"/>
      <point x="512" y="1120"/>
      <point x="461" y="1120" type="qcurve" smooth="yes"/>
      <point x="410" y="1120"/>
      <point x="328" y="1065"/>
      <point x="271" y="950"/>
      <point x="240" y="770"/>
      <point x="240" y="645" type="qcurve" smooth="yes"/>
      <point x="240" y="508"/>
      <point x="280" y="298"/>
      <point x="349" y="157"/>
      <point x="444" y="85"/>
      <point x="500" y="85" type="qcurve" smooth="yes"/>
      <point x="552" y="85"/>
      <point x="634" y="140"/>
      <point x="691" y="257"/>
      <point x="721" y="438"/>
    </contour>
    <contour>
      <point x="885" y="602" type="qcurve" smooth="yes"/>
      <point x="885" y="473"/>
      <point x="824" y="243"/>
      <point x="713" y="71"/>
      <point x="556" y="-30"/>
      <point x="461" y="-30" type="qcurve" smooth="yes"/>
      <point x="366" y="-30"/>
      <point x="222" y="71"/>
      <point x="125" y="243"/>
      <point x="76" y="473"/>
      <point x="76" y="602" type="qcurve" smooth="yes"/>
      <point x="76" y="731"/>
      <point x="138" y="961"/>
      <point x="249" y="1134"/>
      <point x="405" y="1235"/>
      <point x="500" y="1235" type="qcurve" smooth="yes"/>
      <point x="595" y="1235"/>
      <point x="739" y="1135"/>
      <point x="836" y="963"/>
      <point x="885" y="732"/>
    </contour>
  </outline>
</glyph>
<glyph name="one" format="1">
  <advance width="961"/>
  <unicode hex="0031"/>
  <outline>
    <contour>
      <point x="170" y="0" type="line"/>
      <point x="170" y="53" type="line"/>
      <point x="248" y="62"/>
      <point x="352" y="85"/>
      <point x="414" y="109"/>
      <point x="440" y="132"/>
      <point x="440" y="143" type="qcurve" smooth="yes"/>
      <point x="440" y="940" type="line" smooth="yes"/>
      <point x="440" y="980"/>
      <point x="434" y="1024"/>
      <point x="422" y="1038" type="qcurve" smooth="yes"/>
      <point x="416" y="1044"/>
      <point x="382" y="1052"/>
      <point x="320" y="1050"/>
      <point x="226" y="1038"/>
      <point x="160" y="1024" type="qcurve"/>
      <point x="139" y="1075" type="line"/>
      <point x="181" y="1087"/>
      <point x="296" y="1129"/>
      <point x="414" y="1178"/>
      <point x="520" y="1227"/>
      <point x="553" y="1245" type="qcurve"/>
      <point x="590" y="1210" type="line"/>
      <point x="590" y="143" type="line" smooth="yes"/>
      <point x="590" y="133"/>
      <point x="612" y="110"/>
      <point x="668" y="86"/>
      <point x="765" y="62"/>
      <point x="840" y="53" type="qcurve"/>
      <point x="840" y="0" type="line"/>
    </contour>
  </outline>
</glyph>
<glyph name="five" format="1">
  <advance width="961"/>
  <unicode hex="0035"/>
  <outline>
    <contour>
      <point x="836" y="410" type="qcurve" smooth="yes"/>
      <point x="836" y="323"/>
      <point x="783" y="164"/>
      <point x="682" y="42"/>
      <point x="534" y="-30"/>
      <point x="440" y="-30" type="qcurve" smooth="yes"/>
      <point x="347" y="-30"/>
      <point x="165" y="38"/>
      <point x="78" y="119" type="qcurve"/>
      <point x="113" y="186" type="line"/>
      <point x="166" y="149"/>
      <point x="253" y="104"/>
      <point x="327" y="80"/>
      <point x="389" y="72"/>
      <point x="418" y="72" type="qcurve" smooth="yes"/>
      <point x="483" y="72"/>
      <point x="580" y="121"/>
      <point x="644" y="204"/>
      <point x="676" y="310"/>
      <point x="676" y="367" type="qcurve" smooth="yes"/>
      <point x="676" y="435"/>
      <point x="643" y="547"/>
      <point x="576" y="626"/>
      <point x="473" y="670"/>
      <point x="403" y="670" type="qcurve" smooth="yes"/>
      <point x="382" y="670"/>
      <point x="328" y="660"/>
      <point x="269" y="640"/>
      <point x="210" y="610"/>
      <point x="184" y="590" type="qcurve"/>
      <point x="137" y="623" type="line"/>
      <point x="143" y="659"/>
      <point x="159" y="754"/>
      <point x="176" y="860"/>
      <point x="193" y="970"/>
      <point x="207" y="1075"/>
      <point x="217" y="1169"/>
      <point x="219" y="1204" type="qcurve"/>
      <point x="655" y="1204" type="line" smooth="yes"/>
      <point x="712" y="1204"/>
      <point x="776" y="1223"/>
      <point x="776" y="1223" type="qcurve"/>
      <point x="805" y="1194" type="line"/>
      <point x="794" y="1178"/>
      <point x="765" y="1143"/>
      <point x="735" y="1111"/>
      <point x="706" y="1084"/>
      <point x="694" y="1075" type="qcurve"/>
      <point x="307" y="1075" type="line"/>
      <point x="305" y="1046"/>
      <point x="295" y="955"/>
      <point x="282" y="860"/>
      <point x="268" y="776"/>
      <point x="264" y="754" type="qcurve"/>
      <point x="304" y="766"/>
      <point x="412" y="780"/>
      <point x="463" y="780" type="qcurve" smooth="yes"/>
      <point x="554" y="780"/>
      <point x="693" y="719"/>
      <point x="787" y="617"/>
      <point x="836" y="483"/>
    </contour>
  </outline>
</glyph>
<glyph name="six" format="1">
  <advance width="961"/>
  <unicode hex="0036"/>
  <outline>
    <contour>
      <point x="500" y="659" type="qcurve" smooth="yes"/>
      <point x="449" y="659"/>
      <point x="326" y="603"/>
      <point x="270" y="536" type="qcurve"/>
      <point x="270" y="417"/>
      <point x="309" y="244"/>
      <point x="381" y="131"/>
      <point x="483" y="76"/>
      <point x="545" y="76" type="qcurve" smooth="yes"/>
      <point x="599" y="76"/>
      <point x="670" y="126"/>
      <point x="713" y="205"/>
      <point x="731" y="302"/>
      <point x="731" y="348" type="qcurve" smooth="yes"/>
      <point x="731" y="442"/>
      <point x="686" y="562"/>
      <point x="618" y="632"/>
      <point x="537" y="659"/>
    </contour>
    <contour>
      <point x="881" y="412" type="qcurve" smooth="yes"/>
      <point x="881" y="365"/>
      <point x="860" y="263"/>
      <point x="817" y="165"/>
      <point x="754" y="77"/>
      <point x="671" y="10"/>
      <point x="567" y="-30"/>
      <point x="506" y="-30" type="qcurve" smooth="yes"/>
      <point x="424" y="-30"/>
      <point x="280" y="43"/>
      <point x="173" y="175"/>
      <point x="111" y="360"/>
      <point x="111" y="473" type="qcurve" smooth="yes"/>
      <point x="111" y="614"/>
      <point x="192" y="873"/>
      <point x="359" y="1081"/>
      <point x="614" y="1224"/>
      <point x="788" y="1249" type="qcurve"/>
      <point x="807" y="1190" type="line"/>
      <point x="689" y="1163"/>
      <point x="506" y="1054"/>
      <point x="375" y="910"/>
      <point x="294" y="739"/>
      <point x="279" y="650" type="qcurve"/>
      <point x="314" y="684"/>
      <point x="387" y="730"/>
      <point x="456" y="758"/>
      <point x="518" y="770"/>
      <point x="541" y="770" type="qcurve" smooth="yes"/>
      <point x="622" y="770"/>
      <point x="748" y="720"/>
      <point x="835" y="627"/>
      <point x="881" y="494"/>
    </contour>
  </outline>
</glyph>
<glyph name="seven" format="1">
  <advance width="961"/>
  <unicode hex="0037"/>
  <outline>
    <contour>
      <point x="885" y="1167" type="line"/>
      <point x="839" y="1060"/>
      <point x="745" y="839"/>
      <point x="656" y="625"/>
      <point x="574" y="423"/>
      <point x="505" y="245"/>
      <point x="449" y="97"/>
      <point x="432" y="44" type="qcurve"/>
      <point x="397" y="19"/>
      <point x="320" y="-17"/>
      <point x="270" y="-30" type="qcurve"/>
      <point x="229" y="3" type="line"/>
      <point x="316" y="156"/>
      <point x="454" y="434"/>
      <point x="572" y="695"/>
      <point x="678" y="947"/>
      <point x="733" y="1075" type="qcurve"/>
      <point x="279" y="1075" type="line" smooth="yes"/>
      <point x="264" y="1075"/>
      <point x="236" y="1073"/>
      <point x="206" y="1048"/>
      <point x="171" y="988"/>
      <point x="150" y="930" type="qcurve"/>
      <point x="104" y="948" type="line"/>
      <point x="107" y="971"/>
      <point x="117" y="1040"/>
      <point x="129" y="1114"/>
      <point x="141" y="1182"/>
      <point x="147" y="1204" type="qcurve"/>
      <point x="852" y="1204" type="line"/>
      <point x="885" y="1167" type="line"/>
    </contour>
  </outline>
</glyph>
<glyph name="nine" format="1">
  <advance width="961"/>
  <unicode hex="0039"/>
  <outline>
    <contour>
      <point x="481" y="555" type="qcurve" smooth="yes"/>
      <point x="550" y="555"/>
      <point x="667" y="631"/>
      <point x="709" y="693" type="qcurve"/>
      <point x="707" y="819"/>
      <point x="660" y="987"/>
      <point x="590" y="1088"/>
      <point x="505" y="1130"/>
      <point x="465" y="1130" type="qcurve" smooth="yes"/>
      <point x="414" y="1130"/>
      <point x="333" y="1089"/>
      <point x="277" y="1016"/>
      <point x="248" y="915"/>
      <point x="248" y="856" type="qcurve" smooth="yes"/>
      <point x="248" y="764"/>
      <point x="293" y="647"/>
      <point x="362" y="580"/>
      <point x="444" y="555"/>
    </contour>
    <contour>
      <point x="870" y="731" type="qcurve" smooth="yes"/>
      <point x="870" y="579"/>
      <point x="788" y="318"/>
      <point x="620" y="117"/>
      <point x="364" y="-18"/>
      <point x="190" y="-43" type="qcurve"/>
      <point x="172" y="16" type="line"/>
      <point x="305" y="49"/>
      <point x="497" y="157"/>
      <point x="625" y="300"/>
      <point x="694" y="475"/>
      <point x="704" y="576" type="qcurve"/>
      <point x="650" y="516"/>
      <point x="507" y="444"/>
      <point x="438" y="444" type="qcurve" smooth="yes"/>
      <point x="358" y="444"/>
      <point x="233" y="498"/>
      <point x="146" y="592"/>
      <point x="100" y="720"/>
      <point x="100" y="795" type="qcurve" smooth="yes"/>
      <point x="100" y="845"/>
      <point x="127" y="950"/>
      <point x="178" y="1048"/>
      <point x="251" y="1134"/>
      <point x="341" y="1198"/>
      <point x="447" y="1235"/>
      <point x="506" y="1235" type="qcurve" smooth="yes"/>
      <point x="576" y="1235"/>
      <point x="707" y="1177"/>
      <point x="809" y="1054"/>
      <point x="870" y="864"/>
    </contour>
  </outline>
</glyph>
<glyph name="less" format="1">
  <advance width="899"/>
  <unicode hex="003C"/>
  <outline>
    <contour>
      <point x="838" y="322" type="line"/>
      <point x="827" y="312"/>
      <point x="810" y="296"/>
      <point x="791" y="281"/>
      <point x="769" y="265"/>
      <point x="754" y="256" type="qcurve"/>
      <point x="86" y="506" type="line"/>
      <point x="61" y="530" type="line" smooth="yes"/>
      <point x="61" y="532"/>
      <point x="62" y="534"/>
      <point x="62" y="536" type="qcurve" smooth="yes"/>
      <point x="65" y="545" type="line" smooth="yes"/>
      <point x="65" y="547"/>
      <point x="67" y="553" type="qcurve" smooth="yes"/>
      <point x="69" y="561"/>
      <point x="70" y="566" type="qcurve" smooth="yes"/>
      <point x="71" y="568"/>
      <point x="73" y="574" type="qcurve" smooth="yes"/>
      <point x="74" y="577"/>
      <point x="75" y="584"/>
      <point x="77" y="587" type="qcurve" smooth="yes"/>
      <point x="78" y="589"/>
      <point x="78" y="591" type="qcurve" smooth="yes"/>
      <point x="78" y="593"/>
      <point x="79" y="595" type="qcurve" smooth="yes"/>
      <point x="81" y="600"/>
      <point x="83" y="609"/>
      <point x="85" y="613" type="qcurve" smooth="yes"/>
      <point x="87" y="616"/>
      <point x="88" y="622"/>
      <point x="90" y="625" type="qcurve" smooth="yes"/>
      <point x="90" y="625"/>
      <point x="92" y="629" type="qcurve" smooth="yes"/>
      <point x="813" y="899" type="line"/>
      <point x="838" y="874" type="line"/>
      <point x="835" y="863"/>
      <point x="828" y="837"/>
      <point x="820" y="809"/>
      <point x="812" y="783"/>
      <point x="809" y="774" type="qcurve"/>
      <point x="254" y="568" type="line"/>
      <point x="821" y="358" type="line"/>
      <point x="838" y="322" type="line"/>
    </contour>
  </outline>
</glyph>
<glyph name="greater" format="1">
  <advance width="899"/>
  <unicode hex="003E"/>
  <outline>
    <contour>
      <point x="832" y="601" type="line" smooth="yes"/>
      <point x="830" y="593"/>
      <point x="828" y="587" type="qcurve" smooth="yes"/>
      <point x="827" y="585"/>
      <point x="827" y="583" type="qcurve" smooth="yes"/>
      <point x="827" y="581"/>
      <point x="826" y="579" type="qcurve" smooth="yes"/>
      <point x="824" y="573"/>
      <point x="822" y="565" type="qcurve" smooth="yes"/>
      <point x="818" y="556"/>
      <point x="817" y="549" type="qcurve" smooth="yes"/>
      <point x="816" y="547"/>
      <point x="814" y="541"/>
      <point x="813" y="539" type="qcurve" smooth="yes"/>
      <point x="811" y="535"/>
      <point x="809" y="527"/>
      <point x="807" y="524" type="qcurve" smooth="yes"/>
      <point x="86" y="256" type="line"/>
      <point x="61" y="281" type="line"/>
      <point x="64" y="291"/>
      <point x="72" y="317"/>
      <point x="80" y="345"/>
      <point x="88" y="370"/>
      <point x="92" y="379" type="qcurve"/>
      <point x="643" y="585" type="line"/>
      <point x="78" y="795" type="line"/>
      <point x="61" y="834" type="line"/>
      <point x="84" y="852"/>
      <point x="127" y="884"/>
      <point x="145" y="899" type="qcurve"/>
      <point x="815" y="649" type="line"/>
      <point x="838" y="625" type="line"/>
    </contour>
  </outline>
</glyph>
<glyph name="question" format="1">
  <advance width="887"/>
  <unicode hex="003F"/>
  <outline>
    <contour>
      <point x="539" y="123" type="qcurve" smooth="yes"/>
      <point x="539" y="88"/>
      <point x="518" y="29"/>
      <point x="481" y="-15"/>
      <point x="430" y="-40"/>
      <point x="401" y="-40" type="qcurve" smooth="yes"/>
      <point x="347" y="-40"/>
      <point x="301" y="18"/>
      <point x="301" y="72" type="qcurve" smooth="yes"/>
      <point x="301" y="106"/>
      <point x="323" y="165"/>
      <point x="361" y="210"/>
      <point x="412" y="236"/>
      <point x="440" y="236" type="qcurve" smooth="yes"/>
      <point x="490" y="236"/>
      <point x="539" y="177"/>
    </contour>
    <contour>
      <point x="807" y="1165" type="qcurve" smooth="yes"/>
      <point x="807" y="1090"/>
      <point x="760" y="970"/>
      <point x="688" y="866"/>
      <point x="603" y="771"/>
      <point x="528" y="670"/>
      <point x="474" y="556"/>
      <point x="469" y="485" type="qcurve" smooth="yes"/>
      <point x="463" y="389" type="line"/>
      <point x="444" y="375"/>
      <point x="415" y="356"/>
      <point x="387" y="348" type="qcurve"/>
      <point x="362" y="369" type="line"/>
      <point x="354" y="485" type="line" smooth="yes"/>
      <point x="351" y="542"/>
      <point x="391" y="655"/>
      <point x="455" y="764"/>
      <point x="531" y="871"/>
      <point x="597" y="973"/>
      <point x="641" y="1072"/>
      <point x="641" y="1120" type="qcurve" smooth="yes"/>
      <point x="641" y="1244"/>
      <point x="529" y="1384"/>
      <point x="424" y="1384" type="qcurve" smooth="yes"/>
      <point x="388" y="1384"/>
      <point x="323" y="1351"/>
      <point x="273" y="1297"/>
      <point x="244" y="1225"/>
      <point x="244" y="1186" type="qcurve" smooth="yes"/>
      <point x="244" y="1172"/>
      <point x="251" y="1142"/>
      <point x="256" y="1128" type="qcurve"/>
      <point x="224" y="1111"/>
      <point x="154" y="1095"/>
      <point x="109" y="1090" type="qcurve"/>
      <point x="82" y="1120" type="line" smooth="yes"/>
      <point x="80" y="1128"/>
      <point x="80" y="1136" type="qcurve" smooth="yes"/>
      <point x="80" y="1145"/>
      <point x="80" y="1153" type="qcurve" smooth="yes"/>
      <point x="80" y="1223"/>
      <point x="149" y="1343"/>
      <point x="266" y="1431"/>
      <point x="418" y="1480"/>
      <point x="502" y="1480" type="qcurve" smooth="yes"/>
      <point x="575" y="1480"/>
      <point x="689" y="1434"/>
      <point x="767" y="1351"/>
      <point x="807" y="1235"/>
    </contour>
  </outline>
</glyph>
<glyph name="at" format="1">
  <advance width="1653"/>
  <unicode hex="0040"/>
  <outline>
    <contour>
      <point x="1014" y="731" type="line"/>
      <point x="1000" y="759"/>
      <point x="970" y="803"/>
      <point x="934" y="835"/>
      <point x="888" y="852"/>
      <point x="858" y="852" type="qcurve" smooth="yes"/>
      <point x="803" y="852"/>
      <point x="712" y="804"/>
      <point x="646" y="710"/>
      <point x="610" y="569"/>
      <point x="610" y="475" type="qcurve" smooth="yes"/>
      <point x="610" y="390"/>
      <point x="651" y="252"/>
      <point x="714" y="155"/>
      <point x="790" y="102"/>
      <point x="825" y="102" type="qcurve" smooth="yes"/>
      <point x="844" y="102"/>
      <point x="880" y="115"/>
      <point x="922" y="148"/>
      <point x="976" y="205"/>
      <point x="1014" y="250" type="qcurve"/>
    </contour>
    <contour>
      <point x="1583" y="549" type="qcurve" smooth="yes"/>
      <point x="1583" y="463"/>
      <point x="1543" y="309"/>
      <point x="1477" y="181"/>
      <point x="1390" y="79"/>
      <point x="1296" y="8"/>
      <point x="1199" y="-30"/>
      <point x="1157" y="-30" type="qcurve" smooth="yes"/>
      <point x="1133" y="-30"/>
      <point x="1089" y="-9"/>
      <point x="1053" y="37"/>
      <point x="1027" y="110"/>
      <point x="1020" y="162" type="qcurve"/>
      <point x="979" y="105"/>
      <point x="916" y="31"/>
      <point x="856" y="-13"/>
      <point x="794" y="-30"/>
      <point x="754" y="-30" type="qcurve" smooth="yes"/>
      <point x="703" y="-30"/>
      <point x="598" y="35"/>
      <point x="513" y="157"/>
      <point x="459" y="333"/>
      <point x="459" y="444" type="qcurve" smooth="yes"/>
      <point x="459" y="501"/>
      <point x="487" y="623"/>
      <point x="539" y="737"/>
      <point x="614" y="839"/>
      <point x="710" y="916"/>
      <point x="824" y="960"/>
      <point x="889" y="960" type="qcurve" smooth="yes"/>
      <point x="912" y="960"/>
      <point x="950" y="953"/>
      <point x="987" y="933"/>
      <point x="1029" y="897"/>
      <point x="1055" y="868" type="qcurve"/>
      <point x="1081" y="884"/>
      <point x="1135" y="929"/>
      <point x="1163" y="960" type="qcurve"/>
      <point x="1194" y="930" type="line"/>
      <point x="1194" y="930"/>
      <point x="1184" y="897"/>
      <point x="1173" y="840"/>
      <point x="1163" y="765"/>
      <point x="1163" y="723" type="qcurve" smooth="yes"/>
      <point x="1163" y="285" type="line" smooth="yes"/>
      <point x="1163" y="195"/>
      <point x="1224" y="109"/>
      <point x="1272" y="109" type="qcurve" smooth="yes"/>
      <point x="1297" y="109"/>
      <point x="1363" y="172"/>
      <point x="1423" y="281"/>
      <point x="1464" y="428"/>
      <point x="1464" y="512" type="qcurve" smooth="yes"/>
      <point x="1464" y="680"/>
      <point x="1378" y="942"/>
      <point x="1224" y="1121"/>
      <point x="1012" y="1214"/>
      <point x="885" y="1214" type="qcurve" smooth="yes"/>
      <point x="783" y="1214"/>
      <point x="605" y="1162"/>
      <point x="457" y="1069"/>
      <point x="341" y="940"/>
      <point x="261" y="787"/>
      <point x="219" y="614"/>
      <point x="219" y="524" type="qcurve" smooth="yes"/>
      <point x="219" y="343"/>
      <point x="331" y="54"/>
      <point x="520" y="-148"/>
      <point x="767" y="-256"/>
      <point x="903" y="-256" type="qcurve" smooth="yes"/>
      <point x="987" y="-256"/>
      <point x="1148" y="-221"/>
      <point x="1286" y="-168"/>
      <point x="1393" y="-108"/>
      <point x="1423" y="-82" type="qcurve"/>
      <point x="1450" y="-137" type="line"/>
      <point x="1414" y="-175"/>
      <point x="1299" y="-259"/>
      <point x="1148" y="-329"/>
      <point x="962" y="-375"/>
      <point x="854" y="-375" type="qcurve" smooth="yes"/>
      <point x="682" y="-375"/>
      <point x="394" y="-257"/>
      <point x="186" y="-38"/>
      <point x="70" y="273"/>
      <point x="70" y="465" type="qcurve" smooth="yes"/>
      <point x="70" y="578"/>
      <point x="131" y="795"/>
      <point x="243" y="988"/>
      <point x="399" y="1150"/>
      <point x="589" y="1267"/>
      <point x="807" y="1333"/>
      <point x="924" y="1333" type="qcurve" smooth="yes"/>
      <point x="1073" y="1333"/>
      <point x="1316" y="1232"/>
      <point x="1489" y="1034"/>
      <point x="1583" y="741"/>
    </contour>
  </outline>
</glyph>
<glyph name="H" format="1">
  <advance width="1339"/>
  <unicode hex="0048"/>
  <outline>
    <contour>
      <point x="50" y="0" type="line"/>
      <point x="50" y="43" type="line"/>
      <point x="118" y="57"/>
      <point x="195" y="90"/>
      <point x="195" y="104" type="qcurve" smooth="yes"/>
      <point x="195" y="1155" type="line" smooth="yes"/>
      <point x="195" y="1167"/>
      <point x="122" y="1203"/>
      <point x="50" y="1217" type="qcurve"/>
      <point x="50" y="1260" type="line"/>
      <point x="500" y="1260" type="line"/>
      <point x="500" y="1217" type="line"/>
      <point x="432" y="1203"/>
      <point x="355" y="1169"/>
      <point x="355" y="1155" type="qcurve" smooth="yes"/>
      <point x="355" y="705" type="line"/>
      <point x="965" y="705" type="line"/>
      <point x="965" y="1155" type="line" smooth="yes"/>
      <point x="965" y="1167"/>
      <point x="892" y="1203"/>
      <point x="820" y="1217" type="qcurve"/>
      <point x="820" y="1260" type="line"/>
      <point x="1270" y="1260" type="line"/>
      <point x="1270" y="1217" type="line"/>
      <point x="1202" y="1203"/>
      <point x="1125" y="1169"/>
      <point x="1125" y="1155" type="qcurve" smooth="yes"/>
      <point x="1125" y="104" type="line" smooth="yes"/>
      <point x="1125" y="92"/>
      <point x="1198" y="57"/>
      <point x="1270" y="43" type="qcurve"/>
      <point x="1270" y="0" type="line"/>
      <point x="820" y="0" type="line"/>
      <point x="820" y="43" type="line"/>
      <point x="888" y="57"/>
      <point x="965" y="90"/>
      <point x="965" y="104" type="qcurve" smooth="yes"/>
      <point x="965" y="615" type="line"/>
      <point x="355" y="615" type="line"/>
      <point x="355" y="104" type="line" smooth="yes"/>
      <point x="355" y="92"/>
      <point x="427" y="57"/>
      <point x="500" y="43" type="qcurve"/>
      <point x="500" y="0" type="line"/>
    </contour>
  </outline>
</glyph>
<glyph name="K" format="1">
  <advance width="1184"/>
  <unicode hex="004B"/>
  <outline>
    <contour>
      <point x="1174" y="37" type="line"/>
      <point x="1115" y="18"/>
      <point x="996" y="-14"/>
      <point x="948" y="-14" type="qcurve" smooth="yes"/>
      <point x="919" y="-14"/>
      <point x="874" y="4"/>
      <point x="854" y="29" type="qcurve" smooth="yes"/>
      <point x="357" y="643" type="line"/>
      <point x="764" y="1128" type="line" smooth="yes"/>
      <point x="787" y="1155"/>
      <point x="799" y="1187"/>
      <point x="779" y="1205"/>
      <point x="729" y="1214"/>
      <point x="690" y="1217" type="qcurve"/>
      <point x="690" y="1260" type="line"/>
      <point x="1110" y="1260" type="line"/>
      <point x="1110" y="1217" type="line"/>
      <point x="1078" y="1213"/>
      <point x="1028" y="1205"/>
      <point x="988" y="1192"/>
      <point x="955" y="1172"/>
      <point x="940" y="1155" type="qcurve" smooth="yes"/>
      <point x="506" y="671" type="line"/>
      <point x="985" y="127" type="line" smooth="yes"/>
      <point x="1003" y="107"/>
      <point x="1044" y="85"/>
      <point x="1091" y="76"/>
      <point x="1141" y="77"/>
      <point x="1167" y="80" type="qcurve"/>
      <point x="1174" y="37" type="line"/>
    </contour>
    <contour>
      <point x="50" y="0" type="line"/>
      <point x="50" y="43" type="line"/>
      <point x="118" y="57"/>
      <point x="195" y="90"/>
      <point x="195" y="104" type="qcurve" smooth="yes"/>
      <point x="195" y="1155" type="line" smooth="yes"/>
      <point x="195" y="1167"/>
      <point x="122" y="1203"/>
      <point x="50" y="1217" type="qcurve"/>
      <point x="50" y="1260" type="line"/>
      <point x="500" y="1260" type="line"/>
      <point x="500" y="1217" type="line"/>
      <point x="432" y="1203"/>
      <point x="355" y="1169"/>
      <point x="355" y="1155" type="qcurve" smooth="yes"/>
      <point x="355" y="104" type="line" smooth="yes"/>
      <point x="355" y="92"/>
      <point x="427" y="57"/>
      <point x="500" y="43" type="qcurve"/>
      <point x="500" y="0" type="line"/>
    </contour>
  </outline>
</glyph>
<glyph name="L" format="1">
  <advance width="975"/>
  <unicode hex="004C"/>
  <outline>
    <contour>
      <point x="944" y="244" type="line"/>
      <point x="936" y="157"/>
      <point x="911" y="29"/>
      <point x="903" y="0" type="qcurve"/>
      <point x="50" y="0" type="line"/>
      <point x="50" y="43" type="line"/>
      <point x="118" y="57"/>
      <point x="195" y="90"/>
      <point x="195" y="104" type="qcurve" smooth="yes"/>
      <point x="195" y="1155" type="line" smooth="yes"/>
      <point x="195" y="1167"/>
      <point x="122" y="1203"/>
      <point x="50" y="1217" type="qcurve"/>
      <point x="50" y="1260" type="line"/>
      <point x="500" y="1260" type="line"/>
      <point x="500" y="1217" type="line"/>
      <point x="432" y="1203"/>
      <point x="355" y="1169"/>
      <point x="355" y="1155" type="qcurve" smooth="yes"/>
      <point x="355" y="164" type="line" smooth="yes"/>
      <point x="355" y="146"/>
      <point x="372" y="119"/>
      <point x="414" y="100"/>
      <point x="486" y="90"/>
      <point x="541" y="90" type="qcurve" smooth="yes"/>
      <point x="684" y="90" type="line" smooth="yes"/>
      <point x="730" y="90"/>
      <point x="793" y="100"/>
      <point x="841" y="135"/>
      <point x="880" y="203"/>
      <point x="901" y="262" type="qcurve"/>
      <point x="944" y="244" type="line"/>
    </contour>
  </outline>
</glyph>
<glyph name="M" format="1">
  <advance width="1651"/>
  <unicode hex="004D"/>
  <outline>
    <contour>
      <point x="1550" y="1217" type="line"/>
      <point x="1521" y="1217"/>
      <point x="1451" y="1199"/>
      <point x="1415" y="1182" type="qcurve"/>
      <point x="1425" y="104" type="line" smooth="yes"/>
      <point x="1425" y="92"/>
      <point x="1498" y="57"/>
      <point x="1570" y="43" type="qcurve"/>
      <point x="1570" y="0" type="line"/>
      <point x="1117" y="0" type="line"/>
      <point x="1117" y="43" type="line"/>
      <point x="1185" y="57"/>
      <point x="1272" y="90"/>
      <point x="1272" y="104" type="qcurve" smooth="yes"/>
      <point x="1263" y="1047" type="line" smooth="yes"/>
      <point x="1262" y="1044"/>
      <point x="1260" y="1040" type="qcurve" smooth="yes"/>
      <point x="823" y="0" type="line"/>
      <point x="774" y="0" type="line"/>
      <point x="326" y="1039" type="line"/>
      <point x="317" y="104" type="line" smooth="yes"/>
      <point x="317" y="92"/>
      <point x="390" y="57"/>
      <point x="462" y="43" type="qcurve"/>
      <point x="462" y="0" type="line"/>
      <point x="60" y="0" type="line"/>
      <point x="60" y="43" type="line"/>
      <point x="129" y="57"/>
      <point x="205" y="90"/>
      <point x="205" y="104" type="qcurve" smooth="yes"/>
      <point x="215" y="1177" type="line"/>
      <point x="177" y="1200"/>
      <point x="100" y="1217"/>
      <point x="70" y="1217" type="qcurve"/>
      <point x="70" y="1260" type="line"/>
      <point x="356" y="1260" type="line" smooth="yes"/>
      <point x="366" y="1260"/>
      <point x="379" y="1254"/>
      <point x="392" y="1236"/>
      <point x="408" y="1203"/>
      <point x="420" y="1176" type="qcurve" smooth="yes"/>
      <point x="818" y="274" type="line"/>
      <point x="1200" y="1176" type="line" smooth="yes"/>
      <point x="1213" y="1206"/>
      <point x="1229" y="1239"/>
      <point x="1242" y="1256"/>
      <point x="1255" y="1260"/>
      <point x="1264" y="1260" type="qcurve" smooth="yes"/>
      <point x="1550" y="1260" type="line"/>
      <point x="1550" y="1217" type="line"/>
    </contour>
  </outline>
</glyph>
<glyph name="R" format="1">
  <advance width="1149"/>
  <unicode hex="0052"/>
  <outline>
    <contour>
      <point x="432" y="1206" type="qcurve" smooth="yes"/>
      <point x="394" y="1206"/>
      <point x="355" y="1203" type="qcurve"/>
      <point x="355" y="691" type="line"/>
      <point x="382" y="686"/>
      <point x="422" y="684"/>
      <point x="444" y="684" type="qcurve" smooth="yes"/>
      <point x="610" y="684"/>
      <point x="792" y="823"/>
      <point x="792" y="956" type="qcurve" smooth="yes"/>
      <point x="792" y="1011"/>
      <point x="749" y="1103"/>
      <point x="661" y="1169"/>
      <point x="525" y="1206"/>
    </contour>
    <contour>
      <point x="50" y="0" type="line"/>
      <point x="50" y="43" type="line"/>
      <point x="118" y="57"/>
      <point x="195" y="90"/>
      <point x="195" y="104" type="qcurve" smooth="yes"/>
      <point x="195" y="1189" type="line"/>
      <point x="160" y="1184"/>
      <point x="87" y="1173"/>
      <point x="50" y="1168" type="qcurve"/>
      <point x="41" y="1230" type="line"/>
      <point x="88" y="1242"/>
      <point x="184" y="1263"/>
      <point x="288" y="1280"/>
      <point x="403" y="1290"/>
      <point x="469" y="1290" type="qcurve" smooth="yes"/>
      <point x="589" y="1290"/>
      <point x="768" y="1244"/>
      <point x="887" y="1162"/>
      <point x="946" y="1051"/>
      <point x="946" y="987" type="qcurve" smooth="yes"/>
      <point x="946" y="910"/>
      <point x="897" y="787"/>
      <point x="809" y="693"/>
      <point x="689" y="630"/>
      <point x="617" y="614" type="qcurve"/>
      <point x="948" y="139" type="line" smooth="yes"/>
      <point x="963" y="118"/>
      <point x="998" y="92"/>
      <point x="1041" y="79"/>
      <point x="1094" y="77"/>
      <point x="1128" y="80" type="qcurve"/>
      <point x="1139" y="37" type="line"/>
      <point x="1073" y="15"/>
      <point x="954" y="-14"/>
      <point x="915" y="-14" type="qcurve" smooth="yes"/>
      <point x="886" y="-14"/>
      <point x="831" y="19"/>
      <point x="817" y="41" type="qcurve" smooth="yes"/>
      <point x="477" y="598" type="line"/>
      <point x="461" y="598" type="line" smooth="yes"/>
      <point x="435" y="598"/>
      <point x="383" y="603"/>
      <point x="355" y="609" type="qcurve"/>
      <point x="355" y="104" type="line" smooth="yes"/>
      <point x="355" y="92"/>
      <point x="427" y="57"/>
      <point x="500" y="43" type="qcurve"/>
      <point x="500" y="0" type="line"/>
    </contour>
  </outline>
</glyph>
<glyph name="V" format="1">
  <advance width="1331"/>
  <unicode hex="0056"/>
  <outline>
    <contour>
      <point x="1290" y="1217" type="line"/>
      <point x="1222" y="1204"/>
      <point x="1144" y="1179"/>
      <point x="1135" y="1151" type="qcurve" smooth="yes"/>
      <point x="752" y="59" type="line" smooth="yes"/>
      <point x="744" y="37"/>
      <point x="705" y="6"/>
      <point x="659" y="-15"/>
      <point x="615" y="-27"/>
      <point x="602" y="-30" type="qcurve"/>
      <point x="162" y="1151" type="line" smooth="yes"/>
      <point x="145" y="1201"/>
      <point x="20" y="1217" type="qcurve"/>
      <point x="20" y="1260" type="line"/>
      <point x="455" y="1260" type="line"/>
      <point x="455" y="1217" type="line"/>
      <point x="377" y="1212"/>
      <point x="315" y="1182"/>
      <point x="328" y="1151" type="qcurve" smooth="yes"/>
      <point x="680" y="203" type="line"/>
      <point x="1016" y="1151" type="line" smooth="yes"/>
      <point x="1027" y="1180"/>
      <point x="956" y="1207"/>
      <point x="874" y="1217" type="qcurve"/>
      <point x="874" y="1260" type="line"/>
      <point x="1290" y="1260" type="line"/>
      <point x="1290" y="1217" type="line"/>
    </contour>
  </outline>
</glyph>
<glyph name="W" format="1">
  <advance width="1741"/>
  <unicode hex="0057"/>
  <outline>
    <contour>
      <point x="1702" y="1217" type="line"/>
      <point x="1671" y="1210"/>
      <point x="1619" y="1198"/>
      <point x="1579" y="1184"/>
      <point x="1553" y="1167"/>
      <point x="1550" y="1155" type="qcurve" smooth="yes"/>
      <point x="1321" y="59" type="line" smooth="yes"/>
      <point x="1316" y="37"/>
      <point x="1281" y="6"/>
      <point x="1238" y="-15"/>
      <point x="1195" y="-27"/>
      <point x="1182" y="-30" type="qcurve"/>
      <point x="856" y="944" type="line"/>
      <point x="569" y="59" type="line" smooth="yes"/>
      <point x="562" y="36"/>
      <point x="523" y="5"/>
      <point x="477" y="-16"/>
      <point x="431" y="-27"/>
      <point x="418" y="-30" type="qcurve"/>
      <point x="158" y="1147" type="line" smooth="yes"/>
      <point x="152" y="1172"/>
      <point x="91" y="1204"/>
      <point x="20" y="1217" type="qcurve"/>
      <point x="20" y="1260" type="line"/>
      <point x="449" y="1260" type="line"/>
      <point x="449" y="1217" type="line"/>
      <point x="400" y="1212"/>
      <point x="344" y="1197"/>
      <point x="316" y="1179"/>
      <point x="311" y="1158"/>
      <point x="313" y="1147" type="qcurve" smooth="yes"/>
      <point x="512" y="250" type="line"/>
      <point x="836" y="1260" type="line"/>
      <point x="891" y="1260" type="line"/>
      <point x="1245" y="250" type="line"/>
      <point x="1432" y="1155" type="line" smooth="yes"/>
      <point x="1434" y="1167"/>
      <point x="1412" y="1185"/>
      <point x="1370" y="1199"/>
      <point x="1312" y="1211"/>
      <point x="1278" y="1217" type="qcurve"/>
      <point x="1278" y="1260" type="line"/>
      <point x="1702" y="1260" type="line"/>
      <point x="1702" y="1217" type="line"/>
    </contour>
  </outline>
</glyph>
<glyph name="Y" format="1">
  <advance width="1217"/>
  <unicode hex="0059"/>
  <outline>
    <contour>
      <point x="360" y="0" type="line"/>
      <point x="360" y="43" type="line"/>
      <point x="451" y="62"/>
      <point x="524" y="101"/>
      <point x="524" y="115" type="qcurve" smooth="yes"/>
      <point x="524" y="537" type="line"/>
      <point x="487" y="618"/>
      <point x="393" y="794"/>
      <point x="295" y="960"/>
      <point x="203" y="1103"/>
      <point x="168" y="1151" type="qcurve" smooth="yes"/>
      <point x="159" y="1162"/>
      <point x="136" y="1182"/>
      <point x="100" y="1197"/>
      <point x="46" y="1206"/>
      <point x="4" y="1206" type="qcurve"/>
      <point x="0" y="1249" type="line"/>
      <point x="59" y="1257"/>
      <point x="177" y="1270"/>
      <point x="219" y="1270" type="qcurve" smooth="yes"/>
      <point x="265" y="1270"/>
      <point x="297" y="1231" type="qcurve" smooth="yes"/>
      <point x="334" y="1183"/>
      <point x="420" y="1052"/>
      <point x="506" y="906"/>
      <point x="588" y="752"/>
      <point x="623" y="680" type="qcurve"/>
      <point x="891" y="1151" type="line" smooth="yes"/>
      <point x="906" y="1177"/>
      <point x="857" y="1207"/>
      <point x="780" y="1217" type="qcurve"/>
      <point x="780" y="1260" type="line"/>
      <point x="1176" y="1260" type="line"/>
      <point x="1176" y="1217" type="line"/>
      <point x="1107" y="1204"/>
      <point x="1034" y="1177"/>
      <point x="1020" y="1151" type="qcurve" smooth="yes"/>
      <point x="684" y="541" type="line"/>
      <point x="684" y="115" type="line" smooth="yes"/>
      <point x="684" y="109"/>
      <point x="701" y="92"/>
      <point x="740" y="72"/>
      <point x="803" y="52"/>
      <point x="850" y="43" type="qcurve"/>
      <point x="850" y="0" type="line"/>
    </contour>
  </outline>
</glyph>
<glyph name="Z" format="1">
  <advance width="1071"/>
  <unicode hex="005A"/>
  <outline>
    <contour>
      <point x="991" y="293" type="line"/>
      <point x="989" y="261"/>
      <point x="986" y="183"/>
      <point x="983" y="104"/>
      <point x="980" y="29"/>
      <point x="979" y="0" type="qcurve"/>
      <point x="88" y="0" type="line"/>
      <point x="59" y="45" type="line"/>
      <point x="770" y="1160" type="line"/>
      <point x="311" y="1160" type="line" smooth="yes"/>
      <point x="295" y="1160"/>
      <point x="257" y="1138"/>
      <point x="221" y="1090"/>
      <point x="189" y="1015"/>
      <point x="178" y="963" type="qcurve"/>
      <point x="121" y="975" type="line"/>
      <point x="150" y="1276" type="line"/>
      <point x="177" y="1270"/>
      <point x="222" y="1263"/>
      <point x="265" y="1260"/>
      <point x="288" y="1260" type="qcurve" smooth="yes"/>
      <point x="311" y="1260"/>
      <point x="340" y="1260" type="qcurve" smooth="yes"/>
      <point x="956" y="1260" type="line"/>
      <point x="981" y="1217" type="line"/>
      <point x="276" y="100" type="line"/>
      <point x="799" y="100" type="line" smooth="yes"/>
      <point x="820" y="100"/>
      <point x="854" y="119"/>
      <point x="885" y="165"/>
      <point x="917" y="245"/>
      <point x="936" y="307" type="qcurve"/>
      <point x="991" y="293" type="line"/>
    </contour>
  </outline>
</glyph>
<glyph name="bracketleft" format="1">
  <advance width="631"/>
  <unicode hex="005B"/>
  <outline>
    <contour>
      <point x="590" y="-249" type="line"/>
      <point x="585" y="-269"/>
      <point x="569" y="-318"/>
      <point x="561" y="-335" type="qcurve"/>
      <point x="139" y="-335" type="line"/>
      <point x="139" y="1600" type="line"/>
      <point x="555" y="1600" type="line"/>
      <point x="588" y="1574" type="line"/>
      <point x="583" y="1549"/>
      <point x="567" y="1500"/>
      <point x="561" y="1488" type="qcurve"/>
      <point x="281" y="1488" type="line"/>
      <point x="281" y="-220" type="line"/>
      <point x="555" y="-220" type="line"/>
      <point x="590" y="-249" type="line"/>
    </contour>
  </outline>
</glyph>
<glyph name="bracketright" format="1">
  <advance width="631"/>
  <unicode hex="005D"/>
  <outline>
    <contour>
      <point x="76" y="-335" type="line"/>
      <point x="43" y="-306" type="line"/>
      <point x="46" y="-283"/>
      <point x="61" y="-233"/>
      <point x="68" y="-220" type="qcurve"/>
      <point x="350" y="-220" type="line"/>
      <point x="350" y="1488" type="line"/>
      <point x="76" y="1488" type="line"/>
      <point x="41" y="1514" type="line"/>
      <point x="44" y="1536"/>
      <point x="61" y="1583"/>
      <point x="68" y="1600" type="qcurve"/>
      <point x="489" y="1600" type="line"/>
      <point x="489" y="-335" type="line"/>
    </contour>
  </outline>
</glyph>
<glyph name="underscore" format="1">
  <advance width="961"/>
  <unicode hex="005F"/>
  <outline>
    <contour>
      <point x="897" y="-156" type="line"/>
      <point x="892" y="-177"/>
      <point x="876" y="-227"/>
      <point x="868" y="-246" type="qcurve"/>
      <point x="86" y="-246" type="line"/>
      <point x="61" y="-219" type="line"/>
      <point x="66" y="-199"/>
      <point x="83" y="-151"/>
      <point x="92" y="-131" type="qcurve"/>
      <point x="874" y="-131" type="line"/>
      <point x="897" y="-156" type="line"/>
    </contour>
  </outline>
</glyph>
<glyph name="g" format="1">
  <advance width="999"/>
  <unicode hex="0067"/>
  <outline>
    <contour>
      <point x="690" y="600" type="qcurve" smooth="yes"/>
      <point x="690" y="653"/>
      <point x="655" y="747"/>
      <point x="586" y="817"/>
      <point x="483" y="858"/>
      <point x="416" y="858" type="qcurve" smooth="yes"/>
      <point x="391" y="858"/>
      <point x="330" y="833"/>
      <point x="276" y="783"/>
      <point x="240" y="708"/>
      <point x="240" y="659" type="qcurve" smooth="yes"/>
      <point x="240" y="606"/>
      <point x="273" y="511"/>
      <point x="340" y="440"/>
      <point x="443" y="399"/>
      <point x="514" y="399" type="qcurve" smooth="yes"/>
      <point x="543" y="399"/>
      <point x="606" y="425"/>
      <point x="657" y="475"/>
      <point x="690" y="550"/>
    </contour>
    <contour>
      <point x="518" y="-4" type="qcurve" smooth="yes"/>
      <point x="480" y="0"/>
      <point x="416" y="10"/>
      <point x="388" y="16" type="qcurve"/>
      <point x="316" y="-23"/>
      <point x="233" y="-85"/>
      <point x="191" y="-134"/>
      <point x="180" y="-174"/>
      <point x="180" y="-190" type="qcurve" smooth="yes"/>
      <point x="180" y="-232"/>
      <point x="236" y="-307"/>
      <point x="330" y="-363"/>
      <point x="454" y="-396"/>
      <point x="522" y="-396" type="qcurve" smooth="yes"/>
      <point x="589" y="-396"/>
      <point x="699" y="-360"/>
      <point x="777" y="-296"/>
      <point x="820" y="-209"/>
      <point x="820" y="-157" type="qcurve" smooth="yes"/>
      <point x="820" y="-129"/>
      <point x="794" y="-82"/>
      <point x="726" y="-44"/>
      <point x="609" y="-14"/>
    </contour>
    <contour>
      <point x="830" y="641" type="qcurve" smooth="yes"/>
      <point x="830" y="564"/>
      <point x="761" y="437"/>
      <point x="649" y="345"/>
      <point x="507" y="294"/>
      <point x="434" y="294" type="qcurve" smooth="yes"/>
      <point x="429" y="294" type="line"/>
      <point x="382" y="255"/>
      <point x="346" y="202"/>
      <point x="346" y="196" type="qcurve" smooth="yes"/>
      <point x="346" y="184"/>
      <point x="367" y="161"/>
      <point x="424" y="140"/>
      <point x="524" y="119"/>
      <point x="602" y="110" type="qcurve" smooth="yes"/>
      <point x="711" y="98"/>
      <point x="853" y="50"/>
      <point x="937" y="-13"/>
      <point x="970" y="-85"/>
      <point x="970" y="-120" type="qcurve" smooth="yes"/>
      <point x="970" y="-175"/>
      <point x="928" y="-274"/>
      <point x="856" y="-358"/>
      <point x="758" y="-426"/>
      <point x="646" y="-474"/>
      <point x="526" y="-500"/>
      <point x="467" y="-500" type="qcurve" smooth="yes"/>
      <point x="420" y="-500"/>
      <point x="320" y="-487"/>
      <point x="222" y="-459"/>
      <point x="135" y="-416"/>
      <point x="69" y="-355"/>
      <point x="30" y="-278"/>
      <point x="30" y="-229" type="qcurve" smooth="yes"/>
      <point x="30" y="-203"/>
      <point x="49" y="-146"/>
      <point x="107" y="-80"/>
      <point x="211" y="-4"/>
      <point x="297" y="42" type="qcurve"/>
      <point x="232" y="65"/>
      <point x="182" y="123"/>
      <point x="182" y="153" type="qcurve" smooth="yes"/>
      <point x="182" y="161"/>
      <point x="192" y="188"/>
      <point x="223" y="226"/>
      <point x="279" y="276"/>
      <point x="325" y="308" type="qcurve"/>
      <point x="274" y="322"/>
      <point x="191" y="375"/>
      <point x="132" y="451"/>
      <point x="100" y="546"/>
      <point x="100" y="602" type="qcurve" smooth="yes"/>
      <point x="100" y="675"/>
      <point x="166" y="806"/>
      <point x="274" y="903"/>
      <point x="412" y="960"/>
      <point x="485" y="960" type="qcurve" smooth="yes"/>
      <point x="545" y="960"/>
      <point x="650" y="926"/>
      <point x="693" y="895" type="qcurve"/>
      <point x="745" y="900"/>
      <point x="829" y="916"/>
      <point x="896" y="934"/>
      <point x="948" y="952"/>
      <point x="969" y="960" type="qcurve"/>
      <point x="989" y="930" type="line"/>
      <point x="977" y="902"/>
      <point x="955" y="855"/>
      <point x="932" y="830" type="qcurve"/>
      <point x="894" y="823"/>
      <point x="821" y="815"/>
      <point x="775" y="813" type="qcurve"/>
      <point x="801" y="775"/>
      <point x="830" y="689"/>
    </contour>
  </outline>
</glyph>
<glyph name="i" format="1">
  <advance width="555"/>
  <unicode hex="0069"/>
  <outline>
    <contour>
      <point x="390" y="1221" type="qcurve" smooth="yes"/>
      <point x="390" y="1193"/>
      <point x="372" y="1143"/>
      <point x="341" y="1106"/>
      <point x="299" y="1084"/>
      <point x="274" y="1084" type="qcurve" smooth="yes"/>
      <point x="229" y="1084"/>
      <point x="190" y="1134"/>
      <point x="190" y="1180" type="qcurve" smooth="yes"/>
      <point x="190" y="1208"/>
      <point x="208" y="1258"/>
      <point x="240" y="1295"/>
      <point x="281" y="1316"/>
      <point x="305" y="1316" type="qcurve" smooth="yes"/>
      <point x="390" y="1316"/>
    </contour>
    <contour>
      <point x="70" y="0" type="line"/>
      <point x="70" y="43" type="line"/>
      <point x="138" y="57"/>
      <point x="210" y="90"/>
      <point x="210" y="104" type="qcurve" smooth="yes"/>
      <point x="210" y="670" type="line" smooth="yes"/>
      <point x="210" y="721"/>
      <point x="206" y="784"/>
      <point x="180" y="819"/>
      <point x="123" y="835"/>
      <point x="70" y="840" type="qcurve"/>
      <point x="70" y="880" type="line"/>
      <point x="101" y="886"/>
      <point x="170" y="903"/>
      <point x="238" y="924"/>
      <point x="300" y="948"/>
      <point x="326" y="960" type="qcurve"/>
      <point x="360" y="960" type="line"/>
      <point x="360" y="104" type="line" smooth="yes"/>
      <point x="360" y="92"/>
      <point x="427" y="57"/>
      <point x="500" y="43" type="qcurve"/>
      <point x="500" y="0" type="line"/>
    </contour>
  </outline>
</glyph>
<glyph name="k" format="1">
  <advance width="1024"/>
  <unicode hex="006B"/>
  <outline>
    <contour>
      <point x="55" y="0" type="line"/>
      <point x="55" y="43" type="line"/>
      <point x="121" y="60"/>
      <point x="195" y="86"/>
      <point x="195" y="104" type="qcurve" smooth="yes"/>
      <point x="195" y="1296" type="line" smooth="yes"/>
      <point x="195" y="1342"/>
      <point x="184" y="1392"/>
      <point x="153" y="1417"/>
      <point x="98" y="1425"/>
      <point x="55" y="1430" type="qcurve"/>
      <point x="55" y="1470" type="line"/>
      <point x="124" y="1484"/>
      <point x="257" y="1521"/>
      <point x="308" y="1550" type="qcurve"/>
      <point x="345" y="1516" type="line"/>
      <point x="345" y="526" type="line"/>
      <point x="653" y="799" type="line" smooth="yes"/>
      <point x="686" y="828"/>
      <point x="700" y="863"/>
      <point x="681" y="881"/>
      <point x="636" y="887"/>
      <point x="610" y="887" type="qcurve"/>
      <point x="610" y="930" type="line"/>
      <point x="989" y="930" type="line"/>
      <point x="989" y="887" type="line"/>
      <point x="945" y="882"/>
      <point x="871" y="859"/>
      <point x="829" y="825" type="qcurve" smooth="yes"/>
      <point x="492" y="553" type="line"/>
      <point x="864" y="111" type="line" smooth="yes"/>
      <point x="878" y="95"/>
      <point x="908" y="74"/>
      <point x="944" y="62"/>
      <point x="989" y="59"/>
      <point x="1018" y="61" type="qcurve"/>
      <point x="1024" y="18" type="line"/>
      <point x="995" y="11"/>
      <point x="938" y="1"/>
      <point x="889" y="-6"/>
      <point x="850" y="-10"/>
      <point x="840" y="-10" type="qcurve" smooth="yes"/>
      <point x="798" y="-10"/>
      <point x="747" y="14"/>
      <point x="725" y="43" type="qcurve" smooth="yes"/>
      <point x="348" y="525" type="line"/>
      <point x="345" y="526" type="line"/>
      <point x="345" y="104" type="line" smooth="yes"/>
      <point x="345" y="96"/>
      <point x="352" y="84"/>
      <point x="374" y="71"/>
      <point x="418" y="55"/>
      <point x="455" y="43" type="qcurve"/>
      <point x="455" y="0" type="line"/>
    </contour>
  </outline>
</glyph>
<glyph name="l" format="1">
  <advance width="555"/>
  <unicode hex="006C"/>
  <outline>
    <contour>
      <point x="60" y="0" type="line"/>
      <point x="60" y="43" type="line"/>
      <point x="103" y="50"/>
      <point x="161" y="65"/>
      <point x="195" y="80"/>
      <point x="210" y="96"/>
      <point x="210" y="104" type="qcurve" smooth="yes"/>
      <point x="210" y="1296" type="line" smooth="yes"/>
      <point x="210" y="1341"/>
      <point x="198" y="1391"/>
      <point x="166" y="1416"/>
      <point x="112" y="1425"/>
      <point x="70" y="1430" type="qcurve"/>
      <point x="70" y="1470" type="line"/>
      <point x="142" y="1484"/>
      <point x="262" y="1518"/>
      <point x="324" y="1550" type="qcurve"/>
      <point x="360" y="1516" type="line"/>
      <point x="360" y="104" type="line" smooth="yes"/>
      <point x="360" y="89"/>
      <point x="428" y="57"/>
      <point x="510" y="43" type="qcurve"/>
      <point x="510" y="0" type="line"/>
    </contour>
  </outline>
</glyph>
<glyph name="q" format="1">
  <advance width="1055"/>
  <unicode hex="0071"/>
  <outline>
    <contour>
      <point x="487" y="102" type="qcurve" smooth="yes"/>
      <point x="521" y="102"/>
      <point x="587" y="129"/>
      <point x="652" y="174"/>
      <point x="714" y="231"/>
      <point x="745" y="261" type="qcurve"/>
      <point x="745" y="730" type="line"/>
      <point x="712" y="787"/>
      <point x="592" y="852"/>
      <point x="520" y="852" type="qcurve" smooth="yes"/>
      <point x="464" y="852"/>
      <point x="360" y="804"/>
      <point x="279" y="710"/>
      <point x="230" y="569"/>
      <point x="230" y="475" type="qcurve" smooth="yes"/>
      <point x="230" y="390"/>
      <point x="279" y="252"/>
      <point x="355" y="155"/>
      <point x="446" y="102"/>
    </contour>
    <contour>
      <point x="575" y="-480" type="line"/>
      <point x="575" y="-437" type="line"/>
      <point x="669" y="-423"/>
      <point x="745" y="-392"/>
      <point x="745" y="-375" type="qcurve" smooth="yes"/>
      <point x="745" y="166" type="line"/>
      <point x="707" y="120"/>
      <point x="633" y="48"/>
      <point x="554" y="-3"/>
      <point x="467" y="-30"/>
      <point x="416" y="-30" type="qcurve" smooth="yes"/>
      <point x="360" y="-30"/>
      <point x="242" y="35"/>
      <point x="143" y="157"/>
      <point x="80" y="333"/>
      <point x="80" y="444" type="qcurve" smooth="yes"/>
      <point x="80" y="532"/>
      <point x="136" y="680"/>
      <point x="217" y="795"/>
      <point x="309" y="875"/>
      <point x="344" y="895" type="qcurve" smooth="yes"/>
      <point x="401" y="926"/>
      <point x="513" y="960"/>
      <point x="551" y="960" type="qcurve" smooth="yes"/>
      <point x="578" y="960"/>
      <point x="632" y="953"/>
      <point x="688" y="933"/>
      <point x="748" y="897"/>
      <point x="782" y="867" type="qcurve"/>
      <point x="797" y="876"/>
      <point x="829" y="901"/>
      <point x="859" y="926"/>
      <point x="886" y="951"/>
      <point x="895" y="960" type="qcurve"/>
      <point x="926" y="930" type="line"/>
      <point x="926" y="930"/>
      <point x="916" y="897"/>
      <point x="905" y="840"/>
      <point x="895" y="762"/>
      <point x="895" y="717" type="qcurve" smooth="yes"/>
      <point x="895" y="-375" type="line" smooth="yes"/>
      <point x="895" y="-391"/>
      <point x="957" y="-423"/>
      <point x="1034" y="-437" type="qcurve"/>
      <point x="1034" y="-480" type="line"/>
    </contour>
  </outline>
</glyph>
<glyph name="braceleft" format="1">
  <advance width="688"/>
  <unicode hex="007B"/>
  <outline>
    <contour>
      <point x="649" y="1553" type="line"/>
      <point x="610" y="1529"/>
      <point x="543" y="1467"/>
      <point x="493" y="1392"/>
      <point x="465" y="1304"/>
      <point x="465" y="1252" type="qcurve" smooth="yes"/>
      <point x="465" y="1194"/>
      <point x="478" y="1120"/>
      <point x="493" y="1055"/>
      <point x="506" y="981"/>
      <point x="506" y="923" type="qcurve" smooth="yes"/>
      <point x="506" y="881"/>
      <point x="481" y="800"/>
      <point x="435" y="729"/>
      <point x="368" y="671"/>
      <point x="326" y="653" type="qcurve"/>
      <point x="376" y="644"/>
      <point x="445" y="599"/>
      <point x="487" y="531"/>
      <point x="506" y="440"/>
      <point x="506" y="385" type="qcurve" smooth="yes"/>
      <point x="506" y="325"/>
      <point x="493" y="241"/>
      <point x="478" y="167"/>
      <point x="465" y="93"/>
      <point x="465" y="43" type="qcurve" smooth="yes"/>
      <point x="465" y="-12"/>
      <point x="480" y="-97"/>
      <point x="519" y="-166"/>
      <point x="586" y="-225"/>
      <point x="639" y="-254" type="qcurve"/>
      <point x="616" y="-315" type="line"/>
      <point x="532" y="-281"/>
      <point x="412" y="-206"/>
      <point x="335" y="-114"/>
      <point x="299" y="0"/>
      <point x="299" y="72" type="qcurve" smooth="yes"/>
      <point x="299" y="131"/>
      <point x="312" y="208"/>
      <point x="327" y="279"/>
      <point x="340" y="360"/>
      <point x="340" y="422" type="qcurve" smooth="yes"/>
      <point x="340" y="503"/>
      <point x="259" y="586"/>
      <point x="184" y="586" type="qcurve" smooth="yes"/>
      <point x="170" y="586"/>
      <point x="163" y="586" type="qcurve" smooth="yes"/>
      <point x="157" y="586"/>
      <point x="147" y="585"/>
      <point x="134" y="582"/>
      <point x="119" y="580" type="qcurve"/>
      <point x="102" y="633" type="line"/>
      <point x="220" y="664"/>
      <point x="340" y="788"/>
      <point x="340" y="863" type="qcurve" smooth="yes"/>
      <point x="340" y="903"/>
      <point x="334" y="961"/>
      <point x="325" y="1008"/>
      <point x="314" y="1049"/>
      <point x="305" y="1095"/>
      <point x="299" y="1154"/>
      <point x="299" y="1195" type="qcurve" smooth="yes"/>
      <point x="299" y="1262"/>
      <point x="344" y="1381"/>
      <point x="428" y="1482"/>
      <point x="548" y="1566"/>
      <point x="623" y="1600" type="qcurve"/>
      <point x="649" y="1553" type="line"/>
    </contour>
  </outline>
</glyph>
<glyph name="bar" format="1">
  <advance width="469"/>
  <unicode hex="007C"/>
  <outline>
    <contour>
      <point x="320" y="-353" type="line"/>
      <point x="302" y="-369"/>
      <point x="240" y="-397"/>
      <point x="215" y="-405" type="qcurve"/>
      <point x="180" y="-382" type="line"/>
      <point x="180" y="1621" type="line"/>
      <point x="208" y="1638"/>
      <point x="255" y="1662"/>
      <point x="284" y="1670" type="qcurve"/>
      <point x="320" y="1648" type="line"/>
      <point x="320" y="-353" type="line"/>
    </contour>
  </outline>
</glyph>
<glyph name="braceright" format="1">
  <advance width="688"/>
  <unicode hex="007D"/>
  <outline>
    <contour>
      <point x="588" y="651" type="line"/>
      <point x="469" y="620"/>
      <point x="350" y="499"/>
      <point x="350" y="422" type="qcurve" smooth="yes"/>
      <point x="350" y="382"/>
      <point x="356" y="324"/>
      <point x="364" y="278"/>
      <point x="375" y="238"/>
      <point x="383" y="191"/>
      <point x="389" y="133"/>
      <point x="389" y="92" type="qcurve" smooth="yes"/>
      <point x="389" y="24"/>
      <point x="344" y="-94"/>
      <point x="260" y="-196"/>
      <point x="140" y="-281"/>
      <point x="66" y="-315" type="qcurve"/>
      <point x="39" y="-266" type="line"/>
      <point x="78" y="-242"/>
      <point x="145" y="-181"/>
      <point x="195" y="-106"/>
      <point x="223" y="-17"/>
      <point x="223" y="35" type="qcurve" smooth="yes"/>
      <point x="223" y="93"/>
      <point x="211" y="166"/>
      <point x="196" y="231"/>
      <point x="184" y="306"/>
      <point x="184" y="365" type="qcurve" smooth="yes"/>
      <point x="184" y="406"/>
      <point x="208" y="486"/>
      <point x="255" y="556"/>
      <point x="322" y="613"/>
      <point x="365" y="631" type="qcurve"/>
      <point x="314" y="641"/>
      <point x="245" y="686"/>
      <point x="202" y="755"/>
      <point x="184" y="846"/>
      <point x="184" y="902" type="qcurve" smooth="yes"/>
      <point x="184" y="961"/>
      <point x="196" y="1045"/>
      <point x="211" y="1119"/>
      <point x="223" y="1193"/>
      <point x="223" y="1242" type="qcurve" smooth="yes"/>
      <point x="223" y="1298"/>
      <point x="208" y="1384"/>
      <point x="169" y="1453"/>
      <point x="101" y="1510"/>
      <point x="49" y="1539" type="qcurve"/>
      <point x="72" y="1600" type="line"/>
      <point x="156" y="1567"/>
      <point x="277" y="1492"/>
      <point x="353" y="1400"/>
      <point x="389" y="1287"/>
      <point x="389" y="1215" type="qcurve" smooth="yes"/>
      <point x="389" y="1156"/>
      <point x="377" y="1078"/>
      <point x="362" y="1007"/>
      <point x="350" y="926"/>
      <point x="350" y="865" type="qcurve" smooth="yes"/>
      <point x="350" y="784"/>
      <point x="431" y="700"/>
      <point x="506" y="700" type="qcurve" smooth="yes"/>
      <point x="519" y="700"/>
      <point x="525" y="700" type="qcurve" smooth="yes"/>
      <point x="531" y="700"/>
      <point x="541" y="701"/>
      <point x="556" y="704"/>
      <point x="571" y="707" type="qcurve"/>
      <point x="588" y="651" type="line"/>
    </contour>
  </outline>
</glyph>
<glyph name="exclamdown" format="1">
  <advance width="557"/>
  <unicode hex="00A1"/>
  <outline>
    <contour>
      <point x="391" y="848" type="qcurve" smooth="yes"/>
      <point x="391" y="814"/>
      <point x="369" y="755"/>
      <point x="331" y="710"/>
      <point x="282" y="684"/>
      <point x="254" y="684" type="qcurve" smooth="yes"/>
      <point x="203" y="684"/>
      <point x="154" y="743"/>
      <point x="154" y="799" type="qcurve" smooth="yes"/>
      <point x="154" y="833"/>
      <point x="175" y="892"/>
      <point x="212" y="936"/>
      <point x="263" y="961"/>
      <point x="293" y="961" type="qcurve" smooth="yes"/>
      <point x="345" y="961"/>
      <point x="391" y="902"/>
    </contour>
    <contour>
      <point x="371" y="-483" type="line"/>
      <point x="332" y="-508"/>
      <point x="249" y="-553"/>
      <point x="215" y="-565" type="qcurve"/>
      <point x="172" y="-543" type="line"/>
      <point x="219" y="530" type="line"/>
      <point x="239" y="546"/>
      <point x="269" y="561"/>
      <point x="295" y="569" type="qcurve"/>
      <point x="322" y="551" type="line"/>
      <point x="371" y="-483" type="line"/>
    </contour>
  </outline>
</glyph>
<glyph name="sterling" format="1">
  <advance width="961"/>
  <unicode hex="00A3"/>
  <outline>
    <contour>
      <point x="615" y="536" type="line"/>
      <point x="373" y="536" type="line"/>
      <point x="376" y="468"/>
      <point x="360" y="342"/>
      <point x="329" y="231"/>
      <point x="284" y="137"/>
      <point x="258" y="101" type="qcurve"/>
      <point x="304" y="105"/>
      <point x="373" y="107"/>
      <point x="431" y="106"/>
      <point x="481" y="104"/>
      <point x="534" y="101"/>
      <point x="592" y="100"/>
      <point x="629" y="101" type="qcurve" smooth="yes"/>
      <point x="675" y="102"/>
      <point x="741" y="112"/>
      <point x="792" y="146"/>
      <point x="834" y="213"/>
      <point x="855" y="272" type="qcurve"/>
      <point x="898" y="254" type="line"/>
      <point x="894" y="211"/>
      <point x="883" y="132"/>
      <point x="872" y="65"/>
      <point x="861" y="15"/>
      <point x="857" y="0" type="qcurve"/>
      <point x="812" y="-25"/>
      <point x="691" y="-31"/>
      <point x="552" y="-17"/>
      <point x="405" y="6"/>
      <point x="263" y="16"/>
      <point x="136" y="1"/>
      <point x="87" y="-30" type="qcurve"/>
      <point x="64" y="19" type="line"/>
      <point x="95" y="44"/>
      <point x="143" y="88"/>
      <point x="177" y="139"/>
      <point x="199" y="206"/>
      <point x="209" y="304"/>
      <point x="207" y="441"/>
      <point x="200" y="536" type="qcurve"/>
      <point x="86" y="536" type="line"/>
      <point x="64" y="561" type="line"/>
      <point x="69" y="576"/>
      <point x="80" y="611"/>
      <point x="86" y="627" type="qcurve"/>
      <point x="194" y="627" type="line"/>
      <point x="188" y="769"/>
      <point x="232" y="995"/>
      <point x="335" y="1152"/>
      <point x="500" y="1235"/>
      <point x="614" y="1235" type="qcurve" smooth="yes"/>
      <point x="640" y="1235"/>
      <point x="689" y="1231"/>
      <point x="745" y="1216"/>
      <point x="814" y="1189"/>
      <point x="861" y="1165" type="qcurve"/>
      <point x="860" y="1139"/>
      <point x="852" y="1065"/>
      <point x="841" y="988"/>
      <point x="828" y="919"/>
      <point x="822" y="900" type="qcurve"/>
      <point x="775" y="900" type="line"/>
      <point x="761" y="1024"/>
      <point x="640" y="1136"/>
      <point x="540" y="1136" type="qcurve" smooth="yes"/>
      <point x="513" y="1136"/>
      <point x="460" y="1125"/>
      <point x="413" y="1090"/>
      <point x="375" y="1023"/>
      <point x="354" y="910"/>
      <point x="352" y="743"/>
      <point x="364" y="627" type="qcurve"/>
      <point x="615" y="627" type="line"/>
      <point x="640" y="604" type="line"/>
    </contour>
  </outline>
</glyph>
<glyph name="yen" format="1">
  <advance width="961"/>
  <unicode hex="00A5"/>
  <outline>
    <contour>
      <point x="236" y="0" type="line"/>
      <point x="236" y="43" type="line"/>
      <point x="327" y="62"/>
      <point x="400" y="101"/>
      <point x="400" y="115" type="qcurve" smooth="yes"/>
      <point x="400" y="436" type="line"/>
      <point x="128" y="436" type="line"/>
      <point x="106" y="461" type="line"/>
      <point x="111" y="476"/>
      <point x="122" y="511"/>
      <point x="128" y="527" type="qcurve"/>
      <point x="400" y="527" type="line"/>
      <point x="400" y="580" type="line"/>
      <point x="365" y="653"/>
      <point x="288" y="799"/>
      <point x="209" y="933"/>
      <point x="133" y="1050"/>
      <point x="101" y="1095" type="qcurve" smooth="yes"/>
      <point x="92" y="1106"/>
      <point x="69" y="1126"/>
      <point x="33" y="1141"/>
      <point x="-21" y="1150"/>
      <point x="-63" y="1150" type="qcurve"/>
      <point x="-67" y="1193" type="line"/>
      <point x="-8" y="1201"/>
      <point x="110" y="1214"/>
      <point x="152" y="1214" type="qcurve" smooth="yes"/>
      <point x="198" y="1214"/>
      <point x="230" y="1175" type="qcurve" smooth="yes"/>
      <point x="267" y="1127"/>
      <point x="335" y="1025"/>
      <point x="399" y="913"/>
      <point x="464" y="788"/>
      <point x="499" y="716" type="qcurve"/>
      <point x="713" y="1095" type="line" smooth="yes"/>
      <point x="728" y="1121"/>
      <point x="679" y="1151"/>
      <point x="602" y="1161" type="qcurve"/>
      <point x="602" y="1204" type="line"/>
      <point x="998" y="1204" type="line"/>
      <point x="998" y="1161" type="line"/>
      <point x="929" y="1148"/>
      <point x="856" y="1121"/>
      <point x="842" y="1095" type="qcurve" smooth="yes"/>
      <point x="560" y="578" type="line"/>
      <point x="560" y="527" type="line"/>
      <point x="831" y="527" type="line"/>
      <point x="856" y="504" type="line"/>
      <point x="831" y="436" type="line"/>
      <point x="560" y="436" type="line"/>
      <point x="560" y="115" type="line" smooth="yes"/>
      <point x="560" y="109"/>
      <point x="577" y="92"/>
      <point x="616" y="72"/>
      <point x="679" y="52"/>
      <point x="726" y="43" type="qcurve"/>
      <point x="726" y="0" type="line"/>
    </contour>
  </outline>
</glyph>
<glyph name="brokenbar" format="1">
  <advance width="469"/>
  <unicode hex="00A6"/>
  <outline>
    <contour>
      <point x="326" y="-354" type="line"/>
      <point x="316" y="-362"/>
      <point x="287" y="-377"/>
      <point x="255" y="-391"/>
      <point x="223" y="-402"/>
      <point x="211" y="-406" type="qcurve"/>
      <point x="174" y="-383" type="line"/>
      <point x="174" y="489" type="line"/>
      <point x="203" y="506"/>
      <point x="258" y="531"/>
      <point x="289" y="541" type="qcurve"/>
      <point x="326" y="516" type="line"/>
      <point x="326" y="-354" type="line"/>
    </contour>
    <contour>
      <point x="326" y="767" type="line"/>
      <point x="316" y="759"/>
      <point x="287" y="744"/>
      <point x="255" y="731"/>
      <point x="223" y="720"/>
      <point x="211" y="716" type="qcurve"/>
      <point x="174" y="738" type="line"/>
      <point x="174" y="1621" type="line"/>
      <point x="203" y="1638"/>
      <point x="258" y="1662"/>
      <point x="289" y="1670" type="qcurve"/>
      <point x="326" y="1648" type="line"/>
      <point x="326" y="767" type="line"/>
    </contour>
  </outline>
</glyph>
<glyph name="dieresis" format="1">
  <advance width="801"/>
  <unicode hex="00A8"/>
  <outline>
    <contour>
      <point x="700" y="1221" type="qcurve" smooth="yes"/>
      <point x="700" y="1193"/>
      <point x="682" y="1143"/>
      <point x="651" y="1106"/>
      <point x="609" y="1084"/>
      <point x="584" y="1084" type="qcurve" smooth="yes"/>
      <point x="539" y="1084"/>
      <point x="500" y="1134"/>
      <point x="500" y="1180" type="qcurve" smooth="yes"/>
      <point x="500" y="1208"/>
      <point x="518" y="1258"/>
      <point x="550" y="1295"/>
      <point x="591" y="1316"/>
      <point x="615" y="1316" type="qcurve" smooth="yes"/>
      <point x="700" y="1316"/>
    </contour>
    <contour>
      <point x="300" y="1221" type="qcurve" smooth="yes"/>
      <point x="300" y="1193"/>
      <point x="282" y="1143"/>
      <point x="251" y="1106"/>
      <point x="209" y="1084"/>
      <point x="184" y="1084" type="qcurve" smooth="yes"/>
      <point x="139" y="1084"/>
      <point x="100" y="1134"/>
      <point x="100" y="1180" type="qcurve" smooth="yes"/>
      <point x="100" y="1208"/>
      <point x="118" y="1258"/>
      <point x="150" y="1295"/>
      <point x="191" y="1316"/>
      <point x="215" y="1316" type="qcurve" smooth="yes"/>
      <point x="300" y="1316"/>
    </contour>
  </outline>
</glyph>
<glyph name="uni00AD" format="1">
  <advance width="690"/>
  <unicode hex="00AD"/>
  <outline>
    <contour>
      <point x="629" y="545" type="line"/>
      <point x="623" y="523"/>
      <point x="606" y="472"/>
      <point x="598" y="455" type="qcurve"/>
      <point x="86" y="455" type="line"/>
      <point x="61" y="479" type="line"/>
      <point x="66" y="501"/>
      <point x="83" y="549"/>
      <point x="92" y="569" type="qcurve"/>
      <point x="604" y="569" type="line"/>
      <point x="629" y="545" type="line"/>
    </contour>
  </outline>
</glyph>
<glyph name="registered" format="1">
  <advance width="730"/>
  <unicode hex="00AE"/>
  <outline>
    <contour>
      <point x="336" y="1256" type="qcurve" smooth="yes"/>
      <point x="330" y="1256"/>
      <point x="324" y="1256" type="qcurve" smooth="yes"/>
      <point x="319" y="1256"/>
      <point x="313" y="1255" type="qcurve"/>
      <point x="313" y="1109" type="line"/>
      <point x="321" y="1107"/>
      <point x="326" y="1107" type="qcurve" smooth="yes"/>
      <point x="332" y="1107"/>
      <point x="340" y="1107" type="qcurve" smooth="yes"/>
      <point x="391" y="1107"/>
      <point x="438" y="1149"/>
      <point x="438" y="1187" type="qcurve" smooth="yes"/>
      <point x="438" y="1216"/>
      <point x="393" y="1256"/>
    </contour>
    <contour>
      <point x="214" y="887" type="line"/>
      <point x="214" y="905" type="line"/>
      <point x="258" y="914"/>
      <point x="258" y="924" type="qcurve" smooth="yes"/>
      <point x="258" y="1250" type="line"/>
      <point x="247" y="1248"/>
      <point x="225" y="1246"/>
      <point x="214" y="1244" type="qcurve"/>
      <point x="212" y="1273" type="line"/>
      <point x="241" y="1280"/>
      <point x="305" y="1291"/>
      <point x="347" y="1291" type="qcurve" smooth="yes"/>
      <point x="422" y="1291"/>
      <point x="499" y="1237"/>
      <point x="499" y="1196" type="qcurve" smooth="yes"/>
      <point x="499" y="1149"/>
      <point x="443" y="1088"/>
      <point x="399" y="1077" type="qcurve"/>
      <point x="502" y="934" type="line" smooth="yes"/>
      <point x="509" y="923"/>
      <point x="532" y="917"/>
      <point x="554" y="919" type="qcurve"/>
      <point x="556" y="898" type="line"/>
      <point x="536" y="892"/>
      <point x="493" y="881"/>
      <point x="482" y="881" type="qcurve" smooth="yes"/>
      <point x="473" y="881"/>
      <point x="455" y="893"/>
      <point x="451" y="899" type="qcurve" smooth="yes"/>
      <point x="346" y="1070" type="line"/>
      <point x="344" y="1070" type="line" smooth="yes"/>
      <point x="329" y="1070"/>
      <point x="313" y="1073" type="qcurve"/>
      <point x="313" y="924" type="line" smooth="yes"/>
      <point x="313" y="914"/>
      <point x="356" y="905" type="qcurve"/>
      <point x="356" y="887" type="line"/>
    </contour>
    <contour>
      <point x="637" y="1084" type="qcurve" smooth="yes"/>
      <point x="637" y="1143"/>
      <point x="596" y="1248"/>
      <point x="524" y="1326"/>
      <point x="424" y="1371"/>
      <point x="364" y="1371" type="qcurve" smooth="yes"/>
      <point x="305" y="1371"/>
      <point x="206" y="1326"/>
      <point x="134" y="1248"/>
      <point x="93" y="1143"/>
      <point x="93" y="1084" type="qcurve" smooth="yes"/>
      <point x="93" y="1024"/>
      <point x="134" y="920"/>
      <point x="206" y="842"/>
      <point x="305" y="797"/>
      <point x="364" y="797" type="qcurve" smooth="yes"/>
      <point x="424" y="797"/>
      <point x="524" y="842"/>
      <point x="596" y="920"/>
      <point x="637" y="1024"/>
    </contour>
    <contour>
      <point x="696" y="1084" type="qcurve" smooth="yes"/>
      <point x="696" y="1012"/>
      <point x="646" y="886"/>
      <point x="558" y="792"/>
      <point x="436" y="738"/>
      <point x="364" y="738" type="qcurve" smooth="yes"/>
      <point x="292" y="738"/>
      <point x="172" y="792"/>
      <point x="84" y="886"/>
      <point x="35" y="1012"/>
      <point x="35" y="1084" type="qcurve" smooth="yes"/>
      <point x="35" y="1156"/>
      <point x="84" y="1282"/>
      <point x="172" y="1376"/>
      <point x="292" y="1430"/>
      <point x="364" y="1430" type="qcurve" smooth="yes"/>
      <point x="436" y="1430"/>
      <point x="558" y="1376"/>
      <point x="646" y="1282"/>
      <point x="696" y="1156"/>
    </contour>
  </outline>
</glyph>
<glyph name="plusminus" format="1">
  <advance width="840"/>
  <unicode hex="00B1"/>
  <outline>
    <contour>
      <point x="778" y="217" type="line"/>
      <point x="773" y="197"/>
      <point x="756" y="146"/>
      <point x="748" y="129" type="qcurve"/>
      <point x="86" y="129" type="line"/>
      <point x="61" y="153" type="line"/>
      <point x="66" y="173"/>
      <point x="83" y="221"/>
      <point x="92" y="241" type="qcurve"/>
      <point x="754" y="241" type="line"/>
      <point x="778" y="217" type="line"/>
    </contour>
    <contour>
      <point x="477" y="366" type="line"/>
      <point x="457" y="356"/>
      <point x="409" y="340"/>
      <point x="387" y="335" type="qcurve"/>
      <point x="362" y="357" type="line"/>
      <point x="362" y="636" type="line"/>
      <point x="86" y="636" type="line"/>
      <point x="61" y="660" type="line"/>
      <point x="66" y="680"/>
      <point x="83" y="728"/>
      <point x="92" y="748" type="qcurve"/>
      <point x="362" y="748" type="line"/>
      <point x="362" y="1021" type="line"/>
      <point x="381" y="1027"/>
      <point x="431" y="1045"/>
      <point x="453" y="1050" type="qcurve"/>
      <point x="477" y="1027" type="line"/>
      <point x="477" y="748" type="line"/>
      <point x="754" y="748" type="line"/>
      <point x="778" y="724" type="line"/>
      <point x="773" y="704"/>
      <point x="756" y="653"/>
      <point x="748" y="636" type="qcurve"/>
      <point x="477" y="636" type="line"/>
      <point x="477" y="366" type="line"/>
    </contour>
  </outline>
</glyph>
<glyph name="threesuperior" format="1">
  <advance width="673"/>
  <unicode hex="00B3"/>
  <outline>
    <contour>
      <point x="587" y="849" type="qcurve" smooth="yes"/>
      <point x="587" y="798"/>
      <point x="547" y="709"/>
      <point x="471" y="641"/>
      <point x="362" y="602"/>
      <point x="294" y="602" type="qcurve" smooth="yes"/>
      <point x="231" y="602"/>
      <point x="101" y="649"/>
      <point x="38" y="701" type="qcurve"/>
      <point x="61" y="742" type="line"/>
      <point x="93" y="722"/>
      <point x="148" y="695"/>
      <point x="199" y="679"/>
      <point x="249" y="673"/>
      <point x="275" y="673" type="qcurve" smooth="yes"/>
      <point x="357" y="673"/>
      <point x="456" y="752"/>
      <point x="456" y="829" type="qcurve" smooth="yes"/>
      <point x="456" y="874"/>
      <point x="425" y="935"/>
      <point x="376" y="973"/>
      <point x="316" y="989"/>
      <point x="287" y="989" type="qcurve" smooth="yes"/>
      <point x="277" y="989"/>
      <point x="272" y="989" type="qcurve" smooth="yes"/>
      <point x="268" y="989"/>
      <point x="260" y="988"/>
      <point x="250" y="986"/>
      <point x="239" y="985" type="qcurve"/>
      <point x="230" y="1031" type="line"/>
      <point x="292" y="1046"/>
      <point x="366" y="1084"/>
      <point x="405" y="1124"/>
      <point x="416" y="1166"/>
      <point x="416" y="1184" type="qcurve" smooth="yes"/>
      <point x="416" y="1205"/>
      <point x="403" y="1244"/>
      <point x="375" y="1276"/>
      <point x="330" y="1295"/>
      <point x="298" y="1295" type="qcurve" smooth="yes"/>
      <point x="245" y="1295"/>
      <point x="191" y="1245"/>
      <point x="199" y="1204" type="qcurve"/>
      <point x="176" y="1193"/>
      <point x="112" y="1182"/>
      <point x="82" y="1180" type="qcurve"/>
      <point x="63" y="1199" type="line"/>
      <point x="63" y="1224"/>
      <point x="108" y="1281"/>
      <point x="184" y="1329"/>
      <point x="283" y="1361"/>
      <point x="338" y="1361" type="qcurve" smooth="yes"/>
      <point x="392" y="1361"/>
      <point x="470" y="1332"/>
      <point x="521" y="1285"/>
      <point x="546" y="1225"/>
      <point x="546" y="1195" type="qcurve" smooth="yes"/>
      <point x="546" y="1172"/>
      <point x="526" y="1126"/>
      <point x="488" y="1084"/>
      <point x="433" y="1049"/>
      <point x="399" y="1039" type="qcurve"/>
      <point x="439" y="1035"/>
      <point x="508" y="1002"/>
      <point x="558" y="951"/>
      <point x="587" y="885"/>
    </contour>
  </outline>
</glyph>
<glyph name="periodcentered" format="1">
  <advance width="300"/>
  <unicode hex="00B7"/>
  <outline>
    <contour>
      <point x="250" y="721" type="qcurve" smooth="yes"/>
      <point x="250" y="693"/>
      <point x="232" y="643"/>
      <point x="201" y="606"/>
      <point x="159" y="584"/>
      <point x="134" y="584" type="qcurve" smooth="yes"/>
      <point x="89" y="584"/>
      <point x="50" y="634"/>
      <point x="50" y="680" type="qcurve" smooth="yes"/>
      <point x="50" y="708"/>
      <point x="68" y="758"/>
      <point x="100" y="795"/>
      <point x="141" y="816"/>
      <point x="165" y="816" type="qcurve" smooth="yes"/>
      <point x="250" y="816"/>
    </contour>
  </outline>
</glyph>
<glyph name="cedilla" format="1">
  <advance width="469"/>
  <unicode hex="00B8"/>
  <outline>
    <contour>
      <point x="408" y="-229" type="qcurve" smooth="yes"/>
      <point x="408" y="-266"/>
      <point x="373" y="-334"/>
      <point x="299" y="-390"/>
      <point x="182" y="-432"/>
      <point x="100" y="-444" type="qcurve"/>
      <point x="78" y="-395" type="line"/>
      <point x="130" y="-386"/>
      <point x="203" y="-359"/>
      <point x="249" y="-327"/>
      <point x="270" y="-292"/>
      <point x="270" y="-276" type="qcurve" smooth="yes"/>
      <point x="270" y="-242"/>
      <point x="218" y="-215"/>
      <point x="156" y="-209" type="qcurve"/>
      <point x="156" y="-209"/>
      <point x="159" y="-202"/>
      <point x="173" y="-160"/>
      <point x="202" y="-70"/>
      <point x="229" y="14" type="qcurve"/>
      <point x="307" y="12" type="line"/>
      <point x="268" y="-104" type="line"/>
      <point x="294" y="-110"/>
      <point x="345" y="-129"/>
      <point x="384" y="-159"/>
      <point x="408" y="-201"/>
    </contour>
  </outline>
</glyph>
<glyph name="onesuperior" format="1">
  <advance width="673"/>
  <unicode hex="00B9"/>
  <outline>
    <contour>
      <point x="119" y="620" type="line"/>
      <point x="119" y="662" type="line"/>
      <point x="174" y="668"/>
      <point x="243" y="681"/>
      <point x="283" y="695"/>
      <point x="298" y="710"/>
      <point x="298" y="716" type="qcurve" smooth="yes"/>
      <point x="298" y="1174" type="line" smooth="yes"/>
      <point x="298" y="1198"/>
      <point x="294" y="1225"/>
      <point x="285" y="1233" type="qcurve" smooth="yes"/>
      <point x="281" y="1237"/>
      <point x="260" y="1241"/>
      <point x="221" y="1240"/>
      <point x="158" y="1233"/>
      <point x="112" y="1224" type="qcurve"/>
      <point x="97" y="1265" type="line"/>
      <point x="126" y="1272"/>
      <point x="210" y="1298"/>
      <point x="297" y="1327"/>
      <point x="374" y="1356"/>
      <point x="397" y="1367" type="qcurve"/>
      <point x="423" y="1346" type="line"/>
      <point x="423" y="716" type="line" smooth="yes"/>
      <point x="423" y="710"/>
      <point x="435" y="696"/>
      <point x="470" y="681"/>
      <point x="535" y="668"/>
      <point x="588" y="662" type="qcurve"/>
      <point x="588" y="620" type="line"/>
    </contour>
  </outline>
</glyph>
<glyph name="ordmasculine" format="1">
  <advance width="578"/>
  <unicode hex="00BA"/>
  <outline>
    <contour>
      <point x="61" y="586" type="line"/>
      <point x="61" y="659" type="line"/>
      <point x="516" y="659" type="line"/>
      <point x="516" y="586" type="line"/>
    </contour>
    <contour>
      <point x="434" y="967" type="qcurve" smooth="yes"/>
      <point x="434" y="1009"/>
      <point x="408" y="1085"/>
      <point x="364" y="1142"/>
      <point x="305" y="1176"/>
      <point x="272" y="1176" type="qcurve" smooth="yes"/>
      <point x="242" y="1176"/>
      <point x="195" y="1146"/>
      <point x="161" y="1092"/>
      <point x="143" y="1019"/>
      <point x="143" y="977" type="qcurve" smooth="yes"/>
      <point x="143" y="935"/>
      <point x="171" y="859"/>
      <point x="216" y="802"/>
      <point x="274" y="768"/>
      <point x="305" y="768" type="qcurve" smooth="yes"/>
      <point x="332" y="768"/>
      <point x="379" y="798"/>
      <point x="414" y="852"/>
      <point x="434" y="925"/>
    </contour>
    <contour>
      <point x="528" y="983" type="qcurve" smooth="yes"/>
      <point x="528" y="932"/>
      <point x="483" y="834"/>
      <point x="411" y="757"/>
      <point x="319" y="711"/>
      <point x="272" y="711" type="qcurve" smooth="yes"/>
      <point x="222" y="711"/>
      <point x="140" y="749"/>
      <point x="81" y="816"/>
      <point x="49" y="908"/>
      <point x="49" y="963" type="qcurve" smooth="yes"/>
      <point x="49" y="1015"/>
      <point x="89" y="1113"/>
      <point x="159" y="1189"/>
      <point x="252" y="1235"/>
      <point x="305" y="1235" type="qcurve" smooth="yes"/>
      <point x="353" y="1235"/>
      <point x="435" y="1197"/>
      <point x="495" y="1130"/>
      <point x="528" y="1037"/>
    </contour>
  </outline>
</glyph>
<glyph name="guillemotright" format="1">
  <advance width="994"/>
  <unicode hex="00BB"/>
  <outline>
    <contour>
      <point x="183" y="17" type="line"/>
      <point x="140" y="47" type="line"/>
      <point x="371" y="467" type="line" smooth="yes"/>
      <point x="372" y="467"/>
      <point x="352" y="502"/>
      <point x="320" y="560"/>
      <point x="278" y="635"/>
      <point x="235" y="713"/>
      <point x="193" y="788"/>
      <point x="161" y="847"/>
      <point x="141" y="883"/>
      <point x="141" y="883" type="qcurve"/>
      <point x="183" y="913" type="line"/>
      <point x="542" y="503" type="line" smooth="yes"/>
      <point x="543" y="502"/>
      <point x="544" y="479"/>
      <point x="544" y="465" type="qcurve" smooth="yes"/>
      <point x="544" y="452"/>
      <point x="544" y="441" type="qcurve" smooth="yes"/>
      <point x="544" y="430"/>
      <point x="544" y="430" type="qcurve"/>
    </contour>
    <contour>
      <point x="553" y="17" type="line"/>
      <point x="510" y="47" type="line"/>
      <point x="741" y="467" type="line" smooth="yes"/>
      <point x="742" y="467"/>
      <point x="722" y="502"/>
      <point x="690" y="560"/>
      <point x="648" y="635"/>
      <point x="605" y="713"/>
      <point x="563" y="788"/>
      <point x="531" y="847"/>
      <point x="511" y="883"/>
      <point x="511" y="883" type="qcurve"/>
      <point x="553" y="913" type="line"/>
      <point x="912" y="503" type="line" smooth="yes"/>
      <point x="913" y="502"/>
      <point x="914" y="479"/>
      <point x="914" y="465" type="qcurve" smooth="yes"/>
      <point x="914" y="452"/>
      <point x="914" y="441" type="qcurve" smooth="yes"/>
      <point x="914" y="430"/>
      <point x="914" y="430" type="qcurve"/>
    </contour>
  </outline>
</glyph>
<glyph name="onequarter" format="1">
  <advance width="1200"/>
  <unicode hex="00BC"/>
  <outline>
    <contour>
      <point x="950" y="491" type="line"/>
      <point x="749" y="226" type="line"/>
      <point x="950" y="226" type="line"/>
    </contour>
    <contour>
      <point x="97" y="637" type="line"/>
      <point x="97" y="671" type="line"/>
      <point x="141" y="675"/>
      <point x="197" y="686"/>
      <point x="228" y="697"/>
      <point x="240" y="709"/>
      <point x="240" y="714" type="qcurve" smooth="yes"/>
      <point x="240" y="1080" type="line" smooth="yes"/>
      <point x="240" y="1100"/>
      <point x="238" y="1121"/>
      <point x="230" y="1127" type="qcurve" smooth="yes"/>
      <point x="227" y="1130"/>
      <point x="210" y="1134"/>
      <point x="179" y="1133"/>
      <point x="129" y="1127"/>
      <point x="92" y="1120" type="qcurve"/>
      <point x="80" y="1153" type="line"/>
      <point x="103" y="1159"/>
      <point x="170" y="1179"/>
      <point x="239" y="1202"/>
      <point x="302" y="1226"/>
      <point x="320" y="1235" type="qcurve"/>
      <point x="340" y="1218" type="line"/>
      <point x="340" y="714" type="line" smooth="yes"/>
      <point x="340" y="709"/>
      <point x="350" y="698"/>
      <point x="378" y="686"/>
      <point x="430" y="675"/>
      <point x="472" y="671" type="qcurve"/>
      <point x="472" y="637" type="line"/>
    </contour>
    <contour>
      <point x="1120" y="210" type="line"/>
      <point x="1108" y="195"/>
      <point x="1088" y="172"/>
      <point x="1075" y="164" type="qcurve"/>
      <point x="1044" y="164" type="line"/>
      <point x="1044" y="58" type="line" smooth="yes"/>
      <point x="1044" y="54"/>
      <point x="1048" y="48"/>
      <point x="1063" y="41"/>
      <point x="1091" y="33"/>
      <point x="1114" y="29" type="qcurve"/>
      <point x="1114" y="0" type="line"/>
      <point x="840" y="0" type="line"/>
      <point x="840" y="29" type="line"/>
      <point x="876" y="34"/>
      <point x="920" y="43"/>
      <point x="943" y="51"/>
      <point x="950" y="59"/>
      <point x="950" y="63" type="qcurve" smooth="yes"/>
      <point x="950" y="164" type="line"/>
      <point x="672" y="164" type="line"/>
      <point x="653" y="180" type="line"/>
      <point x="933" y="563" type="line"/>
      <point x="956" y="572"/>
      <point x="1007" y="590"/>
      <point x="1024" y="598" type="qcurve"/>
      <point x="1044" y="581" type="line"/>
      <point x="1044" y="226" type="line"/>
      <point x="1105" y="226" type="line"/>
      <point x="1120" y="210" type="line"/>
    </contour>
    <contour>
      <point x="316" y="3" type="line"/>
      <point x="293" y="-8"/>
      <point x="250" y="-23"/>
      <point x="223" y="-30" type="qcurve"/>
      <point x="198" y="0" type="line"/>
      <point x="960" y="1203" type="line"/>
      <point x="980" y="1211"/>
      <point x="1027" y="1230"/>
      <point x="1049" y="1235" type="qcurve"/>
      <point x="1074" y="1207" type="line"/>
    </contour>
  </outline>
</glyph>
<glyph name="threequarters" format="1">
  <advance width="1200"/>
  <unicode hex="00BE"/>
  <outline>
    <contour>
      <point x="950" y="491" type="line"/>
      <point x="749" y="226" type="line"/>
      <point x="950" y="226" type="line"/>
    </contour>
    <contour>
      <point x="520" y="825" type="qcurve" smooth="yes"/>
      <point x="520" y="784"/>
      <point x="488" y="713"/>
      <point x="427" y="659"/>
      <point x="340" y="628"/>
      <point x="285" y="628" type="qcurve" smooth="yes"/>
      <point x="235" y="628"/>
      <point x="131" y="665"/>
      <point x="80" y="707" type="qcurve"/>
      <point x="99" y="740" type="line"/>
      <point x="150" y="707"/>
      <point x="228" y="684"/>
      <point x="270" y="684" type="qcurve" smooth="yes"/>
      <point x="336" y="684"/>
      <point x="415" y="748"/>
      <point x="415" y="809" type="qcurve" smooth="yes"/>
      <point x="415" y="845"/>
      <point x="390" y="894"/>
      <point x="351" y="924"/>
      <point x="303" y="937"/>
      <point x="280" y="937" type="qcurve" smooth="yes"/>
      <point x="272" y="937"/>
      <point x="268" y="937" type="qcurve" smooth="yes"/>
      <point x="264" y="937"/>
      <point x="258" y="936"/>
      <point x="250" y="935"/>
      <point x="241" y="934" type="qcurve"/>
      <point x="234" y="971" type="line"/>
      <point x="284" y="983"/>
      <point x="343" y="1013"/>
      <point x="374" y="1046"/>
      <point x="383" y="1078"/>
      <point x="383" y="1093" type="qcurve" smooth="yes"/>
      <point x="383" y="1109"/>
      <point x="372" y="1141"/>
      <point x="350" y="1167"/>
      <point x="313" y="1182"/>
      <point x="288" y="1182" type="qcurve" smooth="yes"/>
      <point x="246" y="1182"/>
      <point x="202" y="1141"/>
      <point x="209" y="1109" type="qcurve"/>
      <point x="190" y="1101"/>
      <point x="140" y="1092"/>
      <point x="116" y="1090" type="qcurve"/>
      <point x="100" y="1105" type="line"/>
      <point x="100" y="1125"/>
      <point x="136" y="1171"/>
      <point x="197" y="1210"/>
      <point x="276" y="1235"/>
      <point x="320" y="1235" type="qcurve" smooth="yes"/>
      <point x="363" y="1235"/>
      <point x="427" y="1212"/>
      <point x="467" y="1174"/>
      <point x="487" y="1126"/>
      <point x="487" y="1102" type="qcurve" smooth="yes"/>
      <point x="487" y="1066"/>
      <point x="424" y="994"/>
      <point x="369" y="977" type="qcurve"/>
      <point x="401" y="974"/>
      <point x="456" y="947"/>
      <point x="497" y="907"/>
      <point x="520" y="854"/>
    </contour>
    <contour>
      <point x="1120" y="210" type="line"/>
      <point x="1108" y="195"/>
      <point x="1088" y="172"/>
      <point x="1075" y="164" type="qcurve"/>
      <point x="1044" y="164" type="line"/>
      <point x="1044" y="58" type="line" smooth="yes"/>
      <point x="1044" y="54"/>
      <point x="1048" y="48"/>
      <point x="1063" y="41"/>
      <point x="1091" y="33"/>
      <point x="1114" y="29" type="qcurve"/>
      <point x="1114" y="0" type="line"/>
      <point x="840" y="0" type="line"/>
      <point x="840" y="29" type="line"/>
      <point x="876" y="34"/>
      <point x="920" y="43"/>
      <point x="943" y="51"/>
      <point x="950" y="59"/>
      <point x="950" y="63" type="qcurve" smooth="yes"/>
      <point x="950" y="164" type="line"/>
      <point x="672" y="164" type="line"/>
      <point x="653" y="180" type="line"/>
      <point x="933" y="563" type="line"/>
      <point x="956" y="572"/>
      <point x="1007" y="590"/>
      <point x="1024" y="598" type="qcurve"/>
      <point x="1044" y="581" type="line"/>
      <point x="1044" y="226" type="line"/>
      <point x="1105" y="226" type="line"/>
      <point x="1120" y="210" type="line"/>
    </contour>
    <contour>
      <point x="316" y="3" type="line"/>
      <point x="293" y="-8"/>
      <point x="250" y="-23"/>
      <point x="223" y="-30" type="qcurve"/>
      <point x="198" y="0" type="line"/>
      <point x="960" y="1203" type="line"/>
      <point x="980" y="1211"/>
      <point x="1027" y="1230"/>
      <point x="1049" y="1235" type="qcurve"/>
      <point x="1074" y="1207" type="line"/>
    </contour>
  </outline>
</glyph>
<glyph name="Oslash" format="1">
  <advance width="1229"/>
  <unicode hex="00D8"/>
  <outline>
    <contour>
      <point x="983" y="629" type="qcurve" smooth="yes"/>
      <point x="983" y="718"/>
      <point x="943" y="887"/>
      <point x="905" y="959" type="qcurve"/>
      <point x="377" y="203" type="line"/>
      <point x="425" y="149"/>
      <point x="541" y="90"/>
      <point x="604" y="90" type="qcurve" smooth="yes"/>
      <point x="687" y="90"/>
      <point x="826" y="159"/>
      <point x="927" y="295"/>
      <point x="983" y="497"/>
    </contour>
    <contour>
      <point x="225" y="641" type="qcurve" smooth="yes"/>
      <point x="225" y="547"/>
      <point x="267" y="377"/>
      <point x="305" y="307" type="qcurve"/>
      <point x="835" y="1063" type="line"/>
      <point x="788" y="1116"/>
      <point x="672" y="1176"/>
      <point x="604" y="1176" type="qcurve" smooth="yes"/>
      <point x="515" y="1176"/>
      <point x="374" y="1100"/>
      <point x="277" y="961"/>
      <point x="225" y="763"/>
    </contour>
    <contour>
      <point x="1003" y="1099" type="line"/>
      <point x="1071" y="1008"/>
      <point x="1139" y="773"/>
      <point x="1139" y="647" type="qcurve" smooth="yes"/>
      <point x="1139" y="557"/>
      <point x="1098" y="386"/>
      <point x="1023" y="235"/>
      <point x="919" y="110"/>
      <point x="794" y="20"/>
      <point x="651" y="-30"/>
      <point x="575" y="-30" type="qcurve" smooth="yes"/>
      <point x="488" y="-30"/>
      <point x="345" y="25"/>
      <point x="286" y="74" type="qcurve"/>
      <point x="233" y="-2" type="line" smooth="yes"/>
      <point x="224" y="-10"/>
      <point x="191" y="-25"/>
      <point x="153" y="-38"/>
      <point x="116" y="-49"/>
      <point x="104" y="-53" type="qcurve"/>
      <point x="76" y="-20" type="line"/>
      <point x="204" y="162" type="line"/>
      <point x="138" y="252"/>
      <point x="70" y="484"/>
      <point x="70" y="612" type="qcurve" smooth="yes"/>
      <point x="70" y="748"/>
      <point x="158" y="994"/>
      <point x="310" y="1180"/>
      <point x="515" y="1290"/>
      <point x="633" y="1290" type="qcurve" smooth="yes"/>
      <point x="720" y="1290"/>
      <point x="864" y="1235"/>
      <point x="921" y="1187" type="qcurve"/>
      <point x="975" y="1264" type="line"/>
      <point x="1003" y="1281"/>
      <point x="1071" y="1305"/>
      <point x="1102" y="1313" type="qcurve"/>
      <point x="1130" y="1280" type="line"/>
    </contour>
  </outline>
</glyph>
<glyph name="ae" format="1">
  <advance width="1417"/>
  <unicode hex="00E6"/>
  <outline>
    <contour>
      <point x="995" y="856" type="qcurve" smooth="yes"/>
      <point x="972" y="856"/>
      <point x="911" y="835"/>
      <point x="851" y="775"/>
      <point x="798" y="667"/>
      <point x="785" y="580" type="qcurve"/>
      <point x="1133" y="580" type="line" smooth="yes"/>
      <point x="1154" y="580"/>
      <point x="1171" y="595"/>
      <point x="1171" y="616" type="qcurve" smooth="yes"/>
      <point x="1171" y="664"/>
      <point x="1151" y="751"/>
      <point x="1109" y="817"/>
      <point x="1042" y="856"/>
    </contour>
    <contour>
      <point x="637" y="243" type="qcurve"/>
      <point x="630" y="272"/>
      <point x="623" y="332"/>
      <point x="623" y="365" type="qcurve" smooth="yes"/>
      <point x="623" y="372" type="line"/>
      <point x="623" y="375" type="line"/>
      <point x="623" y="485" type="line"/>
      <point x="590" y="483"/>
      <point x="538" y="477"/>
      <point x="526" y="473" type="qcurve" smooth="yes"/>
      <point x="376" y="436"/>
      <point x="242" y="311"/>
      <point x="242" y="229" type="qcurve" smooth="yes"/>
      <point x="242" y="189"/>
      <point x="267" y="139"/>
      <point x="301" y="110"/>
      <point x="339" y="100"/>
      <point x="352" y="100" type="qcurve" smooth="yes"/>
      <point x="379" y="100"/>
      <point x="447" y="118"/>
      <point x="522" y="153"/>
      <point x="600" y="207"/>
    </contour>
    <contour>
      <point x="1337" y="557" type="qcurve"/>
      <point x="1317" y="537"/>
      <point x="1257" y="502"/>
      <point x="1225" y="489" type="qcurve"/>
      <point x="776" y="489" type="line"/>
      <point x="774" y="472"/>
      <point x="774" y="454" type="qcurve" smooth="yes"/>
      <point x="774" y="437"/>
      <point x="774" y="418" type="qcurve" smooth="yes"/>
      <point x="774" y="360"/>
      <point x="805" y="247"/>
      <point x="865" y="157"/>
      <point x="952" y="102"/>
      <point x="1008" y="102" type="qcurve" smooth="yes"/>
      <point x="1039" y="102"/>
      <point x="1096" y="109"/>
      <point x="1161" y="136"/>
      <point x="1239" y="190"/>
      <point x="1292" y="236" type="qcurve"/>
      <point x="1305" y="229"/>
      <point x="1324" y="203"/>
      <point x="1329" y="195" type="qcurve"/>
      <point x="1269" y="123"/>
      <point x="1169" y="35"/>
      <point x="1078" y="-13"/>
      <point x="991" y="-30"/>
      <point x="944" y="-30" type="qcurve" smooth="yes"/>
      <point x="900" y="-30"/>
      <point x="815" y="-2"/>
      <point x="740" y="52"/>
      <point x="679" y="129"/>
      <point x="658" y="179" type="qcurve"/>
      <point x="615" y="127"/>
      <point x="514" y="49"/>
      <point x="414" y="-4"/>
      <point x="324" y="-30"/>
      <point x="293" y="-30" type="qcurve" smooth="yes"/>
      <point x="257" y="-30"/>
      <point x="181" y="-6"/>
      <point x="120" y="46"/>
      <point x="80" y="128"/>
      <point x="80" y="186" type="qcurve" smooth="yes"/>
      <point x="80" y="245"/>
      <point x="127" y="354"/>
      <point x="221" y="448"/>
      <point x="365" y="525"/>
      <point x="463" y="553" type="qcurve" smooth="yes"/>
      <point x="496" y="562"/>
      <point x="579" y="573"/>
      <point x="623" y="576" type="qcurve"/>
      <point x="623" y="662" type="line" smooth="yes"/>
      <point x="623" y="701"/>
      <point x="611" y="773"/>
      <point x="577" y="827"/>
      <point x="516" y="860"/>
      <point x="467" y="860" type="qcurve" smooth="yes"/>
      <point x="435" y="860"/>
      <point x="363" y="831"/>
      <point x="307" y="780"/>
      <point x="280" y="713"/>
      <point x="295" y="676" type="qcurve" smooth="yes"/>
      <point x="298" y="667"/>
      <point x="255" y="645"/>
      <point x="196" y="627"/>
      <point x="137" y="618"/>
      <point x="125" y="621" type="qcurve"/>
      <point x="111" y="657" type="line"/>
      <point x="116" y="696"/>
      <point x="164" y="772"/>
      <point x="235" y="839"/>
      <point x="323" y="896"/>
      <point x="414" y="937"/>
      <point x="500" y="960"/>
      <point x="535" y="960" type="qcurve" smooth="yes"/>
      <point x="623" y="960"/>
      <point x="726" y="888"/>
      <point x="749" y="816" type="qcurve"/>
      <point x="781" y="856"/>
      <point x="853" y="912"/>
      <point x="926" y="945"/>
      <point x="995" y="960"/>
      <point x="1024" y="960" type="qcurve" smooth="yes"/>
      <point x="1085" y="960"/>
      <point x="1179" y="925"/>
      <point x="1248" y="866"/>
      <point x="1296" y="786"/>
      <point x="1325" y="697"/>
      <point x="1337" y="602"/>
    </contour>
  </outline>
</glyph>
<glyph name="divide" format="1">
  <advance width="840"/>
  <unicode hex="00F7"/>
  <outline>
    <contour>
      <point x="499" y="820" type="qcurve" smooth="yes"/>
      <point x="499" y="798"/>
      <point x="485" y="758"/>
      <point x="460" y="728"/>
      <point x="426" y="711"/>
      <point x="407" y="711" type="qcurve" smooth="yes"/>
      <point x="372" y="711"/>
      <point x="340" y="751"/>
      <point x="340" y="788" type="qcurve" smooth="yes"/>
      <point x="340" y="810"/>
      <point x="354" y="850"/>
      <point x="379" y="879"/>
      <point x="413" y="896"/>
      <point x="432" y="896" type="qcurve" smooth="yes"/>
      <point x="499" y="896"/>
    </contour>
    <contour>
      <point x="499" y="340" type="qcurve" smooth="yes"/>
      <point x="499" y="318"/>
      <point x="485" y="278"/>
      <point x="460" y="248"/>
      <point x="426" y="231"/>
      <point x="407" y="231" type="qcurve" smooth="yes"/>
      <point x="372" y="231"/>
      <point x="340" y="271"/>
      <point x="340" y="308" type="qcurve" smooth="yes"/>
      <point x="340" y="330"/>
      <point x="354" y="370"/>
      <point x="379" y="399"/>
      <point x="413" y="416"/>
      <point x="432" y="416" type="qcurve" smooth="yes"/>
      <point x="499" y="416"/>
    </contour>
    <contour>
      <point x="778" y="594" type="line"/>
      <point x="773" y="574"/>
      <point x="756" y="523"/>
      <point x="748" y="506" type="qcurve"/>
      <point x="86" y="506" type="line"/>
      <point x="61" y="530" type="line"/>
      <point x="66" y="550"/>
      <point x="83" y="598"/>
      <point x="92" y="618" type="qcurve"/>
      <point x="754" y="618" type="line"/>
      <point x="778" y="594" type="line"/>
    </contour>
  </outline>
</glyph>
<glyph name="oslash" format="1">
  <advance width="1030"/>
  <unicode hex="00F8"/>
  <outline>
    <contour>
      <point x="797" y="455" type="qcurve" smooth="yes"/>
      <point x="797" y="515"/>
      <point x="765" y="628"/>
      <point x="739" y="676" type="qcurve"/>
      <point x="356" y="169" type="line"/>
      <point x="396" y="127"/>
      <point x="484" y="80"/>
      <point x="524" y="80" type="qcurve" smooth="yes"/>
      <point x="595" y="80"/>
      <point x="698" y="133"/>
      <point x="765" y="231"/>
      <point x="797" y="369"/>
    </contour>
    <contour>
      <point x="233" y="473" type="qcurve" smooth="yes"/>
      <point x="233" y="412"/>
      <point x="266" y="301"/>
      <point x="294" y="253" type="qcurve"/>
      <point x="678" y="761" type="line"/>
      <point x="639" y="803"/>
      <point x="550" y="850"/>
      <point x="506" y="850" type="qcurve" smooth="yes"/>
      <point x="430" y="850"/>
      <point x="326" y="792"/>
      <point x="261" y="691"/>
      <point x="233" y="553"/>
    </contour>
    <contour>
      <point x="946" y="950" type="line"/>
      <point x="844" y="815" type="line"/>
      <point x="895" y="752"/>
      <point x="950" y="584"/>
      <point x="950" y="485" type="qcurve" smooth="yes"/>
      <point x="950" y="419"/>
      <point x="916" y="290"/>
      <point x="856" y="176"/>
      <point x="772" y="79"/>
      <point x="671" y="9"/>
      <point x="557" y="-30"/>
      <point x="496" y="-30" type="qcurve" smooth="yes"/>
      <point x="427" y="-30"/>
      <point x="309" y="8"/>
      <point x="261" y="43" type="qcurve"/>
      <point x="242" y="18" type="line" smooth="yes"/>
      <point x="233" y="10"/>
      <point x="200" y="-11"/>
      <point x="164" y="-32"/>
      <point x="129" y="-49"/>
      <point x="117" y="-53" type="qcurve"/>
      <point x="88" y="-20" type="line"/>
      <point x="188" y="112" type="line"/>
      <point x="136" y="175"/>
      <point x="80" y="344"/>
      <point x="80" y="444" type="qcurve" smooth="yes"/>
      <point x="80" y="510"/>
      <point x="113" y="638"/>
      <point x="172" y="753"/>
      <point x="255" y="850"/>
      <point x="356" y="920"/>
      <point x="472" y="960"/>
      <point x="535" y="960" type="qcurve" smooth="yes"/>
      <point x="604" y="960"/>
      <point x="723" y="921"/>
      <point x="772" y="885" type="qcurve"/>
      <point x="793" y="913" type="line"/>
      <point x="806" y="922"/>
      <point x="837" y="943"/>
      <point x="869" y="963"/>
      <point x="901" y="979"/>
      <point x="915" y="983" type="qcurve"/>
    </contour>
  </outline>
</glyph>
<glyph name="thorn" format="1">
  <advance width="1085"/>
  <unicode hex="00FE"/>
  <outline>
    <contour>
      <point x="870" y="408" type="qcurve" smooth="yes"/>
      <point x="870" y="507"/>
      <point x="829" y="665"/>
      <point x="761" y="775"/>
      <point x="671" y="834"/>
      <point x="623" y="834" type="qcurve" smooth="yes"/>
      <point x="605" y="834"/>
      <point x="546" y="812"/>
      <point x="473" y="761"/>
      <point x="388" y="674"/>
      <point x="344" y="610" type="qcurve"/>
      <point x="344" y="213" type="line"/>
      <point x="421" y="153"/>
      <point x="562" y="90"/>
      <point x="631" y="90" type="qcurve" smooth="yes"/>
      <point x="688" y="90"/>
      <point x="776" y="144"/>
      <point x="838" y="234"/>
      <point x="870" y="348"/>
    </contour>
    <contour>
      <point x="1006" y="492" type="qcurve" smooth="yes"/>
      <point x="1006" y="434"/>
      <point x="975" y="311"/>
      <point x="919" y="195"/>
      <point x="840" y="92"/>
      <point x="744" y="14"/>
      <point x="633" y="-31"/>
      <point x="573" y="-31" type="qcurve" smooth="yes"/>
      <point x="557" y="-31"/>
      <point x="508" y="-20"/>
      <point x="448" y="6"/>
      <point x="379" y="45"/>
      <point x="344" y="74" type="qcurve"/>
      <point x="344" y="-375" type="line" smooth="yes"/>
      <point x="344" y="-391"/>
      <point x="420" y="-423"/>
      <point x="514" y="-437" type="qcurve"/>
      <point x="514" y="-480" type="line"/>
      <point x="55" y="-480" type="line"/>
      <point x="55" y="-437" type="line"/>
      <point x="121" y="-421"/>
      <point x="195" y="-392"/>
      <point x="195" y="-375" type="qcurve" smooth="yes"/>
      <point x="195" y="1296" type="line" smooth="yes"/>
      <point x="195" y="1341"/>
      <point x="183" y="1391"/>
      <point x="152" y="1416"/>
      <point x="97" y="1425"/>
      <point x="55" y="1430" type="qcurve"/>
      <point x="55" y="1470" type="line"/>
      <point x="127" y="1484"/>
      <point x="247" y="1518"/>
      <point x="307" y="1550" type="qcurve"/>
      <point x="344" y="1516" type="line"/>
      <point x="344" y="733" type="line"/>
      <point x="395" y="794"/>
      <point x="495" y="880"/>
      <point x="585" y="935"/>
      <point x="661" y="961"/>
      <point x="690" y="961" type="qcurve" smooth="yes"/>
      <point x="758" y="961"/>
      <point x="874" y="897"/>
      <point x="958" y="775"/>
      <point x="1006" y="601"/>
    </contour>
  </outline>
</glyph>
<glyph name="eogonek" format="1">
  <advance width="946"/>
  <unicode hex="0119"/>
  <outline>
    <contour>
      <point x="496" y="856" type="qcurve" smooth="yes"/>
      <point x="445" y="856"/>
      <point x="359" y="816"/>
      <point x="292" y="744"/>
      <point x="247" y="642"/>
      <point x="237" y="580" type="qcurve"/>
      <point x="664" y="580" type="line" smooth="yes"/>
      <point x="687" y="580"/>
      <point x="702" y="595"/>
      <point x="702" y="616" type="qcurve" smooth="yes"/>
      <point x="702" y="634"/>
      <point x="696" y="684"/>
      <point x="679" y="737"/>
      <point x="650" y="789"/>
      <point x="604" y="830"/>
      <point x="539" y="856"/>
    </contour>
    <contour>
      <point x="839" y="-299" type="line"/>
      <point x="818" y="-326"/>
      <point x="761" y="-378"/>
      <point x="701" y="-419"/>
      <point x="641" y="-444"/>
      <point x="616" y="-444" type="qcurve" smooth="yes"/>
      <point x="587" y="-444"/>
      <point x="528" y="-423"/>
      <point x="480" y="-379"/>
      <point x="450" y="-314"/>
      <point x="450" y="-269" type="qcurve" smooth="yes"/>
      <point x="450" y="-214"/>
      <point x="509" y="-80"/>
      <point x="573" y="-19" type="qcurve"/>
      <point x="551" y="-23"/>
      <point x="490" y="-30"/>
      <point x="465" y="-30" type="qcurve" smooth="yes"/>
      <point x="388" y="-30"/>
      <point x="249" y="36"/>
      <point x="143" y="157"/>
      <point x="80" y="328"/>
      <point x="80" y="434" type="qcurve" smooth="yes"/>
      <point x="80" y="501"/>
      <point x="110" y="631"/>
      <point x="167" y="747"/>
      <point x="249" y="845"/>
      <point x="301" y="881" type="qcurve" smooth="yes"/>
      <point x="323" y="896"/>
      <point x="378" y="925"/>
      <point x="438" y="947"/>
      <point x="497" y="960"/>
      <point x="524" y="960" type="qcurve" smooth="yes"/>
      <point x="590" y="960"/>
      <point x="691" y="924"/>
      <point x="767" y="863"/>
      <point x="819" y="782"/>
      <point x="852" y="692"/>
      <point x="866" y="599"/>
      <point x="866" y="557" type="qcurve"/>
      <point x="848" y="537"/>
      <point x="788" y="503"/>
      <point x="756" y="490" type="qcurve"/>
      <point x="230" y="490" type="line"/>
      <point x="230" y="487" type="line" smooth="yes"/>
      <point x="230" y="412"/>
      <point x="271" y="273"/>
      <point x="347" y="166"/>
      <point x="457" y="102"/>
      <point x="526" y="102" type="qcurve" smooth="yes"/>
      <point x="557" y="102"/>
      <point x="616" y="109"/>
      <point x="684" y="136"/>
      <point x="767" y="190"/>
      <point x="823" y="236" type="qcurve"/>
      <point x="836" y="229"/>
      <point x="855" y="203"/>
      <point x="860" y="195" type="qcurve"/>
      <point x="793" y="128"/>
      <point x="699" y="24"/>
      <point x="637" y="-57"/>
      <point x="601" y="-118"/>
      <point x="583" y="-167"/>
      <point x="579" y="-206"/>
      <point x="579" y="-224" type="qcurve" smooth="yes"/>
      <point x="579" y="-250"/>
      <point x="595" y="-291"/>
      <point x="621" y="-320"/>
      <point x="656" y="-336"/>
      <point x="675" y="-336" type="qcurve" smooth="yes"/>
      <point x="700" y="-336"/>
      <point x="773" y="-300"/>
      <point x="815" y="-262" type="qcurve"/>
      <point x="839" y="-299" type="line"/>
    </contour>
  </outline>
</glyph>
<glyph name="Hbar" format="1">
  <advance width="1339"/>
  <unicode hex="0126"/>
  <outline>
    <contour>
      <point x="355" y="705" type="line"/>
      <point x="965" y="705" type="line"/>
      <point x="965" y="890" type="line"/>
      <point x="355" y="890" type="line"/>
    </contour>
    <contour>
      <point x="1245" y="890" type="line"/>
      <point x="1125" y="890" type="line"/>
      <point x="1125" y="104" type="line" smooth="yes"/>
      <point x="1125" y="92"/>
      <point x="1198" y="57"/>
      <point x="1270" y="43" type="qcurve"/>
      <point x="1270" y="0" type="line"/>
      <point x="820" y="0" type="line"/>
      <point x="820" y="43" type="line"/>
      <point x="888" y="57"/>
      <point x="965" y="90"/>
      <point x="965" y="104" type="qcurve" smooth="yes"/>
      <point x="965" y="615" type="line"/>
      <point x="355" y="615" type="line"/>
      <point x="355" y="104" type="line" smooth="yes"/>
      <point x="355" y="92"/>
      <point x="427" y="57"/>
      <point x="500" y="43" type="qcurve"/>
      <point x="500" y="0" type="line"/>
      <point x="50" y="0" type="line"/>
      <point x="50" y="43" type="line"/>
      <point x="118" y="57"/>
      <point x="195" y="90"/>
      <point x="195" y="104" type="qcurve" smooth="yes"/>
      <point x="195" y="890" type="line"/>
      <point x="72" y="890" type="line"/>
      <point x="50" y="915" type="line"/>
      <point x="55" y="930"/>
      <point x="66" y="964"/>
      <point x="72" y="980" type="qcurve"/>
      <point x="195" y="980" type="line"/>
      <point x="195" y="1155" type="line" smooth="yes"/>
      <point x="195" y="1167"/>
      <point x="122" y="1203"/>
      <point x="50" y="1217" type="qcurve"/>
      <point x="50" y="1260" type="line"/>
      <point x="500" y="1260" type="line"/>
      <point x="500" y="1217" type="line"/>
      <point x="432" y="1203"/>
      <point x="355" y="1169"/>
      <point x="355" y="1155" type="qcurve" smooth="yes"/>
      <point x="355" y="980" type="line"/>
      <point x="965" y="980" type="line"/>
      <point x="965" y="1155" type="line" smooth="yes"/>
      <point x="965" y="1167"/>
      <point x="892" y="1203"/>
      <point x="820" y="1217" type="qcurve"/>
      <point x="820" y="1260" type="line"/>
      <point x="1270" y="1260" type="line"/>
      <point x="1270" y="1217" type="line"/>
      <point x="1202" y="1203"/>
      <point x="1125" y="1169"/>
      <point x="1125" y="1155" type="qcurve" smooth="yes"/>
      <point x="1125" y="980" type="line"/>
      <point x="1245" y="980" type="line"/>
      <point x="1270" y="957" type="line"/>
    </contour>
  </outline>
</glyph>
<glyph name="hbar" format="1">
  <advance width="1130"/>
  <unicode hex="0127"/>
  <outline>
    <contour>
      <point x="670" y="0" type="line"/>
      <point x="670" y="43" type="line"/>
      <point x="742" y="62"/>
      <point x="810" y="90"/>
      <point x="810" y="104" type="qcurve" smooth="yes"/>
      <point x="810" y="633" type="line" smooth="yes"/>
      <point x="810" y="694"/>
      <point x="795" y="770"/>
      <point x="763" y="814"/>
      <point x="715" y="830"/>
      <point x="682" y="830" type="qcurve" smooth="yes"/>
      <point x="647" y="830"/>
      <point x="566" y="794"/>
      <point x="478" y="724"/>
      <point x="388" y="619"/>
      <point x="345" y="549" type="qcurve"/>
      <point x="345" y="104" type="line" smooth="yes"/>
      <point x="345" y="89"/>
      <point x="420" y="57"/>
      <point x="485" y="43" type="qcurve"/>
      <point x="485" y="0" type="line"/>
      <point x="55" y="0" type="line"/>
      <point x="55" y="43" type="line"/>
      <point x="121" y="60"/>
      <point x="195" y="87"/>
      <point x="195" y="104" type="qcurve" smooth="yes"/>
      <point x="195" y="1140" type="line"/>
      <point x="55" y="1140" type="line"/>
      <point x="33" y="1162" type="line"/>
      <point x="38" y="1178"/>
      <point x="47" y="1214"/>
      <point x="55" y="1230" type="qcurve"/>
      <point x="195" y="1230" type="line"/>
      <point x="195" y="1298" type="line" smooth="yes"/>
      <point x="195" y="1340"/>
      <point x="188" y="1387"/>
      <point x="159" y="1413"/>
      <point x="103" y="1424"/>
      <point x="55" y="1430" type="qcurve"/>
      <point x="55" y="1470" type="line"/>
      <point x="97" y="1478"/>
      <point x="166" y="1494"/>
      <point x="225" y="1513"/>
      <point x="279" y="1535"/>
      <point x="308" y="1550" type="qcurve"/>
      <point x="345" y="1516" type="line"/>
      <point x="345" y="1230" type="line"/>
      <point x="631" y="1230" type="line"/>
      <point x="653" y="1205" type="line"/>
      <point x="631" y="1140" type="line"/>
      <point x="345" y="1140" type="line"/>
      <point x="345" y="684" type="line"/>
      <point x="388" y="748"/>
      <point x="493" y="850"/>
      <point x="599" y="922"/>
      <point x="700" y="960"/>
      <point x="739" y="960" type="qcurve" smooth="yes"/>
      <point x="782" y="960"/>
      <point x="862" y="934"/>
      <point x="923" y="880"/>
      <point x="960" y="797"/>
      <point x="960" y="741" type="qcurve" smooth="yes"/>
      <point x="960" y="104" type="line" smooth="yes"/>
      <point x="960" y="90"/>
      <point x="1021" y="63"/>
      <point x="1100" y="43" type="qcurve"/>
      <point x="1100" y="0" type="line"/>
    </contour>
  </outline>
</glyph>
<glyph name="dotlessi" format="1">
  <advance width="555"/>
  <unicode hex="0131"/>
  <outline>
    <contour>
      <point x="70" y="0" type="line"/>
      <point x="70" y="43" type="line"/>
      <point x="138" y="57"/>
      <point x="210" y="90"/>
      <point x="210" y="104" type="qcurve" smooth="yes"/>
      <point x="210" y="670" type="line" smooth="yes"/>
      <point x="210" y="721"/>
      <point x="206" y="784"/>
      <point x="180" y="819"/>
      <point x="123" y="835"/>
      <point x="70" y="840" type="qcurve"/>
      <point x="70" y="880" type="line"/>
      <point x="101" y="886"/>
      <point x="170" y="903"/>
      <point x="238" y="924"/>
      <point x="300" y="948"/>
      <point x="326" y="960" type="qcurve"/>
      <point x="360" y="960" type="line"/>
      <point x="360" y="104" type="line" smooth="yes"/>
      <point x="360" y="92"/>
      <point x="427" y="57"/>
      <point x="500" y="43" type="qcurve"/>
      <point x="500" y="0" type="line"/>
    </contour>
  </outline>
</glyph>
<glyph name="kgreenlandic" format="1">
  <advance width="1024"/>
  <unicode hex="0138"/>
  <outline>
    <contour>
      <point x="55" y="0" type="line"/>
      <point x="55" y="43" type="line"/>
      <point x="121" y="60"/>
      <point x="195" y="86"/>
      <point x="195" y="104" type="qcurve" smooth="yes"/>
      <point x="195" y="706" type="line" smooth="yes"/>
      <point x="195" y="752"/>
      <point x="184" y="802"/>
      <point x="153" y="827"/>
      <point x="98" y="835"/>
      <point x="55" y="840" type="qcurve"/>
      <point x="55" y="880" type="line"/>
      <point x="124" y="894"/>
      <point x="257" y="931"/>
      <point x="308" y="960" type="qcurve"/>
      <point x="345" y="926" type="line"/>
      <point x="345" y="496" type="line"/>
      <point x="653" y="799" type="line" smooth="yes"/>
      <point x="686" y="828"/>
      <point x="700" y="863"/>
      <point x="681" y="881"/>
      <point x="636" y="887"/>
      <point x="610" y="887" type="qcurve"/>
      <point x="610" y="930" type="line"/>
      <point x="989" y="930" type="line"/>
      <point x="989" y="887" type="line"/>
      <point x="945" y="882"/>
      <point x="871" y="859"/>
      <point x="829" y="825" type="qcurve" smooth="yes"/>
      <point x="491" y="527" type="line"/>
      <point x="864" y="111" type="line" smooth="yes"/>
      <point x="878" y="95"/>
      <point x="908" y="74"/>
      <point x="944" y="62"/>
      <point x="989" y="59"/>
      <point x="1018" y="61" type="qcurve"/>
      <point x="1024" y="18" type="line"/>
      <point x="995" y="11"/>
      <point x="938" y="1"/>
      <point x="889" y="-6"/>
      <point x="850" y="-10"/>
      <point x="840" y="-10" type="qcurve" smooth="yes"/>
      <point x="798" y="-10"/>
      <point x="747" y="14"/>
      <point x="725" y="43" type="qcurve" smooth="yes"/>
      <point x="348" y="495" type="line"/>
      <point x="345" y="496" type="line"/>
      <point x="345" y="104" type="line" smooth="yes"/>
      <point x="345" y="96"/>
      <point x="352" y="84"/>
      <point x="374" y="71"/>
      <point x="418" y="55"/>
      <point x="455" y="43" type="qcurve"/>
      <point x="455" y="0" type="line"/>
    </contour>
  </outline>
</glyph>
<glyph name="Lslash" format="1">
  <advance width="975"/>
  <unicode hex="0141"/>
  <outline>
    <contour>
      <point x="944" y="244" type="line"/>
      <point x="936" y="157"/>
      <point x="911" y="29"/>
      <point x="903" y="0" type="qcurve"/>
      <point x="50" y="0" type="line"/>
      <point x="50" y="43" type="line"/>
      <point x="118" y="57"/>
      <point x="195" y="90"/>
      <point x="195" y="104" type="qcurve" smooth="yes"/>
      <point x="195" y="525" type="line"/>
      <point x="68" y="461" type="line"/>
      <point x="41" y="483" type="line"/>
      <point x="42" y="492"/>
      <point x="52" y="519"/>
      <point x="64" y="546"/>
      <point x="77" y="569"/>
      <point x="82" y="575" type="qcurve" smooth="yes"/>
      <point x="195" y="632" type="line"/>
      <point x="195" y="1155" type="line" smooth="yes"/>
      <point x="195" y="1167"/>
      <point x="122" y="1203"/>
      <point x="50" y="1217" type="qcurve"/>
      <point x="50" y="1260" type="line"/>
      <point x="500" y="1260" type="line"/>
      <point x="500" y="1217" type="line"/>
      <point x="432" y="1203"/>
      <point x="355" y="1169"/>
      <point x="355" y="1155" type="qcurve" smooth="yes"/>
      <point x="355" y="712" type="line"/>
      <point x="623" y="848" type="line"/>
      <point x="649" y="823" type="line"/>
      <point x="647" y="814"/>
      <point x="638" y="790"/>
      <point x="626" y="764"/>
      <point x="612" y="741"/>
      <point x="606" y="733" type="qcurve"/>
      <point x="355" y="606" type="line"/>
      <point x="355" y="164" type="line" smooth="yes"/>
      <point x="355" y="146"/>
      <point x="372" y="119"/>
      <point x="414" y="100"/>
      <point x="486" y="90"/>
      <point x="541" y="90" type="qcurve" smooth="yes"/>
      <point x="684" y="90" type="line" smooth="yes"/>
      <point x="730" y="90"/>
      <point x="793" y="100"/>
      <point x="841" y="135"/>
      <point x="880" y="203"/>
      <point x="901" y="262" type="qcurve"/>
      <point x="944" y="244" type="line"/>
    </contour>
  </outline>
</glyph>
<glyph name="lslash" format="1">
  <advance width="555"/>
  <unicode hex="0142"/>
  <outline>
    <contour>
      <point x="60" y="0" type="line"/>
      <point x="60" y="43" type="line"/>
      <point x="103" y="50"/>
      <point x="161" y="65"/>
      <point x="195" y="80"/>
      <point x="210" y="96"/>
      <point x="210" y="104" type="qcurve" smooth="yes"/>
      <point x="210" y="665" type="line"/>
      <point x="78" y="569" type="line"/>
      <point x="49" y="594" type="line"/>
      <point x="51" y="607"/>
      <point x="53" y="622"/>
      <point x="57" y="639"/>
      <point x="64" y="663"/>
      <point x="72" y="684" type="qcurve"/>
      <point x="210" y="783" type="line"/>
      <point x="210" y="1296" type="line" smooth="yes"/>
      <point x="210" y="1341"/>
      <point x="198" y="1391"/>
      <point x="166" y="1416"/>
      <point x="112" y="1425"/>
      <point x="70" y="1430" type="qcurve"/>
      <point x="70" y="1470" type="line"/>
      <point x="142" y="1484"/>
      <point x="262" y="1518"/>
      <point x="324" y="1550" type="qcurve"/>
      <point x="360" y="1516" type="line"/>
      <point x="360" y="891" type="line"/>
      <point x="492" y="987" type="line"/>
      <point x="520" y="963" type="line"/>
      <point x="517" y="946"/>
      <point x="514" y="927"/>
      <point x="510" y="911"/>
      <point x="503" y="891"/>
      <point x="496" y="874" type="qcurve"/>
      <point x="360" y="775" type="line"/>
      <point x="360" y="104" type="line" smooth="yes"/>
      <point x="360" y="89"/>
      <point x="428" y="57"/>
      <point x="510" y="43" type="qcurve"/>
      <point x="510" y="0" type="line"/>
    </contour>
  </outline>
</glyph>
<glyph name="Eng" format="1">
  <advance width="1235"/>
  <unicode hex="014A"/>
  <outline>
    <contour>
      <point x="1124" y="277" type="line"/>
      <point x="1124" y="173"/>
      <point x="1081" y="0"/>
      <point x="1010" y="-140"/>
      <point x="917" y="-249"/>
      <point x="866" y="-288" type="qcurve" smooth="yes"/>
      <point x="839" y="-309"/>
      <point x="769" y="-343"/>
      <point x="692" y="-367"/>
      <point x="614" y="-380"/>
      <point x="578" y="-380" type="qcurve" smooth="yes"/>
      <point x="534" y="-380"/>
      <point x="446" y="-358"/>
      <point x="375" y="-325"/>
      <point x="330" y="-288"/>
      <point x="330" y="-272" type="qcurve" smooth="yes"/>
      <point x="330" y="-263"/>
      <point x="362" y="-231"/>
      <point x="406" y="-197"/>
      <point x="452" y="-167"/>
      <point x="467" y="-161" type="qcurve"/>
      <point x="494" y="-188"/>
      <point x="556" y="-227"/>
      <point x="618" y="-252"/>
      <point x="678" y="-264"/>
      <point x="704" y="-264" type="qcurve" smooth="yes"/>
      <point x="751" y="-264"/>
      <point x="845" y="-204"/>
      <point x="919" y="-83"/>
      <point x="965" y="100"/>
      <point x="965" y="224" type="qcurve" smooth="yes"/>
      <point x="965" y="872" type="line" smooth="yes"/>
      <point x="965" y="954"/>
      <point x="941" y="1061"/>
      <point x="896" y="1125"/>
      <point x="834" y="1151"/>
      <point x="797" y="1151" type="qcurve" smooth="yes"/>
      <point x="757" y="1151"/>
      <point x="666" y="1116"/>
      <point x="558" y="1026"/>
      <point x="431" y="870"/>
      <point x="354" y="748" type="qcurve"/>
      <point x="354" y="104" type="line" smooth="yes"/>
      <point x="354" y="92"/>
      <point x="427" y="57"/>
      <point x="500" y="43" type="qcurve"/>
      <point x="500" y="0" type="line"/>
      <point x="49" y="0" type="line"/>
      <point x="49" y="43" type="line"/>
      <point x="117" y="57"/>
      <point x="195" y="90"/>
      <point x="195" y="104" type="qcurve" smooth="yes"/>
      <point x="195" y="1030" type="line" smooth="yes"/>
      <point x="195" y="1069"/>
      <point x="189" y="1118"/>
      <point x="162" y="1147"/>
      <point x="106" y="1162"/>
      <point x="55" y="1167" type="qcurve"/>
      <point x="55" y="1210" type="line"/>
      <point x="123" y="1223"/>
      <point x="265" y="1262"/>
      <point x="319" y="1290" type="qcurve"/>
      <point x="354" y="1255" type="line"/>
      <point x="354" y="928" type="line"/>
      <point x="431" y="1034"/>
      <point x="569" y="1173"/>
      <point x="695" y="1256"/>
      <point x="810" y="1290"/>
      <point x="864" y="1290" type="qcurve" smooth="yes"/>
      <point x="907" y="1290"/>
      <point x="999" y="1264"/>
      <point x="1075" y="1195"/>
      <point x="1124" y="1075"/>
      <point x="1124" y="981" type="qcurve" smooth="yes"/>
      <point x="1124" y="277" type="line"/>
    </contour>
  </outline>
</glyph>
<glyph name="longs" format="1">
  <advance width="637"/>
  <unicode hex="017F"/>
  <outline>
    <contour>
      <point x="817" y="1454" type="qcurve" smooth="yes"/>
      <point x="817" y="1446"/>
      <point x="788" y="1414"/>
      <point x="748" y="1380"/>
      <point x="705" y="1350"/>
      <point x="690" y="1343" type="qcurve"/>
      <point x="666" y="1364"/>
      <point x="617" y="1395"/>
      <point x="572" y="1416"/>
      <point x="533" y="1427"/>
      <point x="520" y="1427" type="qcurve" smooth="yes"/>
      <point x="494" y="1427"/>
      <point x="435" y="1391"/>
      <point x="384" y="1299"/>
      <point x="350" y="1140"/>
      <point x="350" y="1016" type="qcurve" smooth="yes"/>
      <point x="350" y="102" type="line" smooth="yes"/>
      <point x="350" y="96"/>
      <point x="371" y="84"/>
      <point x="421" y="71"/>
      <point x="500" y="54"/>
      <point x="559" y="43" type="qcurve"/>
      <point x="559" y="0" type="line"/>
      <point x="60" y="0" type="line"/>
      <point x="60" y="43" type="line"/>
      <point x="129" y="55"/>
      <point x="200" y="90"/>
      <point x="200" y="102" type="qcurve" smooth="yes"/>
      <point x="200" y="836" type="line"/>
      <point x="66" y="836" type="line"/>
      <point x="45" y="864" type="line"/>
      <point x="123" y="930" type="line"/>
      <point x="200" y="930" type="line"/>
      <point x="200" y="961" type="line" smooth="yes"/>
      <point x="200" y="1079"/>
      <point x="232" y="1240"/>
      <point x="287" y="1351"/>
      <point x="359" y="1426"/>
      <point x="399" y="1458" type="qcurve" smooth="yes"/>
      <point x="426" y="1480"/>
      <point x="490" y="1514"/>
      <point x="553" y="1538"/>
      <point x="610" y="1550"/>
      <point x="629" y="1550" type="qcurve" smooth="yes"/>
      <point x="660" y="1550"/>
      <point x="726" y="1526"/>
      <point x="781" y="1495"/>
      <point x="817" y="1463"/>
    </contour>
  </outline>
</glyph>
<glyph name="uni0181" format="1">
  <advance width="1356"/>
  <unicode hex="0181"/>
  <outline>
    <contour>
      <point x="904" y="1136" type="qcurve" smooth="yes"/>
      <point x="880" y="1155"/>
      <point x="824" y="1181"/>
      <point x="750" y="1198"/>
      <point x="652" y="1205"/>
      <point x="585" y="1206" type="qcurve"/>
      <point x="585" y="725" type="line"/>
      <point x="619" y="725" type="line" smooth="yes"/>
      <point x="733" y="725"/>
      <point x="874" y="770"/>
      <point x="952" y="840"/>
      <point x="979" y="928"/>
      <point x="979" y="971" type="qcurve" smooth="yes"/>
      <point x="979" y="1020"/>
      <point x="940" y="1107"/>
    </contour>
    <contour>
      <point x="750" y="649" type="qcurve" smooth="yes"/>
      <point x="702" y="649"/>
      <point x="621" y="641"/>
      <point x="585" y="635" type="qcurve"/>
      <point x="585" y="104" type="line" smooth="yes"/>
      <point x="585" y="96"/>
      <point x="594" y="89" type="qcurve" smooth="yes"/>
      <point x="611" y="83"/>
      <point x="655" y="76"/>
      <point x="701" y="72"/>
      <point x="747" y="70"/>
      <point x="767" y="70" type="qcurve" smooth="yes"/>
      <point x="839" y="70"/>
      <point x="955" y="107"/>
      <point x="1038" y="173"/>
      <point x="1082" y="266"/>
      <point x="1082" y="322" type="qcurve" smooth="yes"/>
      <point x="1082" y="377"/>
      <point x="1043" y="493"/>
      <point x="962" y="588"/>
      <point x="837" y="649"/>
    </contour>
    <contour>
      <point x="30" y="1003" type="qcurve" smooth="yes"/>
      <point x="30" y="1068"/>
      <point x="107" y="1174"/>
      <point x="252" y="1249"/>
      <point x="459" y="1290"/>
      <point x="589" y="1290" type="qcurve" smooth="yes"/>
      <point x="674" y="1290"/>
      <point x="809" y="1281"/>
      <point x="917" y="1260"/>
      <point x="1001" y="1227"/>
      <point x="1037" y="1203" type="qcurve" smooth="yes"/>
      <point x="1082" y="1173"/>
      <point x="1135" y="1077"/>
      <point x="1135" y="1020" type="qcurve" smooth="yes"/>
      <point x="1135" y="912"/>
      <point x="1033" y="757"/>
      <point x="945" y="723" type="qcurve"/>
      <point x="1009" y="711"/>
      <point x="1119" y="645"/>
      <point x="1200" y="548"/>
      <point x="1246" y="425"/>
      <point x="1246" y="356" type="qcurve" smooth="yes"/>
      <point x="1246" y="271"/>
      <point x="1179" y="134"/>
      <point x="1058" y="38"/>
      <point x="890" y="-14"/>
      <point x="789" y="-14" type="qcurve" smooth="yes"/>
      <point x="760" y="-14"/>
      <point x="672" y="-12"/>
      <point x="576" y="-9"/>
      <point x="479" y="-5"/>
      <point x="401" y="-2"/>
      <point x="353" y="0"/>
      <point x="353" y="0" type="qcurve"/>
      <point x="280" y="0" type="line"/>
      <point x="280" y="43" type="line"/>
      <point x="348" y="57"/>
      <point x="425" y="90"/>
      <point x="425" y="104" type="qcurve" smooth="yes"/>
      <point x="425" y="1199" type="line"/>
      <point x="373" y="1192"/>
      <point x="288" y="1166"/>
      <point x="227" y="1126"/>
      <point x="194" y="1071"/>
      <point x="194" y="1036" type="qcurve" smooth="yes"/>
      <point x="194" y="1000"/>
      <point x="232" y="944"/>
      <point x="263" y="930" type="qcurve"/>
      <point x="260" y="924"/>
      <point x="229" y="902"/>
      <point x="185" y="880"/>
      <point x="136" y="860"/>
      <point x="115" y="856" type="qcurve"/>
      <point x="78" y="872"/>
      <point x="30" y="948"/>
    </contour>
  </outline>
</glyph>
<glyph name="uni0184" format="1">
  <advance width="1126"/>
  <unicode hex="0184"/>
  <outline>
    <contour>
      <point x="520" y="649" type="qcurve" smooth="yes"/>
      <point x="472" y="649"/>
      <point x="391" y="641"/>
      <point x="355" y="635" type="qcurve"/>
      <point x="355" y="104" type="line" smooth="yes"/>
      <point x="355" y="96"/>
      <point x="364" y="89" type="qcurve" smooth="yes"/>
      <point x="381" y="83"/>
      <point x="425" y="76"/>
      <point x="471" y="72"/>
      <point x="517" y="70"/>
      <point x="537" y="70" type="qcurve" smooth="yes"/>
      <point x="609" y="70"/>
      <point x="725" y="107"/>
      <point x="808" y="173"/>
      <point x="852" y="266"/>
      <point x="852" y="322" type="qcurve" smooth="yes"/>
      <point x="852" y="377"/>
      <point x="813" y="493"/>
      <point x="732" y="588"/>
      <point x="607" y="649"/>
    </contour>
    <contour>
      <point x="1016" y="356" type="qcurve" smooth="yes"/>
      <point x="1016" y="271"/>
      <point x="949" y="134"/>
      <point x="828" y="38"/>
      <point x="660" y="-14"/>
      <point x="559" y="-14" type="qcurve" smooth="yes"/>
      <point x="530" y="-14"/>
      <point x="442" y="-12"/>
      <point x="346" y="-9"/>
      <point x="249" y="-5"/>
      <point x="171" y="-2"/>
      <point x="123" y="0"/>
      <point x="123" y="0" type="qcurve"/>
      <point x="50" y="0" type="line"/>
      <point x="50" y="43" type="line"/>
      <point x="118" y="57"/>
      <point x="195" y="90"/>
      <point x="195" y="104" type="qcurve" smooth="yes"/>
      <point x="195" y="726" type="line" smooth="yes"/>
      <point x="195" y="749"/>
      <point x="181" y="797"/>
      <point x="147" y="840"/>
      <point x="92" y="876"/>
      <point x="50" y="887" type="qcurve"/>
      <point x="50" y="930" type="line"/>
      <point x="130" y="1009"/>
      <point x="263" y="1196"/>
      <point x="319" y="1290" type="qcurve"/>
      <point x="355" y="1260" type="line"/>
      <point x="355" y="720" type="line"/>
      <point x="400" y="729"/>
      <point x="504" y="739"/>
      <point x="559" y="739" type="qcurve" smooth="yes"/>
      <point x="668" y="739"/>
      <point x="839" y="683"/>
      <point x="955" y="581"/>
      <point x="1016" y="440"/>
    </contour>
  </outline>
</glyph>
<glyph name="uni0185" format="1">
  <advance width="1060"/>
  <unicode hex="0185"/>
  <outline>
    <contour>
      <point x="836" y="408" type="qcurve" smooth="yes"/>
      <point x="836" y="508"/>
      <point x="794" y="663"/>
      <point x="725" y="769"/>
      <point x="635" y="825"/>
      <point x="587" y="825" type="qcurve" smooth="yes"/>
      <point x="569" y="825"/>
      <point x="510" y="804"/>
      <point x="436" y="755"/>
      <point x="352" y="672"/>
      <point x="310" y="610" type="qcurve"/>
      <point x="310" y="203" type="line"/>
      <point x="350" y="173"/>
      <point x="433" y="133"/>
      <point x="508" y="110"/>
      <point x="569" y="100"/>
      <point x="587" y="100" type="qcurve" smooth="yes"/>
      <point x="648" y="100"/>
      <point x="741" y="153"/>
      <point x="804" y="240"/>
      <point x="836" y="350"/>
    </contour>
    <contour>
      <point x="969" y="492" type="qcurve" smooth="yes"/>
      <point x="969" y="434"/>
      <point x="939" y="312"/>
      <point x="881" y="196"/>
      <point x="798" y="92"/>
      <point x="691" y="15"/>
      <point x="563" y="-30"/>
      <point x="489" y="-30" type="qcurve" smooth="yes"/>
      <point x="470" y="-30"/>
      <point x="403" y="-13"/>
      <point x="316" y="19"/>
      <point x="214" y="66"/>
      <point x="160" y="96" type="qcurve"/>
      <point x="160" y="986" type="line" smooth="yes"/>
      <point x="160" y="1009"/>
      <point x="144" y="1057"/>
      <point x="109" y="1100"/>
      <point x="52" y="1136"/>
      <point x="10" y="1147" type="qcurve"/>
      <point x="10" y="1190" type="line"/>
      <point x="90" y="1269"/>
      <point x="218" y="1456"/>
      <point x="274" y="1550" type="qcurve"/>
      <point x="310" y="1520" type="line"/>
      <point x="310" y="727" type="line"/>
      <point x="360" y="787"/>
      <point x="459" y="875"/>
      <point x="550" y="932"/>
      <point x="628" y="960"/>
      <point x="657" y="960" type="qcurve" smooth="yes"/>
      <point x="725" y="960"/>
      <point x="840" y="896"/>
      <point x="923" y="775"/>
      <point x="969" y="601"/>
    </contour>
  </outline>
</glyph>
<glyph name="uni018A" format="1">
  <advance width="1444"/>
  <unicode hex="018A"/>
  <outline>
    <contour>
      <point x="585" y="1206" type="line"/>
      <point x="585" y="154" type="line" smooth="yes"/>
      <point x="585" y="132"/>
      <point x="595" y="118" type="qcurve" smooth="yes"/>
      <point x="609" y="101"/>
      <point x="689" y="84"/>
      <point x="767" y="84" type="qcurve" smooth="yes"/>
      <point x="836" y="84"/>
      <point x="983" y="151"/>
      <point x="1104" y="288"/>
      <point x="1182" y="496"/>
      <point x="1182" y="637" type="qcurve" smooth="yes"/>
      <point x="1182" y="705"/>
      <point x="1162" y="838"/>
      <point x="1119" y="959"/>
      <point x="1051" y="1064"/>
      <point x="1003" y="1103" type="qcurve" smooth="yes"/>
      <point x="966" y="1133"/>
      <point x="888" y="1173"/>
      <point x="792" y="1196"/>
      <point x="672" y="1206"/>
      <point x="593" y="1206" type="qcurve" smooth="yes"/>
    </contour>
    <contour>
      <point x="30" y="1003" type="qcurve" smooth="yes"/>
      <point x="30" y="1079"/>
      <point x="122" y="1188"/>
      <point x="288" y="1257"/>
      <point x="519" y="1290"/>
      <point x="658" y="1290" type="qcurve" smooth="yes"/>
      <point x="739" y="1290"/>
      <point x="868" y="1280"/>
      <point x="973" y="1259"/>
      <point x="1058" y="1226"/>
      <point x="1096" y="1202" type="qcurve" smooth="yes"/>
      <point x="1167" y="1157"/>
      <point x="1265" y="1041"/>
      <point x="1327" y="907"/>
      <point x="1354" y="756"/>
      <point x="1354" y="676" type="qcurve" smooth="yes"/>
      <point x="1354" y="551"/>
      <point x="1303" y="354"/>
      <point x="1217" y="203"/>
      <point x="1103" y="98"/>
      <point x="978" y="31"/>
      <point x="848" y="0"/>
      <point x="789" y="0" type="qcurve" smooth="yes"/>
      <point x="280" y="0" type="line"/>
      <point x="280" y="43" type="line"/>
      <point x="348" y="57"/>
      <point x="425" y="90"/>
      <point x="425" y="104" type="qcurve" smooth="yes"/>
      <point x="425" y="1196" type="line"/>
      <point x="304" y="1180"/>
      <point x="194" y="1099"/>
      <point x="194" y="1036" type="qcurve" smooth="yes"/>
      <point x="194" y="1000"/>
      <point x="232" y="944"/>
      <point x="263" y="930" type="qcurve"/>
      <point x="260" y="924"/>
      <point x="229" y="902"/>
      <point x="185" y="880"/>
      <point x="136" y="860"/>
      <point x="115" y="856" type="qcurve"/>
      <point x="78" y="872"/>
      <point x="30" y="948"/>
    </contour>
  </outline>
</glyph>
<glyph name="uni018E" format="1">
  <advance width="1016"/>
  <unicode hex="018E"/>
  <outline>
    <contour>
      <point x="218" y="663" type="line"/>
      <point x="226" y="677"/>
      <point x="249" y="708"/>
      <point x="274" y="737"/>
      <point x="299" y="762"/>
      <point x="310" y="770" type="qcurve"/>
      <point x="325" y="755"/>
      <point x="360" y="741"/>
      <point x="405" y="735"/>
      <point x="435" y="735" type="qcurve" smooth="yes"/>
      <point x="466" y="735"/>
      <point x="508" y="735" type="qcurve" smooth="yes"/>
      <point x="649" y="735" type="line"/>
      <point x="649" y="1170" type="line"/>
      <point x="406" y="1170" type="line" smooth="yes"/>
      <point x="360" y="1170"/>
      <point x="295" y="1160"/>
      <point x="245" y="1125"/>
      <point x="204" y="1056"/>
      <point x="183" y="998" type="qcurve"/>
      <point x="140" y="1016" type="line"/>
      <point x="147" y="1102"/>
      <point x="173" y="1231"/>
      <point x="181" y="1260" type="qcurve"/>
      <point x="954" y="1260" type="line"/>
      <point x="954" y="1217" type="line"/>
      <point x="886" y="1203"/>
      <point x="809" y="1170"/>
      <point x="809" y="1156" type="qcurve" smooth="yes"/>
      <point x="809" y="105" type="line" smooth="yes"/>
      <point x="809" y="93"/>
      <point x="882" y="57"/>
      <point x="954" y="43" type="qcurve"/>
      <point x="954" y="0" type="line"/>
      <point x="98" y="0" type="line"/>
      <point x="65" y="25" type="line"/>
      <point x="66" y="50"/>
      <point x="78" y="134"/>
      <point x="94" y="221"/>
      <point x="110" y="298"/>
      <point x="116" y="317" type="qcurve"/>
      <point x="161" y="317" type="line"/>
      <point x="163" y="271"/>
      <point x="173" y="188"/>
      <point x="189" y="126"/>
      <point x="215" y="90"/>
      <point x="233" y="90" type="qcurve" smooth="yes"/>
      <point x="448" y="90" type="line" smooth="yes"/>
      <point x="512" y="90"/>
      <point x="591" y="98"/>
      <point x="635" y="115"/>
      <point x="649" y="143"/>
      <point x="649" y="163" type="qcurve" smooth="yes"/>
      <point x="649" y="655" type="line"/>
      <point x="439" y="655" type="line" smooth="yes"/>
      <point x="416" y="655"/>
      <point x="361" y="652"/>
      <point x="308" y="646"/>
      <point x="260" y="639"/>
      <point x="244" y="635" type="qcurve"/>
      <point x="218" y="663" type="line"/>
    </contour>
  </outline>
</glyph>
<glyph name="uni018F" format="1">
  <advance width="1122"/>
  <unicode hex="018F"/>
  <outline>
    <contour>
      <point x="540" y="84" type="qcurve" smooth="yes"/>
      <point x="602" y="84"/>
      <point x="714" y="127"/>
      <point x="804" y="226"/>
      <point x="867" y="384"/>
      <point x="879" y="500" type="qcurve"/>
      <point x="320" y="500" type="line" smooth="yes"/>
      <point x="291" y="500"/>
      <point x="252" y="435"/>
      <point x="252" y="379" type="qcurve" smooth="yes"/>
      <point x="252" y="325"/>
      <point x="298" y="219"/>
      <point x="376" y="135"/>
      <point x="481" y="84"/>
    </contour>
    <contour>
      <point x="1042" y="678" type="qcurve" smooth="yes"/>
      <point x="1042" y="520"/>
      <point x="963" y="260"/>
      <point x="819" y="73"/>
      <point x="618" y="-30"/>
      <point x="495" y="-30" type="qcurve" smooth="yes"/>
      <point x="397" y="-30"/>
      <point x="243" y="40"/>
      <point x="136" y="151"/>
      <point x="80" y="288"/>
      <point x="80" y="354" type="qcurve" smooth="yes"/>
      <point x="80" y="389"/>
      <point x="93" y="471"/>
      <point x="115" y="502" type="qcurve"/>
      <point x="138" y="516"/>
      <point x="199" y="547"/>
      <point x="255" y="573"/>
      <point x="299" y="590"/>
      <point x="306" y="590" type="qcurve" smooth="yes"/>
      <point x="885" y="590" type="line"/>
      <point x="885" y="602"/>
      <point x="886" y="627"/>
      <point x="886" y="641" type="qcurve" smooth="yes"/>
      <point x="886" y="774"/>
      <point x="809" y="973"/>
      <point x="688" y="1107"/>
      <point x="540" y="1174"/>
      <point x="468" y="1174" type="qcurve" smooth="yes"/>
      <point x="441" y="1174"/>
      <point x="374" y="1163"/>
      <point x="291" y="1132"/>
      <point x="190" y="1078"/>
      <point x="130" y="1036" type="qcurve"/>
      <point x="125" y="1038"/>
      <point x="114" y="1051"/>
      <point x="104" y="1065"/>
      <point x="96" y="1078"/>
      <point x="94" y="1081" type="qcurve" smooth="yes"/>
      <point x="161" y="1148"/>
      <point x="279" y="1230"/>
      <point x="387" y="1275"/>
      <point x="487" y="1290"/>
      <point x="538" y="1290" type="qcurve" smooth="yes"/>
      <point x="632" y="1290"/>
      <point x="813" y="1208"/>
      <point x="955" y="1051"/>
      <point x="1042" y="823"/>
    </contour>
  </outline>
</glyph>
<glyph name="uni0190" format="1">
  <advance width="1042"/>
  <unicode hex="0190"/>
  <outline>
    <contour>
      <point x="963" y="213" type="line"/>
      <point x="902" y="145"/>
      <point x="786" y="52"/>
      <point x="664" y="-5"/>
      <point x="533" y="-30"/>
      <point x="457" y="-30" type="qcurve" smooth="yes"/>
      <point x="365" y="-30"/>
      <point x="224" y="30"/>
      <point x="129" y="123"/>
      <point x="80" y="233"/>
      <point x="80" y="283" type="qcurve" smooth="yes"/>
      <point x="80" y="341"/>
      <point x="119" y="450"/>
      <point x="185" y="543"/>
      <point x="270" y="614"/>
      <point x="317" y="635" type="qcurve"/>
      <point x="221" y="669"/>
      <point x="113" y="806"/>
      <point x="113" y="905" type="qcurve" smooth="yes"/>
      <point x="113" y="992"/>
      <point x="209" y="1148"/>
      <point x="299" y="1202" type="qcurve" smooth="yes"/>
      <point x="364" y="1242"/>
      <point x="500" y="1290"/>
      <point x="588" y="1290" type="qcurve" smooth="yes"/>
      <point x="696" y="1290"/>
      <point x="879" y="1240"/>
      <point x="944" y="1186" type="qcurve"/>
      <point x="927" y="1152"/>
      <point x="880" y="1094"/>
      <point x="854" y="1065" type="qcurve"/>
      <point x="811" y="1073" type="line"/>
      <point x="779" y="1100"/>
      <point x="719" y="1141"/>
      <point x="653" y="1168"/>
      <point x="579" y="1182"/>
      <point x="535" y="1182" type="qcurve" smooth="yes"/>
      <point x="480" y="1182"/>
      <point x="378" y="1145"/>
      <point x="299" y="1079"/>
      <point x="252" y="990"/>
      <point x="252" y="938" type="qcurve" smooth="yes"/>
      <point x="252" y="897"/>
      <point x="285" y="817"/>
      <point x="370" y="751"/>
      <point x="517" y="707"/>
      <point x="631" y="702" type="qcurve"/>
      <point x="631" y="631" type="line"/>
      <point x="528" y="624"/>
      <point x="379" y="566"/>
      <point x="283" y="485"/>
      <point x="238" y="389"/>
      <point x="238" y="344" type="qcurve" smooth="yes"/>
      <point x="238" y="290"/>
      <point x="285" y="199"/>
      <point x="368" y="133"/>
      <point x="479" y="96"/>
      <point x="543" y="96" type="qcurve" smooth="yes"/>
      <point x="592" y="96"/>
      <point x="674" y="107"/>
      <point x="758" y="141"/>
      <point x="855" y="205"/>
      <point x="920" y="258" type="qcurve"/>
      <point x="963" y="213" type="line"/>
    </contour>
  </outline>
</glyph>
<glyph name="uni0191" format="1">
  <advance width="979"/>
  <unicode hex="0191"/>
  <outline>
    <contour>
      <point x="355" y="178" type="line"/>
      <point x="355" y="68"/>
      <point x="321" y="-82"/>
      <point x="266" y="-186"/>
      <point x="194" y="-257"/>
      <point x="156" y="-288" type="qcurve" smooth="yes"/>
      <point x="129" y="-309"/>
      <point x="63" y="-343"/>
      <point x="-2" y="-367"/>
      <point x="-61" y="-380"/>
      <point x="-80" y="-380" type="qcurve" smooth="yes"/>
      <point x="-110" y="-380"/>
      <point x="-170" y="-361"/>
      <point x="-216" y="-336"/>
      <point x="-245" y="-309"/>
      <point x="-245" y="-300" type="qcurve" smooth="yes"/>
      <point x="-245" y="-292"/>
      <point x="-219" y="-262"/>
      <point x="-183" y="-232"/>
      <point x="-143" y="-205"/>
      <point x="-129" y="-200" type="qcurve"/>
      <point x="-101" y="-218"/>
      <point x="-59" y="-241"/>
      <point x="-23" y="-253"/>
      <point x="10" y="-257"/>
      <point x="29" y="-257" type="qcurve" smooth="yes"/>
      <point x="54" y="-257"/>
      <point x="113" y="-225"/>
      <point x="162" y="-144"/>
      <point x="195" y="-4"/>
      <point x="195" y="104" type="qcurve" smooth="yes"/>
      <point x="195" y="1155" type="line" smooth="yes"/>
      <point x="195" y="1167"/>
      <point x="122" y="1203"/>
      <point x="50" y="1217" type="qcurve"/>
      <point x="50" y="1260" type="line"/>
      <point x="866" y="1260" type="line"/>
      <point x="897" y="1235" type="line"/>
      <point x="896" y="1209"/>
      <point x="888" y="1147"/>
      <point x="877" y="1085"/>
      <point x="864" y="1029"/>
      <point x="858" y="1010" type="qcurve"/>
      <point x="811" y="1010" type="line"/>
      <point x="809" y="1056"/>
      <point x="798" y="1118"/>
      <point x="777" y="1155"/>
      <point x="748" y="1170"/>
      <point x="729" y="1170" type="qcurve" smooth="yes"/>
      <point x="355" y="1170" type="line"/>
      <point x="355" y="735" type="line"/>
      <point x="729" y="735" type="line"/>
      <point x="758" y="707" type="line"/>
      <point x="749" y="693"/>
      <point x="725" y="662"/>
      <point x="699" y="633"/>
      <point x="674" y="608"/>
      <point x="664" y="600" type="qcurve"/>
      <point x="649" y="615"/>
      <point x="615" y="635"/>
      <point x="570" y="649"/>
      <point x="509" y="655"/>
      <point x="467" y="655" type="qcurve" smooth="yes"/>
      <point x="355" y="655" type="line"/>
      <point x="355" y="178" type="line"/>
    </contour>
  </outline>
</glyph>
<glyph name="uni0193" format="1">
  <advance width="1194"/>
  <unicode hex="0193"/>
  <outline>
    <contour>
      <point x="1042" y="1188" type="line"/>
      <point x="1049" y="1183"/>
      <point x="1031" y="1154"/>
      <point x="998" y="1118"/>
      <point x="959" y="1083"/>
      <point x="946" y="1071" type="qcurve"/>
      <point x="913" y="1077" type="line"/>
      <point x="880" y="1108"/>
      <point x="810" y="1149"/>
      <point x="733" y="1171"/>
      <point x="647" y="1180"/>
      <point x="598" y="1180" type="qcurve" smooth="yes"/>
      <point x="573" y="1180"/>
      <point x="498" y="1157"/>
      <point x="415" y="1106"/>
      <point x="331" y="1023"/>
      <point x="265" y="902"/>
      <point x="223" y="741"/>
      <point x="223" y="637" type="qcurve" smooth="yes"/>
      <point x="223" y="498"/>
      <point x="298" y="292"/>
      <point x="418" y="157"/>
      <point x="569" y="90"/>
      <point x="645" y="90" type="qcurve" smooth="yes"/>
      <point x="718" y="90"/>
      <point x="841" y="119"/>
      <point x="890" y="146" type="qcurve"/>
      <point x="890" y="485" type="line" smooth="yes"/>
      <point x="890" y="496"/>
      <point x="871" y="517"/>
      <point x="824" y="537"/>
      <point x="745" y="557"/>
      <point x="684" y="567" type="qcurve"/>
      <point x="684" y="610" type="line"/>
      <point x="1145" y="610" type="line"/>
      <point x="1145" y="567" type="line"/>
      <point x="1088" y="553"/>
      <point x="1040" y="508"/>
      <point x="1040" y="485" type="qcurve" smooth="yes"/>
      <point x="1040" y="160" type="line"/>
      <point x="1040" y="160"/>
      <point x="1038" y="158"/>
      <point x="1036" y="157" type="qcurve"/>
      <point x="1038" y="156"/>
      <point x="1040" y="154" type="qcurve"/>
      <point x="966" y="93"/>
      <point x="849" y="21"/>
      <point x="751" y="-18"/>
      <point x="663" y="-30"/>
      <point x="618" y="-30" type="qcurve" smooth="yes"/>
      <point x="517" y="-30"/>
      <point x="321" y="45"/>
      <point x="166" y="198"/>
      <point x="70" y="427"/>
      <point x="70" y="582" type="qcurve" smooth="yes"/>
      <point x="70" y="748"/>
      <point x="175" y="1011"/>
      <point x="357" y="1194"/>
      <point x="600" y="1290"/>
      <point x="737" y="1290" type="qcurve" smooth="yes"/>
      <point x="772" y="1290"/>
      <point x="859" y="1274"/>
      <point x="904" y="1259" type="qcurve"/>
      <point x="911" y="1298"/>
      <point x="933" y="1364"/>
      <point x="967" y="1421"/>
      <point x="1012" y="1473"/>
      <point x="1041" y="1498" type="qcurve" smooth="yes"/>
      <point x="1092" y="1543"/>
      <point x="1203" y="1590"/>
      <point x="1242" y="1590" type="qcurve" smooth="yes"/>
      <point x="1285" y="1590"/>
      <point x="1358" y="1557"/>
      <point x="1411" y="1514"/>
      <point x="1440" y="1472"/>
      <point x="1440" y="1463" type="qcurve" smooth="yes"/>
      <point x="1440" y="1455"/>
      <point x="1411" y="1424"/>
      <point x="1371" y="1391"/>
      <point x="1328" y="1362"/>
      <point x="1313" y="1355" type="qcurve"/>
      <point x="1292" y="1389"/>
      <point x="1251" y="1433"/>
      <point x="1212" y="1458"/>
      <point x="1178" y="1467"/>
      <point x="1164" y="1467" type="qcurve" smooth="yes"/>
      <point x="1101" y="1467"/>
      <point x="1043" y="1332"/>
      <point x="1043" y="1189" type="qcurve"/>
      <point x="1042" y="1189"/>
      <point x="1042" y="1188" type="qcurve" smooth="yes"/>
      <point x="1042" y="1188"/>
      <point x="1041" y="1188" type="qcurve" smooth="yes"/>
      <point x="1042" y="1188" type="line"/>
    </contour>
  </outline>
</glyph>
<glyph name="uni0195" format="1">
  <advance width="1635"/>
  <unicode hex="0195"/>
  <outline>
    <contour>
      <point x="1555" y="504" type="qcurve" smooth="yes"/>
      <point x="1555" y="434"/>
      <point x="1520" y="301"/>
      <point x="1457" y="182"/>
      <point x="1370" y="83"/>
      <point x="1268" y="10"/>
      <point x="1155" y="-30"/>
      <point x="1097" y="-30" type="qcurve" smooth="yes"/>
      <point x="1040" y="-30"/>
      <point x="936" y="-1"/>
      <point x="857" y="72"/>
      <point x="810" y="195"/>
      <point x="810" y="289" type="qcurve" smooth="yes"/>
      <point x="810" y="521" type="line"/>
      <point x="810" y="530" type="line"/>
      <point x="810" y="633" type="line" smooth="yes"/>
      <point x="810" y="694"/>
      <point x="795" y="770"/>
      <point x="763" y="814"/>
      <point x="715" y="830"/>
      <point x="682" y="830" type="qcurve" smooth="yes"/>
      <point x="647" y="830"/>
      <point x="566" y="794"/>
      <point x="478" y="724"/>
      <point x="388" y="619"/>
      <point x="345" y="549" type="qcurve"/>
      <point x="345" y="104" type="line" smooth="yes"/>
      <point x="345" y="89"/>
      <point x="420" y="57"/>
      <point x="485" y="43" type="qcurve"/>
      <point x="485" y="0" type="line"/>
      <point x="55" y="0" type="line"/>
      <point x="55" y="43" type="line"/>
      <point x="121" y="60"/>
      <point x="195" y="87"/>
      <point x="195" y="104" type="qcurve" smooth="yes"/>
      <point x="195" y="1298" type="line" smooth="yes"/>
      <point x="195" y="1340"/>
      <point x="188" y="1387"/>
      <point x="159" y="1413"/>
      <point x="103" y="1424"/>
      <point x="55" y="1430" type="qcurve"/>
      <point x="55" y="1470" type="line"/>
      <point x="97" y="1478"/>
      <point x="166" y="1494"/>
      <point x="225" y="1513"/>
      <point x="279" y="1535"/>
      <point x="308" y="1550" type="qcurve"/>
      <point x="345" y="1516" type="line"/>
      <point x="345" y="684" type="line"/>
      <point x="388" y="748"/>
      <point x="493" y="850"/>
      <point x="599" y="922"/>
      <point x="700" y="960"/>
      <point x="739" y="960" type="qcurve" smooth="yes"/>
      <point x="782" y="960"/>
      <point x="862" y="934"/>
      <point x="923" y="880"/>
      <point x="960" y="797"/>
      <point x="960" y="741" type="qcurve" smooth="yes"/>
      <point x="960" y="454" type="line"/>
      <point x="959" y="454" type="line"/>
      <point x="959" y="342" type="line" smooth="yes"/>
      <point x="959" y="273"/>
      <point x="989" y="176"/>
      <point x="1040" y="116"/>
      <point x="1107" y="88"/>
      <point x="1144" y="88" type="qcurve" smooth="yes"/>
      <point x="1217" y="88"/>
      <point x="1317" y="153"/>
      <point x="1379" y="257"/>
      <point x="1406" y="386"/>
      <point x="1406" y="451" type="qcurve" smooth="yes"/>
      <point x="1406" y="528"/>
      <point x="1377" y="672"/>
      <point x="1315" y="785"/>
      <point x="1219" y="854"/>
      <point x="1152" y="856" type="qcurve"/>
      <point x="1136" y="897" type="line"/>
      <point x="1152" y="904"/>
      <point x="1204" y="922"/>
      <point x="1260" y="939"/>
      <point x="1313" y="955"/>
      <point x="1330" y="960" type="qcurve"/>
      <point x="1373" y="946"/>
      <point x="1454" y="874"/>
      <point x="1517" y="760"/>
      <point x="1555" y="604"/>
    </contour>
  </outline>
</glyph>
<glyph name="uni0198" format="1">
  <advance width="1263"/>
  <unicode hex="0198"/>
  <outline>
    <contour>
      <point x="50" y="0" type="line"/>
      <point x="50" y="43" type="line"/>
      <point x="118" y="57"/>
      <point x="195" y="90"/>
      <point x="195" y="104" type="qcurve" smooth="yes"/>
      <point x="195" y="1155" type="line" smooth="yes"/>
      <point x="195" y="1167"/>
      <point x="122" y="1203"/>
      <point x="50" y="1217" type="qcurve"/>
      <point x="50" y="1260" type="line"/>
      <point x="500" y="1260" type="line"/>
      <point x="500" y="1217" type="line"/>
      <point x="432" y="1203"/>
      <point x="355" y="1169"/>
      <point x="355" y="1155" type="qcurve" smooth="yes"/>
      <point x="355" y="104" type="line" smooth="yes"/>
      <point x="355" y="92"/>
      <point x="427" y="57"/>
      <point x="500" y="43" type="qcurve"/>
      <point x="500" y="0" type="line"/>
    </contour>
    <contour>
      <point x="804" y="1042" type="line"/>
      <point x="505" y="673" type="line"/>
      <point x="985" y="127" type="line" smooth="yes"/>
      <point x="1003" y="107"/>
      <point x="1044" y="85"/>
      <point x="1091" y="76"/>
      <point x="1141" y="77"/>
      <point x="1167" y="80" type="qcurve"/>
      <point x="1174" y="37" type="line"/>
      <point x="1115" y="18"/>
      <point x="996" y="-14"/>
      <point x="948" y="-14" type="qcurve" smooth="yes"/>
      <point x="919" y="-14"/>
      <point x="874" y="4"/>
      <point x="854" y="29" type="qcurve" smooth="yes"/>
      <point x="357" y="643" type="line"/>
      <point x="717" y="1103" type="line" smooth="yes"/>
      <point x="845" y="1270"/>
      <point x="1000" y="1270" type="qcurve" smooth="yes"/>
      <point x="1047" y="1270"/>
      <point x="1131" y="1245"/>
      <point x="1195" y="1191"/>
      <point x="1233" y="1106"/>
      <point x="1233" y="1046" type="qcurve" smooth="yes"/>
      <point x="1233" y="1000"/>
      <point x="1221" y="943" type="qcurve" smooth="yes"/>
      <point x="1218" y="935"/>
      <point x="1179" y="910"/>
      <point x="1125" y="885"/>
      <point x="1066" y="862"/>
      <point x="1042" y="856" type="qcurve"/>
      <point x="1024" y="885" type="line"/>
      <point x="1043" y="928"/>
      <point x="1059" y="998"/>
      <point x="1058" y="1027" type="qcurve" smooth="yes"/>
      <point x="1056" y="1088"/>
      <point x="1001" y="1151"/>
      <point x="959" y="1151" type="qcurve" smooth="yes"/>
      <point x="917" y="1151"/>
      <point x="835" y="1085"/>
      <point x="798" y="1031" type="qcurve"/>
    </contour>
  </outline>
</glyph>
<glyph name="uni0199" format="1">
  <advance width="1024"/>
  <unicode hex="0199"/>
  <outline>
    <contour>
      <point x="345" y="526" type="line"/>
      <point x="653" y="799" type="line" smooth="yes"/>
      <point x="686" y="828"/>
      <point x="700" y="863"/>
      <point x="681" y="881"/>
      <point x="636" y="887"/>
      <point x="610" y="887" type="qcurve"/>
      <point x="610" y="930" type="line"/>
      <point x="989" y="930" type="line"/>
      <point x="989" y="887" type="line"/>
      <point x="945" y="882"/>
      <point x="871" y="859"/>
      <point x="829" y="825" type="qcurve" smooth="yes"/>
      <point x="492" y="553" type="line"/>
      <point x="864" y="111" type="line" smooth="yes"/>
      <point x="878" y="95"/>
      <point x="908" y="74"/>
      <point x="944" y="62"/>
      <point x="989" y="59"/>
      <point x="1018" y="61" type="qcurve"/>
      <point x="1024" y="18" type="line"/>
      <point x="995" y="11"/>
      <point x="938" y="1"/>
      <point x="889" y="-6"/>
      <point x="850" y="-10"/>
      <point x="840" y="-10" type="qcurve" smooth="yes"/>
      <point x="798" y="-10"/>
      <point x="747" y="14"/>
      <point x="725" y="43" type="qcurve" smooth="yes"/>
      <point x="348" y="525" type="line"/>
      <point x="345" y="526" type="line"/>
      <point x="345" y="104" type="line" smooth="yes"/>
      <point x="345" y="96"/>
      <point x="352" y="84"/>
      <point x="374" y="71"/>
      <point x="418" y="55"/>
      <point x="455" y="43" type="qcurve"/>
      <point x="455" y="0" type="line"/>
      <point x="55" y="0" type="line"/>
      <point x="55" y="43" type="line"/>
      <point x="121" y="60"/>
      <point x="195" y="86"/>
      <point x="195" y="104" type="qcurve" smooth="yes"/>
      <point x="195" y="896" type="line"/>
      <point x="195" y="905" type="line" smooth="yes"/>
      <point x="196" y="1022"/>
      <point x="231" y="1192"/>
      <point x="294" y="1320"/>
      <point x="382" y="1416"/>
      <point x="436" y="1459" type="qcurve" smooth="yes"/>
      <point x="465" y="1482"/>
      <point x="533" y="1516"/>
      <point x="598" y="1539"/>
      <point x="657" y="1550"/>
      <point x="677" y="1550" type="qcurve" smooth="yes"/>
      <point x="718" y="1550"/>
      <point x="801" y="1517"/>
      <point x="867" y="1473"/>
      <point x="909" y="1430"/>
      <point x="909" y="1421" type="qcurve" smooth="yes"/>
      <point x="909" y="1413"/>
      <point x="880" y="1382"/>
      <point x="840" y="1347"/>
      <point x="797" y="1317"/>
      <point x="782" y="1311" type="qcurve"/>
      <point x="736" y="1363"/>
      <point x="629" y="1427"/>
      <point x="567" y="1427" type="qcurve" smooth="yes"/>
      <point x="535" y="1427"/>
      <point x="458" y="1381"/>
      <point x="390" y="1268"/>
      <point x="345" y="1079"/>
      <point x="345" y="936" type="qcurve" smooth="yes"/>
    </contour>
  </outline>
</glyph>
<glyph name="uni019B" format="1">
  <advance width="1083"/>
  <unicode hex="019B"/>
  <outline>
    <contour>
      <point x="855" y="1423" type="line"/>
      <point x="852" y="1406"/>
      <point x="849" y="1387"/>
      <point x="845" y="1371"/>
      <point x="838" y="1351"/>
      <point x="831" y="1334" type="qcurve"/>
      <point x="590" y="1161" type="line"/>
      <point x="613" y="1086"/>
      <point x="668" y="892"/>
      <point x="702" y="768" type="qcurve" smooth="yes"/>
      <point x="742" y="620"/>
      <point x="814" y="374"/>
      <point x="880" y="198"/>
      <point x="940" y="101"/>
      <point x="968" y="101" type="qcurve" smooth="yes"/>
      <point x="980" y="101"/>
      <point x="1000" y="104"/>
      <point x="1025" y="112"/>
      <point x="1058" y="126"/>
      <point x="1083" y="137" type="qcurve"/>
      <point x="1093" y="92" type="line"/>
      <point x="1018" y="35"/>
      <point x="921" y="-31"/>
      <point x="887" y="-31" type="qcurve" smooth="yes"/>
      <point x="861" y="-31"/>
      <point x="817" y="-6"/>
      <point x="776" y="58"/>
      <point x="734" y="168"/>
      <point x="681" y="340"/>
      <point x="615" y="581"/>
      <point x="572" y="743" type="qcurve" smooth="yes"/>
      <point x="570" y="747"/>
      <point x="569" y="754"/>
      <point x="567" y="759" type="qcurve"/>
      <point x="523" y="672"/>
      <point x="439" y="505"/>
      <point x="359" y="329"/>
      <point x="284" y="137"/>
      <point x="249" y="26" type="qcurve"/>
      <point x="229" y="21"/>
      <point x="176" y="6"/>
      <point x="120" y="-11"/>
      <point x="68" y="-26"/>
      <point x="50" y="-31" type="qcurve"/>
      <point x="20" y="2" type="line"/>
      <point x="72" y="68"/>
      <point x="174" y="222"/>
      <point x="269" y="387"/>
      <point x="357" y="557"/>
      <point x="432" y="723"/>
      <point x="493" y="878"/>
      <point x="515" y="946" type="qcurve"/>
      <point x="504" y="983"/>
      <point x="483" y="1048"/>
      <point x="473" y="1077" type="qcurve"/>
      <point x="205" y="884" type="line"/>
      <point x="176" y="909" type="line"/>
      <point x="178" y="922"/>
      <point x="180" y="937"/>
      <point x="184" y="954"/>
      <point x="191" y="978"/>
      <point x="199" y="999" type="qcurve"/>
      <point x="440" y="1171" type="line"/>
      <point x="417" y="1229"/>
      <point x="379" y="1299"/>
      <point x="344" y="1338"/>
      <point x="311" y="1351"/>
      <point x="294" y="1351" type="qcurve" smooth="yes"/>
      <point x="259" y="1351"/>
      <point x="186" y="1317"/>
      <point x="137" y="1279" type="qcurve"/>
      <point x="113" y="1330" type="line"/>
      <point x="163" y="1381"/>
      <point x="244" y="1450"/>
      <point x="309" y="1492"/>
      <point x="360" y="1510"/>
      <point x="381" y="1510" type="qcurve" smooth="yes"/>
      <point x="405" y="1510"/>
      <point x="445" y="1495"/>
      <point x="486" y="1442"/>
      <point x="531" y="1341"/>
      <point x="560" y="1256" type="qcurve"/>
      <point x="827" y="1447" type="line"/>
      <point x="855" y="1423" type="line"/>
    </contour>
  </outline>
</glyph>
<glyph name="uni019D" format="1">
  <advance width="1329"/>
  <unicode hex="019D"/>
  <outline>
    <contour>
      <point x="1135" y="-30" type="line"/>
      <point x="1085" y="-24"/>
      <point x="1028" y="4"/>
      <point x="1016" y="21" type="qcurve" smooth="yes"/>
      <point x="315" y="993" type="line"/>
      <point x="315" y="205" type="line" smooth="yes"/>
      <point x="315" y="86"/>
      <point x="295" y="-73"/>
      <point x="254" y="-183"/>
      <point x="195" y="-256"/>
      <point x="156" y="-288" type="qcurve" smooth="yes"/>
      <point x="129" y="-309"/>
      <point x="63" y="-343"/>
      <point x="-2" y="-367"/>
      <point x="-61" y="-380"/>
      <point x="-80" y="-380" type="qcurve" smooth="yes"/>
      <point x="-110" y="-380"/>
      <point x="-170" y="-361"/>
      <point x="-216" y="-336"/>
      <point x="-245" y="-309"/>
      <point x="-245" y="-300" type="qcurve" smooth="yes"/>
      <point x="-245" y="-292"/>
      <point x="-219" y="-262"/>
      <point x="-183" y="-232"/>
      <point x="-143" y="-205"/>
      <point x="-129" y="-200" type="qcurve"/>
      <point x="-101" y="-218"/>
      <point x="-59" y="-241"/>
      <point x="-23" y="-253"/>
      <point x="10" y="-257"/>
      <point x="29" y="-257" type="qcurve" smooth="yes"/>
      <point x="55" y="-257"/>
      <point x="114" y="-223"/>
      <point x="163" y="-136"/>
      <point x="195" y="16"/>
      <point x="195" y="133" type="qcurve" smooth="yes"/>
      <point x="195" y="1149" type="line"/>
      <point x="161" y="1180"/>
      <point x="89" y="1210"/>
      <point x="50" y="1217" type="qcurve"/>
      <point x="50" y="1260" type="line"/>
      <point x="262" y="1260" type="line" smooth="yes"/>
      <point x="277" y="1260"/>
      <point x="296" y="1255"/>
      <point x="315" y="1239"/>
      <point x="339" y="1208"/>
      <point x="358" y="1182" type="qcurve" smooth="yes"/>
      <point x="1015" y="276" type="line"/>
      <point x="1015" y="1155" type="line" smooth="yes"/>
      <point x="1015" y="1167"/>
      <point x="950" y="1206"/>
      <point x="870" y="1217" type="qcurve"/>
      <point x="870" y="1260" type="line"/>
      <point x="1280" y="1260" type="line"/>
      <point x="1280" y="1217" type="line"/>
      <point x="1208" y="1207"/>
      <point x="1135" y="1169"/>
      <point x="1135" y="1155" type="qcurve" smooth="yes"/>
      <point x="1135" y="-30" type="line"/>
    </contour>
  </outline>
</glyph>
<glyph name="uni01A2" format="1">
  <advance width="1854"/>
  <unicode hex="01A2"/>
  <outline>
    <contour>
      <point x="983" y="629" type="qcurve" smooth="yes"/>
      <point x="983" y="698"/>
      <point x="958" y="833"/>
      <point x="912" y="954"/>
      <point x="845" y="1058"/>
      <point x="761" y="1133"/>
      <point x="661" y="1176"/>
      <point x="604" y="1176" type="qcurve" smooth="yes"/>
      <point x="515" y="1176"/>
      <point x="374" y="1100"/>
      <point x="277" y="961"/>
      <point x="225" y="763"/>
      <point x="225" y="641" type="qcurve" smooth="yes"/>
      <point x="225" y="529"/>
      <point x="286" y="329"/>
      <point x="389" y="178"/>
      <point x="527" y="90"/>
      <point x="604" y="90" type="qcurve" smooth="yes"/>
      <point x="687" y="90"/>
      <point x="826" y="159"/>
      <point x="927" y="295"/>
      <point x="983" y="497"/>
    </contour>
    <contour>
      <point x="1335" y="-350" type="line"/>
      <point x="1335" y="-307" type="line"/>
      <point x="1403" y="-293"/>
      <point x="1480" y="-260"/>
      <point x="1480" y="-246" type="qcurve" smooth="yes"/>
      <point x="1480" y="220" type="line"/>
      <point x="1480" y="224" type="line"/>
      <point x="1480" y="872" type="line" smooth="yes"/>
      <point x="1480" y="954"/>
      <point x="1455" y="1061"/>
      <point x="1409" y="1125"/>
      <point x="1346" y="1151"/>
      <point x="1309" y="1151" type="qcurve" smooth="yes"/>
      <point x="1283" y="1151"/>
      <point x="1229" y="1141"/>
      <point x="1168" y="1111"/>
      <point x="1099" y="1055"/>
      <point x="1057" y="1009" type="qcurve"/>
      <point x="1098" y="928"/>
      <point x="1138" y="744"/>
      <point x="1138" y="647" type="qcurve" smooth="yes"/>
      <point x="1138" y="511"/>
      <point x="1048" y="266"/>
      <point x="893" y="80"/>
      <point x="689" y="-30"/>
      <point x="575" y="-30" type="qcurve" smooth="yes"/>
      <point x="455" y="-30"/>
      <point x="267" y="76"/>
      <point x="138" y="254"/>
      <point x="70" y="486"/>
      <point x="70" y="612" type="qcurve" smooth="yes"/>
      <point x="70" y="748"/>
      <point x="158" y="994"/>
      <point x="310" y="1180"/>
      <point x="515" y="1290"/>
      <point x="633" y="1290" type="qcurve" smooth="yes"/>
      <point x="754" y="1290"/>
      <point x="940" y="1186"/>
      <point x="1004" y="1098" type="qcurve"/>
      <point x="1103" y="1202"/>
      <point x="1289" y="1290"/>
      <point x="1376" y="1290" type="qcurve" smooth="yes"/>
      <point x="1419" y="1290"/>
      <point x="1512" y="1264"/>
      <point x="1589" y="1195"/>
      <point x="1639" y="1075"/>
      <point x="1639" y="981" type="qcurve" smooth="yes"/>
      <point x="1639" y="809" type="line" smooth="yes"/>
      <point x="1640" y="808"/>
      <point x="1640" y="805" type="qcurve" smooth="yes"/>
      <point x="1640" y="-246" type="line" smooth="yes"/>
      <point x="1640" y="-258"/>
      <point x="1713" y="-293"/>
      <point x="1785" y="-307" type="qcurve"/>
      <point x="1785" y="-350" type="line"/>
    </contour>
  </outline>
</glyph>
<glyph name="uni01A3" format="1">
  <advance width="1540"/>
  <unicode hex="01A3"/>
  <outline>
    <contour>
      <point x="797" y="455" type="qcurve" smooth="yes"/>
      <point x="797" y="534"/>
      <point x="745" y="677"/>
      <point x="661" y="786"/>
      <point x="557" y="850"/>
      <point x="506" y="850" type="qcurve" smooth="yes"/>
      <point x="430" y="850"/>
      <point x="326" y="792"/>
      <point x="261" y="691"/>
      <point x="233" y="553"/>
      <point x="233" y="473" type="qcurve" smooth="yes"/>
      <point x="233" y="394"/>
      <point x="289" y="251"/>
      <point x="375" y="143"/>
      <point x="478" y="80"/>
      <point x="524" y="80" type="qcurve" smooth="yes"/>
      <point x="595" y="80"/>
      <point x="698" y="133"/>
      <point x="765" y="231"/>
      <point x="797" y="369"/>
    </contour>
    <contour>
      <point x="1090" y="-480" type="line"/>
      <point x="1090" y="-437" type="line"/>
      <point x="1162" y="-418"/>
      <point x="1230" y="-390"/>
      <point x="1230" y="-376" type="qcurve" smooth="yes"/>
      <point x="1230" y="633" type="line" smooth="yes"/>
      <point x="1230" y="694"/>
      <point x="1216" y="770"/>
      <point x="1186" y="814"/>
      <point x="1137" y="830"/>
      <point x="1102" y="830" type="qcurve" smooth="yes"/>
      <point x="1058" y="830"/>
      <point x="964" y="777"/>
      <point x="907" y="709" type="qcurve"/>
      <point x="950" y="608"/>
      <point x="950" y="485" type="qcurve" smooth="yes"/>
      <point x="950" y="419"/>
      <point x="916" y="290"/>
      <point x="856" y="176"/>
      <point x="772" y="79"/>
      <point x="671" y="9"/>
      <point x="557" y="-30"/>
      <point x="496" y="-30" type="qcurve" smooth="yes"/>
      <point x="401" y="-30"/>
      <point x="248" y="42"/>
      <point x="139" y="168"/>
      <point x="80" y="342"/>
      <point x="80" y="444" type="qcurve" smooth="yes"/>
      <point x="80" y="510"/>
      <point x="113" y="638"/>
      <point x="172" y="753"/>
      <point x="255" y="850"/>
      <point x="356" y="920"/>
      <point x="472" y="960"/>
      <point x="535" y="960" type="qcurve" smooth="yes"/>
      <point x="644" y="960"/>
      <point x="814" y="865"/>
      <point x="868" y="782" type="qcurve"/>
      <point x="943" y="870"/>
      <point x="1096" y="960"/>
      <point x="1159" y="960" type="qcurve" smooth="yes"/>
      <point x="1202" y="960"/>
      <point x="1282" y="934"/>
      <point x="1343" y="880"/>
      <point x="1380" y="797"/>
      <point x="1380" y="741" type="qcurve" smooth="yes"/>
      <point x="1380" y="-376" type="line" smooth="yes"/>
      <point x="1380" y="-390"/>
      <point x="1441" y="-417"/>
      <point x="1520" y="-437" type="qcurve"/>
      <point x="1520" y="-480" type="line"/>
    </contour>
  </outline>
</glyph>
<glyph name="uni01A5" format="1">
  <advance width="1040"/>
  <unicode hex="01A5"/>
  <outline>
    <contour>
      <point x="816" y="426" type="qcurve" smooth="yes"/>
      <point x="816" y="513"/>
      <point x="775" y="663"/>
      <point x="706" y="772"/>
      <point x="616" y="834"/>
      <point x="568" y="834" type="qcurve" smooth="yes"/>
      <point x="550" y="834"/>
      <point x="492" y="812"/>
      <point x="418" y="761"/>
      <point x="334" y="674"/>
      <point x="290" y="610" type="qcurve"/>
      <point x="290" y="213" type="line"/>
      <point x="335" y="179"/>
      <point x="412" y="135"/>
      <point x="479" y="110"/>
      <point x="539" y="100"/>
      <point x="566" y="100" type="qcurve" smooth="yes"/>
      <point x="620" y="100"/>
      <point x="711" y="142"/>
      <point x="778" y="224"/>
      <point x="816" y="346"/>
    </contour>
    <contour>
      <point x="290" y="734" type="line"/>
      <point x="340" y="794"/>
      <point x="439" y="880"/>
      <point x="529" y="934"/>
      <point x="606" y="960"/>
      <point x="635" y="960" type="qcurve" smooth="yes"/>
      <point x="703" y="960"/>
      <point x="818" y="896"/>
      <point x="902" y="775"/>
      <point x="949" y="601"/>
      <point x="949" y="492" type="qcurve" smooth="yes"/>
      <point x="949" y="434"/>
      <point x="920" y="312"/>
      <point x="867" y="196"/>
      <point x="796" y="92"/>
      <point x="711" y="15"/>
      <point x="617" y="-30"/>
      <point x="568" y="-30" type="qcurve" smooth="yes"/>
      <point x="509" y="-30"/>
      <point x="361" y="36"/>
      <point x="290" y="98" type="qcurve"/>
      <point x="290" y="-375" type="line" smooth="yes"/>
      <point x="290" y="-391"/>
      <point x="365" y="-423"/>
      <point x="459" y="-437" type="qcurve"/>
      <point x="459" y="-480" type="line"/>
      <point x="0" y="-480" type="line"/>
      <point x="0" y="-437" type="line"/>
      <point x="66" y="-421"/>
      <point x="140" y="-392"/>
      <point x="140" y="-375" type="qcurve" smooth="yes"/>
      <point x="140" y="898" type="line" smooth="yes"/>
      <point x="141" y="1017"/>
      <point x="176" y="1190"/>
      <point x="239" y="1319"/>
      <point x="326" y="1416"/>
      <point x="379" y="1458" type="qcurve" smooth="yes"/>
      <point x="406" y="1480"/>
      <point x="473" y="1514"/>
      <point x="540" y="1538"/>
      <point x="599" y="1550"/>
      <point x="618" y="1550" type="qcurve" smooth="yes"/>
      <point x="663" y="1550"/>
      <point x="748" y="1517"/>
      <point x="814" y="1473"/>
      <point x="854" y="1430"/>
      <point x="854" y="1421" type="qcurve" smooth="yes"/>
      <point x="854" y="1413"/>
      <point x="825" y="1381"/>
      <point x="785" y="1348"/>
      <point x="742" y="1318"/>
      <point x="727" y="1311" type="qcurve"/>
      <point x="685" y="1363"/>
      <point x="571" y="1427"/>
      <point x="512" y="1427" type="qcurve" smooth="yes"/>
      <point x="480" y="1427"/>
      <point x="402" y="1381"/>
      <point x="335" y="1268"/>
      <point x="290" y="1079"/>
      <point x="290" y="936" type="qcurve" smooth="yes"/>
    </contour>
  </outline>
</glyph>
<glyph name="uni01A6" format="1">
  <advance width="1123"/>
  <unicode hex="01A6"/>
  <outline>
    <contour>
      <point x="432" y="936" type="qcurve" smooth="yes"/>
      <point x="412" y="936"/>
      <point x="375" y="935"/>
      <point x="355" y="934" type="qcurve"/>
      <point x="355" y="511" type="line"/>
      <point x="382" y="506"/>
      <point x="422" y="504"/>
      <point x="444" y="504" type="qcurve" smooth="yes"/>
      <point x="624" y="504"/>
      <point x="794" y="624"/>
      <point x="792" y="726" type="qcurve" smooth="yes"/>
      <point x="791" y="764"/>
      <point x="757" y="839"/>
      <point x="674" y="899"/>
      <point x="536" y="936"/>
    </contour>
    <contour>
      <point x="1173" y="-196" type="line"/>
      <point x="1107" y="-218"/>
      <point x="988" y="-247"/>
      <point x="949" y="-247" type="qcurve" smooth="yes"/>
      <point x="920" y="-247"/>
      <point x="865" y="-214"/>
      <point x="851" y="-192" type="qcurve" smooth="yes"/>
      <point x="483" y="418" type="line"/>
      <point x="461" y="418" type="line" smooth="yes"/>
      <point x="435" y="418"/>
      <point x="383" y="423"/>
      <point x="355" y="429" type="qcurve"/>
      <point x="355" y="104" type="line" smooth="yes"/>
      <point x="355" y="92"/>
      <point x="428" y="57"/>
      <point x="500" y="43" type="qcurve"/>
      <point x="500" y="0" type="line"/>
      <point x="50" y="0" type="line"/>
      <point x="50" y="43" type="line"/>
      <point x="118" y="57"/>
      <point x="195" y="90"/>
      <point x="195" y="104" type="qcurve" smooth="yes"/>
      <point x="195" y="1155" type="line" smooth="yes"/>
      <point x="195" y="1167"/>
      <point x="122" y="1203"/>
      <point x="50" y="1217" type="qcurve"/>
      <point x="50" y="1260" type="line"/>
      <point x="500" y="1260" type="line"/>
      <point x="500" y="1217" type="line"/>
      <point x="432" y="1203"/>
      <point x="355" y="1169"/>
      <point x="355" y="1155" type="qcurve" smooth="yes"/>
      <point x="355" y="1015" type="line"/>
      <point x="381" y="1017"/>
      <point x="438" y="1020"/>
      <point x="469" y="1020" type="qcurve" smooth="yes"/>
      <point x="600" y="1020"/>
      <point x="782" y="975"/>
      <point x="895" y="901"/>
      <point x="946" y="806"/>
      <point x="946" y="757" type="qcurve" smooth="yes"/>
      <point x="946" y="692"/>
      <point x="900" y="586"/>
      <point x="816" y="504"/>
      <point x="697" y="448"/>
      <point x="624" y="433" type="qcurve"/>
      <point x="982" y="-94" type="line" smooth="yes"/>
      <point x="997" y="-115"/>
      <point x="1032" y="-141"/>
      <point x="1075" y="-154"/>
      <point x="1128" y="-156"/>
      <point x="1162" y="-153" type="qcurve"/>
      <point x="1173" y="-196" type="line"/>
    </contour>
  </outline>
</glyph>
<glyph name="uni01A8" format="1">
  <advance width="791"/>
  <unicode hex="01A8"/>
  <outline>
    <contour>
      <point x="88" y="243" type="qcurve" smooth="yes"/>
      <point x="88" y="306"/>
      <point x="132" y="404"/>
      <point x="202" y="480"/>
      <point x="289" y="537"/>
      <point x="333" y="559" type="qcurve" smooth="yes"/>
      <point x="375" y="581"/>
      <point x="454" y="622"/>
      <point x="516" y="667"/>
      <point x="554" y="718"/>
      <point x="554" y="750" type="qcurve" smooth="yes"/>
      <point x="554" y="774"/>
      <point x="535" y="818"/>
      <point x="498" y="851"/>
      <point x="446" y="870"/>
      <point x="413" y="870" type="qcurve" smooth="yes"/>
      <point x="326" y="870"/>
      <point x="223" y="789"/>
      <point x="208" y="701" type="qcurve"/>
      <point x="169" y="693" type="line"/>
      <point x="163" y="701"/>
      <point x="142" y="752"/>
      <point x="126" y="809"/>
      <point x="118" y="857"/>
      <point x="124" y="863" type="qcurve" smooth="yes"/>
      <point x="144" y="881"/>
      <point x="217" y="915"/>
      <point x="301" y="943"/>
      <point x="385" y="960"/>
      <point x="417" y="960" type="qcurve" smooth="yes"/>
      <point x="474" y="960"/>
      <point x="571" y="935"/>
      <point x="643" y="880"/>
      <point x="684" y="792"/>
      <point x="684" y="730" type="qcurve" smooth="yes"/>
      <point x="684" y="671"/>
      <point x="647" y="585"/>
      <point x="586" y="519"/>
      <point x="508" y="470"/>
      <point x="466" y="449" type="qcurve" smooth="yes"/>
      <point x="420" y="425"/>
      <point x="331" y="380"/>
      <point x="261" y="329"/>
      <point x="218" y="267"/>
      <point x="218" y="227" type="qcurve" smooth="yes"/>
      <point x="218" y="192"/>
      <point x="242" y="133"/>
      <point x="286" y="91"/>
      <point x="346" y="68"/>
      <point x="382" y="68" type="qcurve" smooth="yes"/>
      <point x="434" y="68"/>
      <point x="523" y="106"/>
      <point x="590" y="169"/>
      <point x="630" y="250"/>
      <point x="632" y="292" type="qcurve"/>
      <point x="675" y="303" type="line"/>
      <point x="682" y="280"/>
      <point x="691" y="202"/>
      <point x="694" y="125"/>
      <point x="689" y="66"/>
      <point x="682" y="63" type="qcurve" smooth="yes"/>
      <point x="649" y="41"/>
      <point x="573" y="6"/>
      <point x="494" y="-18"/>
      <point x="417" y="-30"/>
      <point x="382" y="-30" type="qcurve" smooth="yes"/>
      <point x="326" y="-30"/>
      <point x="220" y="1"/>
      <point x="138" y="67"/>
      <point x="88" y="171"/>
    </contour>
  </outline>
</glyph>
<glyph name="uni01A9" format="1">
  <advance width="1064"/>
  <unicode hex="01A9"/>
  <outline>
    <contour>
      <point x="1009" y="345" type="line"/>
      <point x="1007" y="305"/>
      <point x="1000" y="207"/>
      <point x="992" y="111"/>
      <point x="985" y="27"/>
      <point x="983" y="0" type="qcurve"/>
      <point x="90" y="0" type="line"/>
      <point x="59" y="43" type="line"/>
      <point x="496" y="635" type="line"/>
      <point x="80" y="1217" type="line"/>
      <point x="80" y="1260" type="line"/>
      <point x="754" y="1260" type="line" smooth="yes"/>
      <point x="810" y="1260"/>
      <point x="907" y="1264"/>
      <point x="967" y="1276" type="qcurve"/>
      <point x="971" y="975" type="line"/>
      <point x="915" y="963" type="line"/>
      <point x="897" y="1037"/>
      <point x="861" y="1117"/>
      <point x="827" y="1153"/>
      <point x="795" y="1159"/>
      <point x="780" y="1159" type="qcurve" smooth="yes"/>
      <point x="311" y="1159" type="line"/>
      <point x="653" y="674" type="line"/>
      <point x="256" y="139" type="line"/>
      <point x="808" y="139" type="line" smooth="yes"/>
      <point x="839" y="139"/>
      <point x="880" y="158"/>
      <point x="910" y="207"/>
      <point x="938" y="291"/>
      <point x="956" y="357" type="qcurve"/>
      <point x="1009" y="345" type="line"/>
    </contour>
  </outline>
</glyph>
<glyph name="uni01AB" format="1">
  <advance width="705"/>
  <unicode hex="01AB"/>
  <outline>
    <contour>
      <point x="239" y="-287" type="qcurve"/>
      <point x="248" y="-277"/>
      <point x="281" y="-249"/>
      <point x="320" y="-223"/>
      <point x="360" y="-200"/>
      <point x="376" y="-194" type="qcurve"/>
      <point x="380" y="-199"/>
      <point x="394" y="-213"/>
      <point x="399" y="-221" type="qcurve"/>
      <point x="382" y="-266"/>
      <point x="388" y="-335"/>
      <point x="417" y="-381"/>
      <point x="459" y="-405"/>
      <point x="479" y="-405" type="qcurve" smooth="yes"/>
      <point x="504" y="-405"/>
      <point x="543" y="-386"/>
      <point x="571" y="-338"/>
      <point x="586" y="-257"/>
      <point x="586" y="-196" type="qcurve" smooth="yes"/>
      <point x="586" y="57" type="line"/>
      <point x="512" y="14"/>
      <point x="385" y="-30"/>
      <point x="344" y="-30" type="qcurve" smooth="yes"/>
      <point x="309" y="-30"/>
      <point x="246" y="-4"/>
      <point x="198" y="55"/>
      <point x="170" y="151"/>
      <point x="170" y="221" type="qcurve" smooth="yes"/>
      <point x="170" y="836" type="line"/>
      <point x="41" y="836" type="line"/>
      <point x="20" y="864" type="line"/>
      <point x="98" y="930" type="line"/>
      <point x="170" y="930" type="line"/>
      <point x="170" y="1176" type="line"/>
      <point x="289" y="1280" type="line"/>
      <point x="320" y="1255" type="line"/>
      <point x="320" y="930" type="line"/>
      <point x="647" y="930" type="line"/>
      <point x="676" y="901" type="line"/>
      <point x="667" y="887"/>
      <point x="640" y="856"/>
      <point x="612" y="827"/>
      <point x="585" y="805"/>
      <point x="575" y="801" type="qcurve"/>
      <point x="551" y="813"/>
      <point x="453" y="836"/>
      <point x="372" y="836" type="qcurve" smooth="yes"/>
      <point x="320" y="836" type="line"/>
      <point x="320" y="307" type="line" smooth="yes"/>
      <point x="320" y="247"/>
      <point x="331" y="168"/>
      <point x="357" y="121"/>
      <point x="398" y="102"/>
      <point x="428" y="102" type="qcurve" smooth="yes"/>
      <point x="463" y="102"/>
      <point x="569" y="128"/>
      <point x="647" y="168" type="qcurve"/>
      <point x="676" y="117" type="line"/>
      <point x="676" y="-167" type="line" smooth="yes"/>
      <point x="676" y="-274"/>
      <point x="629" y="-405"/>
      <point x="557" y="-476"/>
      <point x="471" y="-500"/>
      <point x="433" y="-500" type="qcurve" smooth="yes"/>
      <point x="390" y="-500"/>
      <point x="315" y="-465"/>
      <point x="262" y="-407"/>
      <point x="234" y="-329"/>
    </contour>
  </outline>
</glyph>
<glyph name="uni01AC" format="1">
  <advance width="1219"/>
  <unicode hex="01AC"/>
  <outline>
    <contour>
      <point x="30" y="1003" type="qcurve" smooth="yes"/>
      <point x="30" y="1068"/>
      <point x="83" y="1165"/>
      <point x="174" y="1229"/>
      <point x="293" y="1260"/>
      <point x="359" y="1260" type="qcurve" smooth="yes"/>
      <point x="1144" y="1260" type="line"/>
      <point x="1174" y="1235" type="line"/>
      <point x="1172" y="1184"/>
      <point x="1156" y="1063"/>
      <point x="1144" y="1000" type="qcurve"/>
      <point x="1099" y="1000" type="line"/>
      <point x="1090" y="1042"/>
      <point x="1075" y="1106"/>
      <point x="1056" y="1149"/>
      <point x="1028" y="1170"/>
      <point x="1006" y="1170" type="qcurve" smooth="yes"/>
      <point x="722" y="1170" type="line"/>
      <point x="722" y="115" type="line" smooth="yes"/>
      <point x="722" y="102"/>
      <point x="794" y="62"/>
      <point x="886" y="43" type="qcurve"/>
      <point x="886" y="0" type="line"/>
      <point x="398" y="0" type="line"/>
      <point x="398" y="43" type="line"/>
      <point x="444" y="52"/>
      <point x="507" y="72"/>
      <point x="545" y="91"/>
      <point x="562" y="108"/>
      <point x="562" y="115" type="qcurve" smooth="yes"/>
      <point x="562" y="1170" type="line"/>
      <point x="393" y="1170" type="line" smooth="yes"/>
      <point x="352" y="1170"/>
      <point x="280" y="1159"/>
      <point x="226" y="1129"/>
      <point x="194" y="1077"/>
      <point x="194" y="1036" type="qcurve" smooth="yes"/>
      <point x="194" y="1000"/>
      <point x="232" y="944"/>
      <point x="263" y="930" type="qcurve"/>
      <point x="260" y="924"/>
      <point x="229" y="902"/>
      <point x="185" y="880"/>
      <point x="136" y="860"/>
      <point x="115" y="856" type="qcurve"/>
      <point x="78" y="872"/>
      <point x="30" y="948"/>
    </contour>
  </outline>
</glyph>
